<mxfile host="65bd71144e" scale="5" border="0">
    <diagram id="qaDhL9xbpw49Xa-C6XhZ" name="Page-1">
        <mxGraphModel dx="1019" dy="961" grid="1" gridSize="10" guides="1" tooltips="1" connect="1" arrows="1" fold="1" page="1" pageScale="1" pageWidth="1169" pageHeight="827" math="0" shadow="0">
            <root>
                <mxCell id="0"/>
                <mxCell id="1" parent="0"/>
                <mxCell id="2" value="" style="shape=image;verticalLabelPosition=bottom;labelBackgroundColor=default;verticalAlign=top;aspect=fixed;imageAspect=0;image=data:image/png,iVBORw0KGgoAAAANSUhEUgAABGYAAAKwCAYAAADa/nn7AAAgAElEQVR4nOydB7wURfLHCwUTSclBMBFEQIJKUM8sKsEEivo/E4YzYM4B704xZwT1DJjuVBRMBBVQzCQlGEkqgiBRiSrJ/e/0e7tvw4QOVd09s/3js7zdme6qmp7u6e7v9M5W+uuvv1Lg5OTk5OREpKJOJhW4JxGKPCrth50K+cSdDTkK2cThVoRD5szAbzcl8lFcqSA7gpYD7YgZSEkaCL4mhO+QrBYhfhXrU0CCVFTOwHxR/iTbcnli//TRsYqe5pREpuhuISJ6WX/ZDXwGyOoEtx1JqdQdHvPchuU8m+q3KsxiXexU4zBtQMUteoebOFU2HYCTk5OTU7IUPa5OZq/rgAyCudgBGezZU7ibUgUy/AZ5kymeIN1ApgB0yNR3GSgjfp7LS0CmeHG4hbl8xNd31TZLLtPdum1AhkBxhTLczu0pamNyYMbJycnJiUb8s7BYS3VuiS+1u+o0UdBYiQuQkb/LLbxDzhxvfqz6IbsqIjJ/VDI+MmVfm5YMQfZAJFbJsCmsRPmIr8aRU3A+C05qrqwFPPH1LCNlIONWytjiPFZyYMbJycnJCUXBC2KS1SmbvnPK65wKWpCYEawzVEUsDWRQUgdnVDirioHgGEBbLKcK1mSBjLxHxVwpvz/CxoVQrRSUEYd2aC1JU50iN48eh0LdEfdCpmSNHuQUZyjD5dqd5KwcmHFycnJyklLwXNr1snoluUKG4DSp380nAjKaZw/4QEbNnipwoG/RnCtlkO1rsy58XotPnEzbClwxFJRNmvsplG9oVmUkKeuYPxUxqZdZuaRVprt79JUpdq2UiasoW26S5cCMk5OTk5OQEr4gJlD2fb1BdNolkkhcJoGQrC/+UPhm1liHJnlmi5KjARnVhTqCjUf2GhNYbkSrKkSfKSPbRmTyaYUyAnml25ykIdk6ocpbjD+bhHolEPEFX3/p2TmQsTMqHsU3cpNyYMbJycnJiUvBk6xkdsDEN0IVJLlCRjgxgSmJVTJSvjQDGWVJrnDgtyNmwBogo0mi0FX2Ib8ykeiAMvLnmR/KiHUbITulgYxYfllhXaukV8oQX7Ks6e3RV8qYNkBk0sgCKhJSWxJyYMbJycnJKVTB/WYye9REAhmpDMhmBGZmiPNaSbtiEeDHa+YuMz2QkTUomkxxVYQskFGV4qRaCneJLXgpz6JAAAWBDF6J81lSv/6rRWx9r2p6pYz1BYSjuEGZlM87zgxOOXJgxsnJyckpT9Hz52T2qPYOCCWBjC138HQAGTSJ3b7GAjLCg1q0QAoMkJ8ATnRgGZDhlnQ9UYeuWqEMOpApToBXJ/jyq17/haEd8VIWcytlzEBleZnvdUhk5LAclFGVAzNOTk5OTv5yQIYzAZXsATJSZn0zIAdHPQ7UBmTU7MnbSaHEIbtSxrrJN7JE2yxOG+OwJOlPBsroKvPY9E7Y1xRVqCfnRr9s6deIFbeVMsJObStwy+TAjJOTk1OJK3hylOwelOyuubIUBto2rJKRKFg8H7J2+YgJVvEGrvQQNIAGZMgX6lA3Klr7ZA/5VYk75fs22qb0ghexjGI+Uj7vsGT8gk4k247LtniihBSvXWa0nwZutB+36mFIDsw4OTk5lagckLFNinc+TQ8QJZY/xAXIKCsQpCQEyAjCOLyVMsoFEpqf7pkyinFL1ifZX16Spjk52aN24INyvjKONB+Z3/BKAaQmEGGeTPr7Y26UED/ZelC2xmWhHJhxcnJyKjEFT8qS3XuqDsDpJAlkbFgd45uJzwpFcWOjIOUYkWebaPwhZkAmUKpzYlUgI8z1/GfRom2es3Tz9yoADtG8qcAPXDu4dgcnIyYVgX512dFzfIXujAnZf1xXpkTKyEoZA44TLgdmnJycnEpEpQZk7AUx/gGYBDJSZn0zEKySkc4kbx8byCgPYrECIp9N0qwekF1pJB4m8eoHlXqmAGXkq53YShlVcBe1Sy4IyWRYHUgg/BOV3g6LH8aZgcxx8KhNltxUkk3iVCEHZpycnJwSquBBcrJ7ysQCGeHERCYlJ7UUQIbfJt/siA7IqNmTt5NCiQN9pY10Pr4CIVukgTbJlpNsGxLNJ/Nz2LKrZNDrhnA+sQSqX2+z7hoTbh4lpVSuElkpY3w4IiihmwxxOzgL5MCMk5OTU8JUIgtiipRYIGPLQFAHkEFfsEA8i+HzKu4YG8iQAxXOdRyq55dmYYi0ZMtHBobKrJSR+fqS9M9hVxjg2qG7bqgq6T+HTW/YKc4SvoK5eiQlB2acnJycEqLgSViye0gHZPiFs2oF6c60hKju5tKtbEkIkBGcDeOtglC1yOuXivik/P7IZucPSJKtpCQfRKNa33RIWz+BvqpKT6Fa89Ul9MNFMmjLDRIyQ4gOLb4O2C4HZpycnJxiLlOTGdOyF8goTlaJ4padFIpawV+Rg2AEfbIUZYB48hKV3zYggwQ2pM0Hnn+q86RI2FK+b/kMWgllUj7vJP0I7EmizB0t+ZIkEoOJrh1aD051SZsTjxyYcXJycoqZoidPye4Z7QUy/hIKx4ZVMpKza0ogI42DNAEZ5Wkn3ZIdJXMCO5SSB64IMQ1kAs8zUb5wM9HppasfFZThaBmWQruK3aYmpIqrrZysVDxXyrhVMrrkwIyTk5NTTOSAjGoCKgnf0w7Lrix8QOKATKGBQJCAZk/MQHxW2nBaQjugws3Ek2z536TO8yu34kXWpfgSm1TgB64dXLtVzdsi8TD1HphqlY20T2s+0KNt1cO2eHjFFXdcD85COTDj5OTkZLmCJz3J7g3tBTFIAdiwOsY3E58VCiDDb9MBmbz85At1/FOqAhnZ/GSTdeT6I7ziRdaSJijDf76oL87SyJY7gW2/voQt5WutdSKK07bD1xSPbYddKnJgxsnJyckyRY91k91lxg3ImF4hI23WNwPChAc9I4cRYiCDZtlWICN4nPj8gxgGSkp28irTFqVKWrI+Gf05bCX4Fg2StAMZtErpf07I6jxxR8udG/kAjQ8PEidXojrlwIyTk5OTrVK9HR0zOSCjyZwkbKAGMjirfRRshRhIBe1QMyuf3zYgI32OlUkVV37bf3VJYEdeEh1AptCnyE6ZLiy4SGg7AKxzZxZcc7ixZSWO8f48QrbFZ2SljEqDdZKRAzNOTk5OhhU9eE12z+eAjCZzkvXKPJDxSaEdyCiaxQoMLSDhHSjJZfPLcwQ5IMNdJ5HOhzBgkfAr8yyZirygXjVMAwFbVoiYspcYYlKoVM7/9snWuKLloIwJOTDj5OTkZEjBA9dk93ZxAzHhW1USigtnVYlZIMNvlx/IYIvj3j+fHSQgE5+VNpz5sepgIFiRPF/oCcPzC5eLPFuRyijbVmViDM9jvFOoEHoo6mWHI01gyqJT6Svb4yOSWyljhxyYcXJyctKsEuEviZEtpwlnpY7U+hQFfzK2xSOgW5AiRyDU60wBkMECKoIpyYCMKrxTBTLSS3BwoK0sYCVbOeTvLuBD8A6shVh5GYnqSsVu4joTZRB38ZW9IgZatsnu6MKEdmclEeI53EqI/hyYcXJyciJW9OQm2T2d/StkMpJcnUAUPz4gIbonjTqvCZxxy7gUdqPtrnGEBX0rXBRBg5DVaMPk1wq+6qVqTiI9DTCVfaYMX/3jgDIqsJb6YShIMoCRxbzFoxgFRLTCyNZy0hpX6UIZlUOLyisCbhyYcXJyciKSAzKqCailGID1QIZqfYpYRqlVG8gT6CAD9gzqy4EMdpXEAjLK55q2sZN/dUl1MqhYsLqeKcO3SiZyJyU55U+BtVJG1j+5ASzzpmF0vPxGyda4gpTyeReRMBHSeTgZXzyAxoEZJycnJ2Q5IKOagFpUkyw1lR6QoaIv0Sp2obY0RT5k3ZVJZaauEAjRShnZr6EIT1plz7MqaJOtlhIZ+aAMB9BTuj5EwyTtQAab3lLB4QB3MTVvhUejsulwbYpFUXK8mbcAKuX9ibLil8yBGScnJyckpYreBKZIpByQkRNuHAh3mhUzKkVAvFLGViCDtlJG7XBCNgjmJwYyspVRFsioSrjeiS92Kc8mmTHHr8hOmXoTfEppOwis6yz19VNV1v36ErIb48OIANkaV5DiFq+q+C5tqqUS0G9U8ic1fitpHJhxcnJykpRbGaOaQJcSAmQCM8VlhUxEKp9dWEAGzTISkMEaBwqDhqitMQEydNcepFUNsiBQoX7Z/nPYSFMeygSEuW2yp6kcrOn/nUpR/IxZQ0XN0NIsgckHNbmAxoEZJycnJ0E5IKOagFqck1Cx7GjCA0NxAjI+KbHvSHO5Mjs5IwMygnWEbJJMBmRw8keKDMhIuRfLJ5FZtu3id3nGO40KoYeieGNAzk3czEd6jmu5CUv7eSQmqprFf+/KwIEVDgAqFQMaB2acnJycOBU9qYpZDyYo+4GMv2wJSxeQoZ4jKd+ZFVs0IybZlQrC9swYIgMyyhCOupXZtdpB3E90BGpQRiy3bD3Cn99Er/JRh3nohJlTKb8/BqUpAjQ35kuMR/GIUjLOuBwcUF5hCZVdSVMBaByYcXJycgpQLC/0iLJlhYloANQrRMjNKcyeVedIOPblyAtG7LYCGX1zFUFPdCRMzE1EnZfNz38NU7yGKBKvODzkVxbKBCLCmKzwUCxhclnzc9i2xMEr2+LVHk9yVspEg2bLDyYH0Dgw4+Tk5FSg2F/kFRWflTHYyw9wZALI0PhFjkJ18iyU2RSQCZjgG66qqpewlM87HjvWAxlVqKt6XqWrqRzY4KuPHFBG6ZrBF7t6P6R2crCYJZVk6zidHywh3Wghlq1xoSgGB8cPimNwMBmlOwQHZpycnEpe/IPOGF3gJRSfozM7mUKX5KyHGsTwJxebHaMUfyAfsGMSgvYrS4EbIncI2hG0bhrIyPotTInkiHN9ScVeFSATbT4gb+Gb0FT+WwT8ykIZVd7ifg47rtIEZBJXbqJSbYBmFc1eLD+ACDkw4+TkVLJyQKZMcV0hYwuQwY1DGoMg+Ba1L05esO9CYwEZrMCsBTKqcXACAfVJNadUqSTS5FkUyKicmJRC/jhAGfU6iwNkdAFvaTf0jUQstzXjAz2K2+EKxWvxwRGPjKyRAzNOTk4lp+jJTzIu8EGK34ArIUAGwZIdUEZudoURu/BEOMosFpBRNeNvVmSH/17luariyhIFzyLJZK9pstcSPJAjkE9llUxkfpzVCorMWcG4uh1584EYClWaegnj3X7JrZTRFle8V8r4io84x0oOzDg5OSVebmWMoIwXg+JAlzh+vDuqyhgENaN0NOgTHR4jaksH1GMrADJYK2VUV0RI2lEFMvIrZdTAluxkFd8f3UWnDMqI25eBMirNLdyF8U5Fm+IKFszd8IhH3YhHlBVK9EoZ/otb7OTAjJOTU+IkPrhM1oW9UPKTJrOyLSy8gasdQEb5DiwlkCkwhDOtthjISKYsGSAjvdIl5fdHXKptWRa4SWbkr58RUEa5waTUb9Rz5VclRzJCqlto0hQBkRvz5edkk0oNyGTkwIyTk1Ni5FbGlMmWlSX8Upx22zZQNAVkODNTARkx23xusYAMygQz1ww2kBGsM6qHo3ppjBuQkVagGWIgwwE0/PMFfQhNKZ0kOGl0+ePVYTVL4rn1dpzJXWyU2APjk23jFksU3TfF/QjD5cCMk5NTbFWi3EVd1pSPAzK0fmWTys2mkNiH9CTY1yRWUAEfpa1Jkg06oIJUR1VXRwgnDMioetpMAhl+NwV5gz5E7+AHhVHJEJePcHFhhWuDdE4sA1jmNYEptOPVPACxZrxjqSwpn2iObEmgxHJgxsnJKXYSn5wk+4Ie1xUyOkCEFrOysxp0v6r2xVbIUIzTlSddaPPCgkgMAxms5IEGyK8NapWVfoVNfgbZ4lCpJypzD776xYGZlE5TCmchDlcM8jRaGeXgstpId8mRIGy2ROjxaR+/UN5N0aXYBKosB2acnJxiI/5BZGlcxLHnePRKOpAh9idoIE5AJv+jwbvghXUUC8goplRkf8orG+SvNWptXrb8rLv0RUgWyvCtkonIJ5BfkPuImefKr3qQCtIEZErl57BtYcFE2e1XXA4wLnEiyYEZJycna1Xi3CVQ8QEyipMlWweECrNkJd9oQEZ+BoVySgiADFZdIQMykhezkgEy0pPelN8fcUXmV6UOEVlJf3UpPwEJlNHS6ahVWpO4F9eLJiDjhCvtBR+PlTLRXaNFwWqQAzNOTk7WSXwykuwLt+k7W+KyE8goS3KWbNcKGfHBGvYKmUBYgGpT0ABCKL7ZBYEMFowuNSAjLZxlHNJh6PzVpcDkGLSYjlsZ7P8E2yiNOzTP5vphxfGAZtken7IsOUAHZPzlwIyTk5MxyU9Ckn3Bjh+IyUhwUuafHV348RADGeVJuGBKTUCm2KaEB6T5eFEk2HWPjrAIJhczgMQpFBJwGlDlaZH5adu4MpCJdM55REqgLsWVn8sFYcUhqnLJlW39sLWO7JDQtcuCsom+bFkQpEE5MOPk5KRdDsgoyppiwF5egKvYARnOzFQgRty+rFuDkywiIKN6k68oGzaQIW9rmu7m2wJkpM8zUt0XvEbJ1q9gN0jXwsg5pIlrhV4S434O2w7FK1qTK6DkxHctiNtZwJcDM05OTlqkcrcu6Rfr+BWD4roHB2SkMypHQn0zLXB1jKIHSwBKYHbJukMGZFQn3pwJuUGDHCMMTKlaHeRXuphxzFdvOVpcEoEMWn+it4NVBuzYuWNajqbd2iO7V8qEykGZrByYcXJyIpHg+FE0QawVPxCTkeI9zNgAGQ0rYwQMoA3glSfHfO4xgYz6eA135QgZkFGNQ9Cw6iVYO5BRXcQQmZ/24iS7UoZvlUxEPsH8KlCGy0VkndBVt/jsYtcMfjhs3QAgQv7xxu0o0IVcAMksz2QelYwcmHFyckKV2oQh2RfnuAMZU9nRzZo+HF1ARhOICd6ktjwA8z6xLc+QoQMq9CsZynabATLSQpr8Kn91STC/OCuOwBoa6hdOF68IcVVEDGToDUu6sW68oVclfvjkShx/JJYDM05OTkpyICZa8euYFKfXsVkZI2Yx7kBGzDa/W8wVMl5WG4EM/13uiPyKdgIt23INwWokqpNkpDoqD2SE3BTn487Pca1Wuu4g1i+sjhC9rqPg5GgvmkhJYi4FcVeJr5Thb+5xOzJaOTDj5OQkJQdkghXfO1UOyKD6FTRACWTE7PMZQQUy5dnRFkiohxKxgS8BFpAJXA+BVbci2gj5wpWAhPEFMuIGUoEfIlMHZ1GFMuT1S6CGUQEZa9imZiCDDYexzcq5p85moXR0/MhyUCZQDsw4OTmFCusml0KG2MgBGVzhgxi+BLpAjHhyMSBDNO4OhgSSdlGnI9qADHEdUnPPnwwLyCjXQdzJnWx+9Yf7Ipz5UBO4ADD49CNBawwgoxoDQg4VWd7doxmKC5Ahl01xGYiF/5pgU0HZIwdmnJycfKU6IVDIEBs5EEMjfPN2nQBlEBOxuzSATL6FknmGTFKBjGqdiMxv1zWgULJzFXQgw7lKhstNZN1QC1YZyOjqx/DvbjkpKDmlbddKGQdkcOTAjJOTExMeiFHOaL2SMs6yLUz8qoZ01xfRAEpExoAMghe+eV+kEewxHtmYEatykQMZITfoQEZaSBdjVbCXkjSQCvwQmtI/qQYog1c/5Asc+3pN1g9q6mD13yAyPHKwbeCSEVFcUmZtKyMHZbjlwIyTU4kKHy4k94Ib35UxGSV0hUxMgIzwZFVwN/Z4u9ieOoxBsAKYQEZ8pYF/AtkVC9HZdAMZXasX/I9L9ZokW2etADK+G/x3qN5AIYcyIYlS/FZ8bcUFyCT3Ib+c10BLFZc4lWXtgVobmFVyYMbJqUTkQAy/4l8UCQUxkQYSBmSw7l4LuFesOb52MYCM31tFSxH2wh1hlX1sgIys/8KUDshEbBDIi5Efr5HiDTLQ+x89HTQagMfObd34RFJJOQ5OhUJUiV1U0jTqKhk5MOPklFDhgxjljNZL040uQgnfk9Qq/ConZlFXlY9OrkZcqMBSKiqBoH1MIJPCMehnmneHSjaO5JYCGTlmWJwSebWCbH5TQIblDfwQmVp4N1/yVGzqm7xk0R2KK12ejShZR5MA2XpCbI3LUjkw4+SUMGFNHBAyWq/k3HnCXkaAK1NARtfKGF3+UE5T6OITu4BMKv8jgkUcW/6GZZMjw8WkApnIumXtxZmJv/6FrmvhtMGRVMOvLlXs1lXnAnKiXZfMytx4JRXyyX4lJ96YrZSJW8FbIgdmnJxiKvqLYnKvqklZGeP/STg7uuiqnl1ARniSKribaFxdEkCmKCvGhFjIXlRy3bNFXSsWkI8LqaNTXikjeUDoK4OUTyPfKhkuN1zzRGWsIp9bU9tC/0U4VTkgw2TbpTUpEr82lFgBKcqBGSenmIkOyCT34mkbuJCX0P3HoOz2qlSAjBynEVcgkMHxgDchKYhMC5AJd2ILkFGHyIrXDKQ4VK/BsjARDcionnfBjts3uTJQiYYVGDctpGoc5rUksu6geUJPqZSbquMwLcvCoVJiDtNBGSU5MOPkZLmwJggEBqxV0kCM/ydpM+jCj8suECOenOtWsoJ9MffY9z2xgUwq/yOmaZEdKtk4kiMDmcgJNk7lVq3zstfi0BUfPGaSBGQ449ACZTTUO/lTp6cj579eaQIySZVkAWgrtxI7QeLXhxIrICQ5MOPkZJmI+3oMA9ZK/50lKilOpW0FMUgGdPkX9yM3u6UHMkgeoud2/IZAZIITZSlsg6KwgAyWO+KJsXSdl+MYUeFw7clLZQjI+BgSTuCbBetih9EuMOseKpApz61clyM9cBq2foARICS46qRXtpwgB2VQ5MCMk5NhORAjr+SAmIwKJqxy2e2V4nIE+4CMHHFBP01UQAZxTpdrCWPFDT+QiVxHIJKc3w5+4eEImwJi2VO8NqBJ9fxLduiq9VC1/mWSbdq0KfvanH5V2qoSbL11Zaicfm299dZQuXJl9irOT0a7hY2S1RhNVdGWGzHGLl1upQy/Q1v6lxKAMipHVUkgrQMzTk6ape9mS/IujkkFMf6fhLOTCR8U2QVixJPLL4FBOWWRwMcWIONTv3FCC9kQuYNjL7+wgIx8v6AIc3n9F6bEWp0QWFxiFkvt4b6efvv1V1i6fCms+m0VrF27puy1Zi2sWbua/c1uW5t+v6bs/br16xlw2VT42lwGYniVgTQM2lTemv3dZpttoFq1aulX9bK/1cv+Vs18rlr+19tWtSrUqVMX6tStC7XTf3fccSf+A89TCvF6pSrlNT863QUaMl+OTlyycvwX/9pDcQSFNsNATaW//vor/qXo5GSh9EOE5DVlW0GFuuxeGUMPRIgnzZYBGdTTlfJ9i+cphWGlYKCPWAB8KxOCd2ItzMBaoSCfUPAaolw3EwpkJA2IAxWOyW9645YtW2DhwgWwbNlS9lq+bFn5+2Xp92V/M/s2b94sFXuYqlSpkvfypghbtmxmvrzYvL8UfitXrsIgTV0P1pQDmzo57+vXbwBNmjSFndMvDwr5XaioukW+a456BLaMGY0No7ChPbaIHEj0VlpPEpcr/kZirUxGngtqHJhxckIWcd9NYcg66R+gUAvpjlRsgQyfZV1ARtyP3KyWqqmjAxnUO84p9DFaKvBDZOrobFhAhtOeev+QVCDDaRmprpoEMkuXLoEFP/0EP/00HxYs+Cn9fn7Z5wXzYdHPP3PHslOtWlCvXn3YcccdoXr1GulXdfa3Ro2K9+xVo+J91WpVoUrlKlC5AMB4Lw+ORB1XZnMFrPH+bmF/N27cCOvWrUu/1lb8XbsO1mc/V+xbv349rFixHFYsX87+rlr1G/dxN2rUmAEaBmp2blLxvvzvVlttxW0rTNYBGRx3gYaMD6ckA9AWty1gRtMBi/cxxmuQkGyN1oEZJydJ6QMwZAal5N2t8u6cYcrcwIRK8QAxym6QGoEuIMOfXG12TQ9kkBAKQaCp/I9IVoM2RO6QmEjzepAjBKpNRvVZHrEFMplUqgxS0QDvHMT72tDs2d/B7Fmz2N/vv59XDmN+gg0b/gzM5/WvTZruAvXq1YN6detDXe9vvfrsc916uZ/r5z/rheO4xO58B+3CqfCFmz3Is2L5MgZplucAmwy88WCWt5Lo5/QravzhgZvmLVpC8+YtoFnzsr/e5512qiUWcokAGXTzskLvx5GF7FDqWqjxoMWuF8ZrT6RIIiw0KvIwmQA5MOPkxCnVO5SEHrUKC8yoDhLtlNTQNcgMmejjC09gH4jhzKHrBlboZFjdm+0/d40xMZJgOJzJdQMZwWsKEZARt+OfIbA8Oe2oVjHllTIF2devWwezPAAzexbMnlXxd/HiRYG2vK/lNN1lF9il6a7sb9Pyv97nxjvvHO6/aAci/MaCgiG25M9fKpvZK1sP0CxcuBAW/ryg/P2C7La//vIfn3hfi2rmQRoP1rQo++t9btCgYX5sxEBG2gpRx2l8mGU7kCFyLNx7aTpwub7GeC0KFEpkqkYEgI0DM05OAdLUN1MaJJEsmBE6ungUBaBNmW3rcIUNIE4OEAxQgxh5P3xhSE9eOexjTikckBHJL5pQN5DJZKC5ppkCMhV1ShHIpOU972XG9GkwY8Z0mD7tcwZhfv55oW8+76tELfdsBS1b7pl+tYLd92gGu5RDmG233VbKf9EejkNSr4eZ3eoVXwnKFP8JlAdu5s6dDfPmzGF/584t++s9LNlPtWvXgbZ7t4O2bduX/d27PTRu7A/I+CIIl34g42/I+DBLMgDtcZsGMkRxSJv3TWi8NhVJKiLdh+EDbByYcSp5YQ1cCD0bV9nD9vwVBGnMDT4o5UCMjAddQIY/udoAiGic7LNJ0ZPipDbIIObDfCus+n0ITRm+B23QH0kY5NxaA2T8j0/12iY9+cikUq76agfy26pVMHPGNJgxfTrM8P6mX4sXFa+C8SgoDsAAACAASURBVH5hyAMvLffcMwthvPcNGzUOCowz/og9WFAGC8hE2FKCMkjXsRUrVsA8BmrSr3JoM2/uHFiy5JeitLVq1WaAxgM1e3t/27YLXM3EK1uADLp5WaH360RyYCYikfGalKdYAJlC5QAaB2acSk4OxKgpasWMufKlEPKApkSAjH0ghjOHISATCQMk7aMDGSSj4hDFIJDBrotYE2EsICPGnaKtRgAn+fyc/iXP2/RpX8DEiZ9lIcz8H38sSuM956Vd+47Qvn0H6NBxXwZidi6YrCsefvSVFcVOdAJBPBhoEwPIqNsK14qVK+CrL2emXzOyfxctKn4Iswdr2nfYBzp17gKdOnWBfffrLOTHFjBjfOiFdo0mljYgw5nCNJixHMrEEsgUqpIDM04JlnlAkMymlQEz5gYZOoQ0kNF8zHRxck6qZP1LGpJeFcC5m5rN2gtkAuo/NpTBBDLcNqOSxxPIcMcRcXyq13XVOq3r4b6TJn0GEz/7DCZN/BQmpl9//pn/QF7vl44yEKY9+9sRGjXOXQXDCe0FjgcDyuAAGS5LoXaVgEzBW6puNOy69uuvK7Og5kvv71czYVHB19a8X3/ar1MZpOnUuSt7v8MOOwT7EQ5MVckAMkjZjTuUBjOaDjzUjcVQRigKO0IOlQMzTrGXAzB65YGZzTzPmIlVsSAPYGzoSFEMRE4VcIQ9CY5KqevGVKR7JE+oExjin7vmsisAZNDqjlghqvc7KRQ74pM+TqAQaScqv2YgE3L+Nm3ayCDMxHIIM/GzT4sAToeO+0CXrvtD+3YdoX2HjrDrrrsFeuLaaqBe4kAZ9cAxoYyavQgvggXmwRrvGUNTJk+EKVMmwedTJxflaNO2XTmo6QKduxwAtWvXNjBGRWrj2JIMIO5Aht+sGTDDZV71AkegpAGZjByYcYqdHIjRK3N3eyiFPHDRfMyxBzJkICYiR1KADPqd5ILIEghkgrMhAxnOBPqATDhBMQZkkOpwEJD5fOoUeP/98fDBhPfg88+nFuXr0mV/6Lr/AQzGdOl6AGy33XacAUVAfFtBITaUQZ9DFh+vOSDDlzA9f4KpUyYxSOPBGu/977//npemTdu94aCDD0u/Dk3XtwNV3EnHa82QjLzfR5J2MKNrYKJgPhX4QbukvFvTCKLlwIyTtVIfAJNHkEiZB18UihhMq5kjl2kQgxaHoCHpySfnbvTTiDVpjfBBAWTYJ+1ARgIAGgIy3O4jq6Ja5RduE6oghs8svwciILNs2VJ4/73xDMa8/944WLNmTTZtlSrbpCfF+0PXrgcwGOP9hUqVCg1GeuRKrnxtQwYyEYmEYTGXLREVkxiq7pX/+iYfwddffQmTp0yEqZMnwaRJn8KvK1dm91XZZhs4+OBDs6Bmt933UHVXIORxDpYckJFLYQOQKUporlYlHchk5MCMkzGp3qkzEEEiZf48UIjozpGmYy9VECOeXG5Aow/I4JIObCAjfgeZxyqPPQkgw2WXJynBxDc0YSp8t6BD7kE+9lg/0KyYRcyvLH326SdZEPP111/lpdt3v05w2GFHwKGHHg777LtfcLTWAJlMAuRrcyRIQWlUKFCGunuNLlq1CPxye6Dmow/fT78mwMTPPsnb16TpLllQc/Ahh1es2kKKwJqhGva1lkrawYzugYqEWfELJomSOU/xlwMzTtqk4WaFLoOJkLnzQaF4gxh0d1QTYzT/qv7kBjTU5RsbIINcr8VuqEnUvRIGMuIDUuRroSVAxtO6detg1Mg34e23RzMYk/vA3nr16sNhhx+Rfh3JgEyNGjX84yh6Exgx31YcrgG8ZAIP8OFcpOVPa3HFoupusYCxau5NGzfChx9OyIKaH3/4Pm+/B2eOOrp7+tUD6tSpK+3ZmiEb+TgAWZT9okgK4oKQv4Y4KKNDDsw4oUv/hN9V4TAl86JGBBZKFMSIpVI3oDyYV9ssr1ToRzSPeODEZ8COYFt8vCbZXiViDTwnWHWTM4F2IBNwnKrXf9NAZsWKZTBq1EgYPfIt+OCD9/P27X/AgQzCeDCmTZu24XEUvYlMGb4VbdLJXz+5XDogU2zXMJAJyrBwwU8M0Hz44fvw4Qfv5YHGffbtxACN9+J9ELU1QzfJQIzFT+Q4ss1L7paVkFkLoEwy5y7RcmDGSVrEfR2GgZKWfkCmQ8gDEUPHTh+3JhAjaYg/udyswAGZgnaCWCCpwA/RcXDvFYg3chqNDQuxJr7KE17/Sol1bZGeVGRSKQTy88KFMGrUm+nXWzB50sTs9mrVqkGPnsfCMcf0YDCG56sfqhDRBiDDnQwTypDA7pTfH3TZDmSC5MGZd98Zk36NhhUrlme3t9yzVRbStGmzd6Ah40O5uAEZogCizZE0LlmvnAn1nSUpT8YrEZ4cmHEKFP3E3lU9DCW3+FWnBlKmSaQPgGgCMmQghjMH9bgm0j6SJ/QJSirfHtWA01ogA8JEQL2fS4XvFnTIPajHbgOGgczcuXNg9Ki3GIyZOWN6drv3lQ4PxvTs2QsOPuQwbnvoQIbbTlQyAiDDkdA2KKNuL9ADDsWisCCQ4YvPpzBA44Ga+fN/yG5vvHMTOKZ7Tzj+hD7Qtm07uTioRD4uQBZRALEGMxids6SSO5cRkwMzToQAxlUtStGDM1MqDtiBGDVP+uJR9Sc3YEE/vYFzJxxP2M94KUJGuNwoZINYAnF7Eh6w6ihnAtXrsHi36p8DH8jIzbJEcv3660p49ZWX069hMHNmBYzZOT357NnzWAZkOnfpKhNGyIbwHXRAJpMA+ZqNCWRC7KFc0wmhDLOpaVCkeyg8e9Z35ZBmNHz99ZfZ7c2aNYfjTjgJjj+xDzRp0lTNCYbIxwfIorpxIZvCNJgxCGWkvFhTkXDlwEwJCb/PclVHh5JPkZEnGsqZLXCLPQEmi0PVr10gJtg+HulAQjv+n0oOyIjP9FSBjP6JbnjljCOQGTHiFQZk3hs/LrutWfMW5TCmF7Rr10EsBhBpA7R1NTg5X+M3BmRCbMrVMf+KStk184EZ9NsGFK4CDS76+WcY8/ZIeOO14fD1VzOze7xn0niraDxIU726/4OvyUQ+TkAWUQC2ghm1ZkF/tsy3K7vkwEyChXVH0Emvkn+RciBG3BDyXVZkQ7EDMpHucQkHbvXMmXJR3fGjBIMo80VxwqU+4U2h2FEFMsqnPNIO57VGMBDv12jKVse8DOlxJ9tWq1ZtOOnkvtDn5FOg3d7txQxm4ojcwJeAFMhw2sPgCoK1NNKu8rVdnJ3KeyQe02JBM1nPhWa/nzcX3nh9OLzx2quwcOGC7PbDj+jGIE2v407EDsQvLKrk+CIOQBrMGI8rKBFtYMmf68jJgZkESL4vcqfeBqne8bRfyQExaO6RB5C6gQz6PUfd45XguQOK57h8VanYOo9tCShjYJLL7ZozgXYgg90mDACZb7/5Gl59tQzGLF26NLu9d5+ToM9Jp8Dhhx/Jb6wwjsgNfAlsADLcySigDGo9C6YwFNdyMUCN3mtRuAo1FGbWeyZNGaQZDmvXrmHbtt56a+idbmennnY6dOi4L1ZQ0sdnfMhqHIDoHegImVW9EEpILb7kyoGZGEp8/OFOsU1KPiUmADGoRgy6RQIyukGMvF+5gQgh1wiwj+QxhR17wVQLL8yIDWIJMNl/6NWDw54qQKnYbWiCm4BnyAx7+UV47tmhMHXq5Oy2gw8+FE46+RToc1Jf2GqrrcR8F4cRsoEvgWqd1QpkOBIKQxmSOWLxBdABGTzPvObfGz+WQZqRb76W3bZnq73g1NPOgFP/7wzYZpttMMOiyoYvYwBEL5ARNu+bkC44KcvWVCJ6OTBjseTHyu6U2iDVgXR8RARiDJaDbSBGLrW6IfQhrS4gE+kel3DgV9XyaRZBG0gFfohMzb8XbQAvXsCqTa4UnyFTp1b17PsVv67ltJOvOXNmMxjz/HND4c8//2Tb9mrdhsGYk086BerWr8dnKEL8k3LdQCaTINpQw/o7Zt8vXrpKyaHwNS0kGSaUKSkgo+4y1ICs2b+2bIHhr74ML734Akyf9nl2e+8+fRmg2Xe/zhjhYSWnly1gxhYgE5iYJsDSmROpyYEZiyQ+znCnziaV3kUnOUAG3SUSkNENYuT9GgYxAYaD7ePMDvHiz7eEDWTEuw49QCby/HDYU7srWJxA1Z4wkMEeswcU3Zo1q2H16tXs75ryv6vXrIGLLjivyMTCRUu5T8Ebr78G//vf8zB50sTsNm9VzP/9/QzYZ599BSfTwRIFMttvv33e1t//+CPvc3Z/ub0/CvZHxhG0JyK+3XdtWLTNF85gA5mIpMoYgwxS53hKLJDxN4RZlrO++xZeevF5eCndVjdu3Mi2NW/RsnwVzenp9rCDaHiqyfTJFiDDn1FJan0YXXBSlq2rTPRyYMagHIiJt8x34rpEBGDQDRlwiTcrVEiNZyC2QCZycovk0QEZQXuiXvQDGWMrZATseCtQyoDKGlidC1bY3zUV7zP7y9OsLs/jfRZRIdQoijFdUTdv3sxeGVWqVAkqV67MXjZo/oIl7G+mPHdr2iBv/48/Lcn7vNsu+fup5AeA8sAMBZAJSY4FZNRscXlCu+GBljsGQMZPI4YPY4Dm85yvGnoPCj7n3AugfYeOUeFFypohrnEAgk3dhbxJJKYJsHTmSjhyYEaD5PsSd2psUOleVIiAjMFy0QdkNIMYSUPo9xZ1AZlI97iVjOphvlirCfyt89gVBDHcdnmziQ9c1ZteQdnzigjIrFr1G3z99dfp11fwTfq1aPGiIqiyYcMG0WiLVKNmTahZoybUqFGj4n3NGvDKsJeL0i5fudbHAsCECe/BY48Ohgnvj89u693nZDjzzH7Qdf8Dyg5PsbFgwUSsuosBEXOTNcr5GlNGWTDDdf20BMgEv0VTKvADVw41f3RuAg3qHhrNnTO7fBXNC/DHH7+zbd7PbnuApnvPY+MLZDIiCkgYyPBnVJJa/aULzhzwjKccmCGQ+DjCnQKbVHogRnJyhmOeRETjJjSPpkCMfDbDICbAcOSkicy+muHYrYzhtsubTa6AMeZm3Ctk0Op2Rcp5c+dmAQyDMd98BYt+/jnSwnbbbQc1GEjxgEoN9r5mzZrl28o+V2yrkd1WM2d/WHh1alc8Y8YPynjPqPCAzHfffcs+7777HnDGmf3gzLP6QbVq1crN4DQaVahIDmQEG69f6kZ+z5jBhjIkc8NiEmMHkBFKKJ+TeGBhcgjpPSj46acehxnTp7HPDRo2YoDGe/E+rNuaIbAxIBOR0gYwg925y7hCz5QsOTCjIKw7d05mFEfggCvBgS2OeVLpi90QiJE0iAZicHaLKxX6Ec8j+mSjYOBdIkAmEphpBzICX1hCqNtr166Fb77+ksGXMghTBmI2bPizKO2OO+4Ebdq0gdZt2qb/toVGjRsXQZVtt922KABlKJlj5+qrLofnnn0a7rv/ITjzrHPY9j9+/x0ee2wwPProI7B6VRk8OPTQw+HCi/rDoYcdkWPGDiATuBe7rnE2Yvz6pg4UUaBMMZtBV0rIuAYgo+4q1JA1Q8lU2c9ue4BmzOi3spvP6nc+AzRNmjQNymaHjIMP3QMjQfMRfaS2OOhDiLUcmJGQ+ODVFbFJOQAjORnDMU8q/RAJeVAuKvWxuVpOXTeCIv3YCmLyDfNPNmWsi9ilncxGZxWbzamDmIpEWJOvIDs//vgDfJPzVSTv708/zfdN26xZcwZfWrNXG/a+ceOdheJSBTJ+XKFuzoqZyVOms9Uxzz77dHbbaaedzoCM95O7Fd6QgUzgBr4EdEBG7DiNAZmIpCh9AjGUEbuuaQQy6i59DVg3tMwJaMkvixmgefqp/8Bff21h27od1Z0Bms5d9i9MbodMgw9tAyQJ8xqgjJIV6yqTOTkwEyLFGzc8CZwIFGfQgCNiEINuyIBLorarC1Dg+5cbUFAfr+okNCo7GZAhahv8ExeFa4BE7FiTWu6kkRNQdYeFm72HtlasfqmAMOvXry/KW716dWjdum12JUzZapg2sO222/HHVRBIcZhyF4fCXLlQJlc77LADXHhhf7jwokug5o4VX71xQEbWHl8CCZQYahetTyC7Zha4IBxXmwMy/oasGWpGBPLs0CcYoFm48Cf2ue3e7aH/pVcyUGOVjAMQ7gEMqhyYSZYcmMlRYEE4AGOlHIDJiBjEGC4nVPfIbTlxIAZnt7gixzNIHtEnFz4DbcTCwZq8RqbAnQuCbEFj3Azhdhkykf3tt1/Zzz/nPpT3++/n+abfbbfdysBL64pVMLvssivaJJAKyGTkB2buvf8hOKv8K02FhlShIz9c9E+IdQnXXnc5EglDxZDk2EBGzSanV+KxtnDuEgcyhRr77hi2imbypM/Y55YtWzFA0/PYEwiCE5BtQIY/o5KEzNsMZqxpEHaopMEMxiDQiV5xBwv4IgYx6IYMuidqw6bLGB3IGAYxxZttBTH5hsUnmSLWwzaIJZC/6SCaTazAVSFKxS6BAwlI6n0laczoUTB6zCiY+NmnRfu9n5Buk7P6JfNMmKo7VOUNVSi+yDKOMsMZiB+YyX0AsHuGjKI9zoSUP9u+adMm9rPqa9euhrXpv+vWr4fN6W2b8l4b2V+2fXP6tbFsuyfvJ9C3Zj+FvnXZ+60rZ38aPfdz1WrVoHq16lCtejWo5v1Nv/KejxQWL+F42wGZAElWua++nAGDBz3AQI2nXXfdDfpfehX0PukU3Ph4AzLuJpKmowqvPhsGMnghGJFM6JV40pQSmJGvmyVTREblAEyhNAEYMoMG3NoOYiQNxh7EBBgu9oM0UCA+ANu/qhSZCg3IyA1I1SezOM+OmT59WhbGfPftN9ntO+1UC7p06ZpdAeNBmD32aJZvCHssHsg/BEGBRCB1fX6VKWlfWYrOxne82JN80Zq84c8NsGzZ0rLX0qUV79Ov1atXw9q1axh8WZP5m379+ecfolGjaZtttimDNNWrl0ObMmBTr359qFu3Xt6rTvnfzC99lSmOQMbfoDVDVKS2M2f2dwzQjHzrdfa5YcNGbAXNaX8/Syk86YC0m5cbX6lKyHxoYsNgxpoGES4dYeYCm0SDGfVBaWKLxgo5EBMkTUDGcPmhuHcgRsyCbiDDHQaSZ5y5ZLHBwk+44YZs4MrFnwKtHsoVNEbXq7qy4IMJ7zMQ4wGZxYsXZbfvttvu0L1HT/bq2vWAYENYQAYbUirU/dxfZTrjrH7yhorDCdnAl8AWIMPtntuOf8KFCxfAT/N/ZA+Q9l6/pOuoB2CWZuBL+S9kiahKlSrs172qV6/Bfk69atWqUDm9rUrhq3KVvO3ee09bNm+GzZu3pF/pv1s2l3+ueG3ZUvZ3/bp1sDb9WrduLaxbu5b93bBhg3C822+/A9StW5dBmoaNGkPTprtAE/ZqCk2blL3feuutI+2YAzPJBjKFmp+ur0MG3Q/DX32Zfa5VqzYDNGef8w85h6oBaTOPTeeFvClkcEDGT7aElQgw4wCMnXLgJUqlAWAyQg0DGciYBjGK2YJz6gYxAYbjA2LyDWODmEBzivUZe/xlI5Ap281hqSDJxo0bYUw5iBk9eiT8/vvv2X3tO3SEHh6M6d4TWu3VOtxQAoFMRnlg5sx+CpYIgQy3Pd7kyECGM6H3NaE5c2bBT/PnZ+HLghwQkx6Th+b3vhpUr179slf9+nnvM/Cleo0aUCPzN/3abrvtowMlupZ67S8Datam/3o/Jb9u7TpYtnQJLF++LO+1ovzvunXrIu16v2bGYE2Tpllw06JFy/RrT6gS8fWpIiUdyGREfIPol18WsxU0L/73WfbZA4DXXHcznHn2eYKWkAIicyM33lIV3pRWLVCl3NY1CvtCiiWYwatzsTt0q+VATJQ0gRgyg4bchxqS86ILSCAn589pGMhEToZU3RAfgPuqUsAezZPYIkDGadOb3I0eXQZjxo17N2/3IYcexkBM9x69oFGjRsFBEY29g+uWIExGY5spuIaBmaFw730PwZlnyYEZrLpNDmQ0PkPm++/nwqxZ38Gs776F2d7fWd/CvHlzQ814q0J22WU39gBp7+WtGPHAS/1y+FKz5o5icUUFmgrcg6oUl4OyBH/88Xu6DS9n7dhbMbRgwU+wkL0WwIKFZe+3bNkSaMV75knzlnsySNMi+7clVK5cxc8doiSuVzqkbVxSpl9/XckAzTNP/4d9rt+gIVx7/QA4sffJaoaNgw9TAysB8wTjZTQrljQMS8IIlNVgBh/6WXuosVTcGye9NIEYS8pTP1gS92hLmaMDGcMgJngzsmf0u7oFdzhpwuXYKJRAA5AJnryJ2xJPJPOTwXPnzClfFTMKpk6dnN3uPeOiDMSUwRjvZ6DDnfv7xurvIss6yhzSHZBckHLN1fJgpigcyfotbkfEes4eArjoPdtl+vQv4NtvvmbwJQNhMg/PzZX3kFwPFmTAiwdhmu66a/bzVlttFRqA2ukPpjBUfQQ/sBOLYtGin8tgzcIFWXAzZ85sthppY8DXp3bffY8ssOnYcT9o174D1K5dh9tnVNyWDMUqpBnIFGr9+vVw790D4blnnmSfmzVvCdddPwCO6Ha02cCk3RDRek6pDx3Qrh6aM+PIghC4ZAWYwbu7ppzBKUdI478SkgMxtAb5PeoGEUTZgnOavXGDPtmM8oN/PMWTU3zrYRuEE0jalfGWohvQc5SDiOupU6YwGON9VcmblGXkPZsi87yYI488SiworDqH3UaQ4vJ7qK8MmClVIJNKpRiEmT7tC5iRfnkPkP7hB/+fUt9jj+awZ6tW0HLPVrDnnnuxv82aNZcOAGVaZSWQEUoYmdN7Rs+c2bMYpGGv2bPZ582bi0HZzjs3gb3bdYB23qt9h/T7juwrODKeLRmaGRinhGvpkiVwz123wWsjhrHPHffZj62g6dxlf7OBCbsxA2bwmGZpghlr2iWnjIAZOqgXt+K3Sw7EiMqBGFqD4h71x4iaLdqCKSDDPZjHiSD5X1XiSxi4VyH+0OmxISAjgmPGjxtb/jWlkbBs2bLs9ubNW2RhzH77deYPCnuiGlmUYh4wv7IU5F4EzJABGW57vMlx6vS8eXNg+rRpMCMDY2ZMK8rjfb2oQ4eOsFfrNtByz71gzz3LYEyVKlWK0go559vFb9T/LapMApko/fj99+WgZhZMmzYVZs6YDitXrihK16xZi3JI0wE6d94/8vlTlgzRrAMyhZo3dzbcfddtMH7sO+zzwYcczgCN125MBsbvRhPVDPdKnQg/t6EGYk27FBQpmKEDMGgGSlqu+HmlCcCQGZRTSYIYRcPoR2AJiAnejDZrxLRWZFh8siBiPWwDd06+vWj1Um2AidWUeYCM9zDU10YMzz6813uYaEb77depDMZ07wXNW7Tgc5oJEPvmZwyBTEY8YIa/Demp21RAxgMxn336SfnrY1ixYnleukqVKkGHDvuwV/uOZX+9r8hU2MDtPNCwBdk1tsCFhUAmLOPPPy+EL2dOh5np15czvL/T2FdwclWzZk3o3OUA6NJlf7bKo03bvdXioBIVWEfWtC+mshU0kyd9xj5373Es/Pu2u9jPpZsILNqdxUCGK7EhIKPu2lZXpEIDMxpgHYaBklTcKKc9IgYylpVvSYIYY3eY4gFksCaZQdnpmkD5FInIgTiQ4QtEHvSIZAuGEmp2+RPxABnvp6wHPzIIHnt0cN72I47sBj2694RjevSCevXq8USUHxz2GDvSnm4gIw4jw8AMVl2nBzKZBGJt7Yfv58Fnn5VBGA/GeD9JnatmzVuw1TAMxHiv9h0D7NkNZNRscnolngjoGst6cK4M0kyHyZM/g+++/SZvf7Vq1Rig8WBN5677s69BGVVMgEyhPvzgPQZovGczeep/6VVw1dU3aPMvDGT4MypJ2DzBWFs+F6YBK12RSxjM6AEw6IZKSg7EiIoYwJAblFMcQIx8LhqjZENKS0BM8GbcCPCBSb5B91WlkK0CtrFvfvNMXqdN+wIGP/IwvP7aCPbZexjqiSf2YStjevToBVW22YY3qvwAsYAMMojJ5kKqsykJQ35ghgzIoF97xSjvihUr4L3xY+GjjyYwELNkyS95+z0Qs//+B8L+B/wt/ToQ6tSuGxGXLUCmIDc2gIzyqGFygD9h5dOa1ath0qRP2ctb5fH1V1/m7d9+++3hwL8dAoccdjgccugR7Ke8tSimQKZQY0a/Bf8ccD37uXTvJ9+91TPHn3ASuV9hMKOpAPH6Xc3tDc+1ra60KBDMYA/INBgpOcWJZtolTSDGsvKNC4jByY1jLHEgJsABNYgRnDsJGxYHJiLWwzZw5+Tba3jSKhwG5zWAx573VaUhgwfBZ599yj43atQY+ve/FC68qL94XJQT1Mgi5aZUIqk5zMkbzAUzZxR+lQkLyHDb403Of7wzpk+D8e+NhffGjS16RszuezTLAzH16tbnjAu/U0HpMa0EMkIJ1XMSDXYyZtetW8cAzeRyUOM9qyZX3q9ueYDm0EMPh67peoUu7eMZYpUHNnjQ/XD/fXey9x067Av/uu0u2Hvv9lTuxFMQF6CQeUIQavvc0tp6jKRKW3hXzJCURNKLF1dYd/hKR5oADJlBNcUFxNh4aUk6kFGeVCr7UTVP60AcyEh2o1QDbMnlF1hzLJFJ69Cnn4Ihgx+GH374gX3u2HEf6N//MjjhxN7icbHEgqCA226UHd1ABg9KZsDMPd6KmTOjfpVJD3RUATJ//PE7jB9fBmI8ILNyRcUDXmvXqQOHH9ENDjroUAZiGjRoKBSnXStkCiwE80g0lRaQyTcaZP6PP/6ATz7+ED6YMB4+eH88+ynvjLbddtsySHPYEexvg4YNA6wIhaIjmz7lBLhmzWq2euaN119ln3v3OYWtoKlatRqmG7kUtgAHorG4cm5byifmKgYzNs6SSlS2Ng57RTQgF3OnXeaOz9DFH9EY+ZDREhATvBk53t4JDQAAIABJREFUAjJeUtBN0YQdskE4QXgqhfgjr3ICtrEnPryTVm/w7T0/xlsh8/vvv7Nt3bv3ZCtkuu5/gETxBB8/Vj9abEcSfiERIryHAwNciwBm6IFMJoF/Cm8yPPKtN2DcuHfYV5Ry1b5DRwZjvFfQM2L4L+k4B4QKZHI+UvYpKSEHBsYHRIMKUbPerz4xSDPhPfbsoly1bt2WPR/Le+Ctt1pLMBQhWTJEDVZIgNOnfw7/GnA9fPnlDPb52usGwIUXX0blLjyFpoLkchOayOCY3EEZNFXasoXqV5lKqRjV5ACMrDSBGEvLWf9xSk5EpHLRGiYDMji8Rl1Ek8ogM+Qgxn8zshcR++EJsYFMcDa5E4B9Z47X3pzZs2Hw4EHwwvPPZrf163cuXNz/Mth9993FYstNLcelQk0G25MrbKyqK/MMGV87Oe/5wAxnf6sYXmR553zMwJiRI9+AaV98nt2+/Q47wBHlIMZ71a5dR8RhQDK7gQyO7Qiv6jNHutxoB49722LDhg0M0kx4fzz7u+SXimcaeT+p7gGaY7r3Yl9/CglFSJYOWSskEOCI4S+zFTTr16+DevXqw70PDGar3WjcYlF9OakPwZMJZqyvz8hCADOlVmTqMt/xxFUBkzVaN8Zl7jgNXuSRDScWxHAP/nEjoHq4btFEn/q2gaUgJjq7WSAjOkn96MMPGJAZN/Zd9tl7wKO3Oubi9GuH9CRavJiCj1+1f40sczR7Yoaw2oSfHQZmnisEM3rqvGgdX7xoEbw18nUGZHJhjPfA1V7HHg9HdDuaPTNGwXHBbrxGhgplNM0hxeqdgTED6oGLgWYZffPNV/D26JHsgbfeL4Jl1KxZi+xKmlatWkvZtmzoWiyFAO+5+zZ4bMjD7P2xx/WG+x4YDFWqVEFyazmQwU2En5t6nFZiEgAzpVpE8sK+c1d6IgYxlpavAzHqBslADGcy8qoVOY5AjgBtkhnugArIFJlDagu2AxnhMDjKRcTmK8NeZkDmqy9nss8tWrRkQOb0M86Si8/n+LH7WdW2hPcVI9xGF9a28sHM2Xx2uHeIJi8+bu+n09nKmPTriy+mZrdnYEyvXsdDh332VXVcvpum8aJBGfJrcYF9LJqLnZtgwKF7SDh71ncM0Lw9ZiT7+lNGu+62O3Tvfiz0OekU/q87gbVD2gopBuj9lP01V/Znv6jm6c67H4RTTj1dwR1ZY+WSkBtCMKN0uARlZX09JlYImCn1ohGXbbQxPvIvAJsm+pRyIEbdsAMx0Xuk3BKfZG0ghtuPGSCDBWKEw+Cu/vwBbNmyBYY8MggGDxkEy5ctY9sOOugQBmSO7HaUWHyFgRIAGbS2hDRhJgMygRv4wAw9kMkkqEgxYvgwGPbyi/Dxxx9mtzEY0+t4BmQ67rOv0brOYx+tb3JABsNdqEGTQ8R58+bA26NGwpgxI+G7b7/Obu/QYR/2ANwT+/RlqwvDZOkQFz2wt94cAVdf2R82bdoE++7bmX29adddd5Nwyz2wIhFeEzMAZFAMkJqLrSqlB1GuLCTlQIysCiZltG6sk36ggeMxGSCG04JlICZ4M00k5ECGuACxJxf6QExBCkNARmZy6n3FxHug72OPDc5uO7nvKdD/4sug7d57i8UXcfwYd/iwgAxeXcZpGzwgplAVYObBomfMyNgLU1S5T5k0CYYNe5EBmS1bNrNt3k+ns5Ux6dc+++wnFkZCgIyaTQHPtgIZdZeBxowPFQsCmP/jDwzQDH/1pbyvO3nPovEgzRFHHhWW3R4RB3bDdVfAyy+9wN73v/QquOrqGzjdUnQs/MJvYgbADEFZWVuPNcuBmRDZRhPjp1TIJzI31sg8eDIwcCI0TNr14CaTF/cNHJpbFfjHV3ANICpA8cmjJIjhTiCaVe3OHeadNyHX6cTecz68ryu9/voItmnrrbdmz47xVsjUqVtPxFqFUZuBDHJb0fmVpYCUcO3VVxSBGSwYGVne6T+//LIYXimHMT/++EM2Re8+faHvKafB3/52sLh7KiBDDu3964M9UMbQuAIZgKKalBVHANOnfwGvDX+ZrR7L/IJdzR13zK6i8X7lyTppLNjPP58M11x5Ccyf/wM0bNgY7n3gEdj/gIPEAtNcETD7a1L/ZAZIzcVeDszkyHyHEXc5EGPGsKUARtEB6VGRD645xT1OiAuIyXdgD4gRS4g1KY3OJncibJicjhk9igGZiRM/ZZsaNW7MYMyFF/aXKCaCySiXLYlIkUa1/ABFxCqPveIEuWDmjKBfZSIAMq+NeJWtjvnowwnZvZ06d4G+fU+Dvqf8H4N8wu6p6jyHfZQ+ywSQ4XZkYKyBWgAFbc+UJAPwnkXj/UrR+HHvZrft2WovOP2Mc+C0v5+JFJyCDBbs4EEPwP333cHen9jnFPZw4GKZBTOmgYxybgdktKikwYwtlTN+Km0Ak5E5oIHj2dbzJp9dfcRsCsiQg5gCs/jWC64J1gAZ20BMJgHxnS7OchGOIp1h6NNPMiCTWdngPefDAzInnNDbKiATbkPAA3Kbofi5a/8N3Dn9wQxR3V+65Bd4ZuhT8OwzT8Lq1avZtoYNG7GVMSf3PQ122213IXuiAdjzlSUfC/5vSSQOBjVNBgkHJsaHlEhjo9WrVjFA89rwYexXnjxttdVWcPoZ/eDv6Vez5i3UHKkGaEiLf1nMHg782acfQdWq1eCxJ56FA/92SHBgmuM1DWYwb3RgyHh7tFQlAWYcgJGVAzC5Mnf8hug4sQPUAa2kcXtATPQeFb/kIMZ/M7IXnh18CaiaHNd5lbCNO6mRmKCkM3z//Ty4/LL+8MknH7NN3Xv0ZF9Z6tr1AFFrgWBKufqkLAYySAax4aS31wMzz2fAzBkBK2akvZTt+eTjDxmQGTN6ZHbPib1PYqtjDjr4UMGoxRNaDWRyPpYskFF3FWnU2FATybGfmVnffQsvPP80vPjf57LbuqSvyR6g6dHzOBzHMoFpVKF776tf3sOBPZ3297Ng4B33hmfQJPVxh8G5AGKZxWTKZ0yJAjMYg7rSlgMxuXIghsaBfHaOnLYAmcjBPFEE5IP7VL592sMI2cCdk28vep3mJnGc9tQSqj5H45+33AyDBj3I3vc75zwGZApXNnAb9AkFs+9WRT7oD/MVDyHEWtgGvgR+W1XATBiQ8VYHPfP0k/DMM0/BvLlz2Nb69RvA2f3OhbPOPg9q1qwpYE8uYVyADI5tDs82Ahl1d6EGkwhkCvXXX3/Bf58fCi+kX5m2VqtWbfj7GWczSFNX6nlfCIERKsz9+vXr4MLzz4JPPv4Aateuw1bPeL/gZEJ4Tc7Q3EBjPXaKOZgxXcniKwdgchVXAINrhc4BGYjB4zTq4p6HI0ekCcQUfaIGMsiTB3nQI+k1xl9VytWbb7wOl13WH1avXgV77NEMHnx4MBx44N/EDapxqkCz0bYEPCG1JRM/dy2SwM/etdeUg5l7Q54xw+0lBXPnzIahTz8Bzz7zdHbrgX87GM4++1zo3qOXRNTiCSmeISPgPtoCdpvg8crlxAEZxBCMmJk08VMGaUaPejO77ehjesI/LroU2rfvaC4wZPGMs17877Nw843XsPfnnHsB3DTgNvK4iqPAykA8rkDPTGbKcvEcaaXgPTaDGczBW2lK9d6hkhtrZR5kGKLemhyQgRiBZKbKqHgzTSTUPzddNLGnBjHCfhSn4+hzNrnJOM0kRu6rSrlauGABXHZ5f5jw/nvs879vHQiXXHqFgD1CNMlV1PxebPu563xrYRvEEoTZEwEzYV6mTJkEQx55CMa++zb7XKlSJTi733kMyAQ99wK7DdgHZMIJjBYgw+1I49iE5MAlgTSue1vMwK+/roT/Pv8MgzTLly9j2zp32R/Ov6A/HHZ4N3OBKUq0d1m5cgVbPfP51MnQeOcm8Njjz0Cbtu2owouIRiahASCDYgDVjAUivHjncJqtEM0qK1Xwks4obCDu8i8AsmKJSTmTV4tIB2oRmI9fzgx6To5k2qpkgYNgv8iRlJtLpTAnkj4OMteOjB+iAs2a5T5xfAkD90pWkOjzmzkxcnYVAihIlvtPze7Agf+GvfduxaDMccefAD/+tEgAyvhXUOWqVGBAogYUJcFrSwVtBsUacJ/7oASR3ZJsXD57xr47Bo7reRR7eVCmeYuWcOfd98PiJb/B7Xfc4wtlqNqAsDi7H2XDBZcK6r6qqB5x5VDzx52Q6MDJ+39iYcfvfZXp0suvhinTvoXHn3iWrZaZPOkzOOes0+DIw/aHV195EdEbvWTLp3atOvDK8FFw84DbYNHPC+HYnkfA/ffegR1eVsLXNtuEFJeth8evgsEC5cU7x66RFTPKDuN9phFUPEXQ4MZ6kYcb6QAnAvPHQZWdMyduMjlxzO2EMkj6pzvGgGsI4YA5fINwgvBUZHVc7cQITV44EkiFEZBpzJhR7GtLK5YvhyZNm8JDDw+GQw89nM9YynerurhAjKBJpODIvrKkWElk2kTYipmwsh/28oswZPDD7KtLnjp16gIX978Muh11jGDU8gndM2QC3GEXNEZu4k7b2JAV+xpAKA/MPPH4YHj/vbHsswdvvBU03stb4WYsMA5FhxHdES1atBAu/MfZ8PVXM2Gv1m3hhf8Nh512qoUUYaBbwQTCCRFyYWQmM6VH9EvRuUS+YqYQMAlfxJUMxF3+BUBWHDErZ/JwIx2oRUBevRUdqMfHmRM3mZoKjAeXAVE05ebojrHgGpICkpUxgaUT6YcvkMgmKang7HInRriWcCVMiR9mSBBLlvwCffv2hv87rS+DMjcN+CfM/PK7CCgTXB4o1SiyuAVKIGMrU9dVQ0uVPdQWq67JX1d5tko5iMiWgv+kJ3Z7t24Bl196EYMyHoh5c+Q77BUEZXDbQFkroFghgyafvkSHS/5rrFpBSF2DSCRdE1Rconb/uqqkJ++rTE8/+yKMe/8zOOnk09jXne6649+we9O6cMfAf7LniRkJLETRYQQM3HzUuHETeGvUeLj6mhvh22++gn3at4RRI9/QFKd+S8JukcxYUG04JDc4CJoXqLxypQxmRJwJGykZ+RcAWbHErLzJw+V2oBYBeXEjOZDPLhhARDIt1TPASbFPomgK+gX8Y/W/plAVapFZ7mILTxBoRvG0BGdXOzHcyTnjx/yqUu7uu+++A1rt2QzGvvsOdO/eE+bMnQ9XXXVttOGA9qJcpfzN+0TOYQq5TWFN/7DbSGR3pRpfzp7777sLmjSqA/+65Sb2zArvp64/+mQyPPf8S2y1DGIYIfHRTMPV4wxvG1TKVh0uRwT1Fz0Dv2FjQMZOc0Lyvl54z/2D4IuZs+EfF17CVss8+Z8h0L5NM7jtXzfD2jVrDUUmIvnGdlH/K2DUmPfZaplL+58HN1wn8Aw1WRGfcCXzCHGZrM98khvXKQ4zRSJjL24wUxiYdIAoRuIq/1JEK1s+d9ZKW7jCA2G5SOw5Dr7s4mY4c3I60lJNA5wUbyaKRq5fkHaUO2i3c2VMeMLAvYrHEZw9c4Lk7HNn4ywf4akHZ1McN+5daLNXc7jrztuhQYOG8PKwEfDfF4dBnbp1/XMEVFjl6lRQDSLPC4/JTF1XVsE5wG6sim2Eom0Elf2gh++HnRvWhvvuuRM2b94M/7jgYvjy67nw0KBHoXnzlqHRczkV6EaExdnvyEvw/CApa1+ooNV9CiUmKQADQAZJWsY4gvK+ynT9jf+EHxYshxtv+jfUrLkjDH36cdi79W5w+223wO/r1xuLDaM/CJP3VaYvZsyGnr2Oh2Ev/xcOOqAjzJ//o7JdeRmqGbZURjLxjesK26epdloEZtACs+UIjcr/4MmKJGZlTR4udx3Eqazaj0dvdnELghdBEgU4Kd5MFE2mP8i8cK0XOyp/aXt4r797kZxiqdDrfsEeQfvCh82ZUPgwOdvaypUr4fS/nwp9TzoRFi9eDNdedyN8O2sedDvqaP8cAXaVq1WB+cjzwmsSoa5nUQxSGyo6EsU2QtE2gvY89ugg2K1pQ7jz9lthy5YtcNXV18HCRSvgX/++HeoWQTzBMLi7kcw0XLJxqrkPyenfqZD2ZyBSj4pyKPvlTkhUAMaADPVJtUTn/eNimPHVPBjwz4FQvXp1eOrJR6F1q13gzjv+BX/++Ye2OIKLm+ZEDBr8JNx594Pw888L4bCDO8H//vusUP5YV4/YBh4msXGdbedvK/HhT4EKDdh2hKQKOvj8wTV60cSszLWFKzj5UY3EnuMhyc5vgfMEa62u/mPmnM200WgHMZl35X5pvflt4M4plgqpDQTukbTPnZwzYe7aGCG7Am3twQfug+Z7NIXRo96CI488Cr7+di5cf8NN/jkj24+k/M37RM5vLw+gKCkyOBlrIRuQ7EnW3bBz8NSTj0GLdF259V8D2ITs0suuhJ8Xr4Srr7kBKleuzBdfVACRyWz7laUAQzkGqfu1vGsvV2r1iISsEBaAESRDdS2wTQUB9jvnAvjymx/hpgG3wg5Vq7KHBbdq0QTuvus22Lhxo64wNGSsUN9T/g4ffToNdt11dxhw0zVw0QVn47nlHifJSancEGRP/eYb16GNZ4hUaXPUrzLZGLUxBQ8lNbqzXtrCjnSEE4k9x0OaXdxCRHKT5RbsmygqTQPzjIdU/kciLyI7xBJSN93i7KmoBIL21DJg/5JM2O4PP5gAl1/WH376aT7Url2b/dpSj57H5ucIsIvCOrjs8XvKTk6RlG1RiIPU8A18CdTbIH/2hvVqZt97X23wHgjq6cKLLoFrr7sJtttuOyF7wgHk7abpCNH6R7VLiZp37lkgkj/SDLxmDQEZe8zQiTNAD8w8+MDd2VUzF/e/Aq6+thDqU4ZD1qh95YEZb9VM9eo14KVhb8JerdvIuSUmmtKHn7j6zTcAtyfecFWAmbhErEWGWFXMzoF9wMKBGBILuMnwFAlkCCMiBzEBkzXiQhafVIol1DnZzNtjGMTkJhSyrTDQWLNmDVxxWX94/fUR7PMVV14NA275d35OYiCDDkjx+AkdkFFsM1TQMihbLpTJ6NzzLmBfc/MmJsruhfsP3ANE7ye1QfgCP5qgjAMy1pjBl2Jgjz86CB584C62amabbbaBmwbcBmeceQ5hWHqBTK7eeXtUdtXM7XfeD6eedga/e01zFqncCGVnvn6L0XHz8Yqp0ubNEStmEi0HYHhkw4RbMSFBbv2O5M3QzEpN1wv0SR+Kb1xH2kFM5A7uBIr2Fb0rFhz2wAt7shNlb/AjD8MtA25k7w8+5FC2SmaXXXatyElVn7kmreLeMNtBmS3CCaxi5ZGHo7zZ8vc0rLdjUYpflq4q2iYcDnc/gn6AIu75LVgNZIQSquUm75MckCETUoBDBj8I991zO3vftOkuDNB0O6o7YjjmgEyu1q5dA6f2PZ79rLb3Vac77n6QLyMVXVfNHft6nmwgk1GJgBkHYERkH7DAici+46I2g0tYTIOY4M10IIb+mFP+n3QDGeS2qB/IqJGGpEw2P/v0E/a1pXnz5kKNGjXgwYcfgRNO6E03zqWCpQTtL4vIsOugYuXBbiuF2TZv3gTr16+HTRs3wcZNG9N/069Nm9KvjWzbUd0OKbLhB2aS0kaEHWiD8gX2bQMy6q44zGseZSC7s3bITxCYt2rm9tsGwPPPPc0+79epCwM07dp1QAjLDjCT0U03XAUvvfg87NmqNbz+1li2WshXtgIZdddYJnC821U90JUwMOMAjIjsBRUxATFxAzCCyU2DGLRJnkQMuoCMAzGy3jWBGMEMwhMLxEnmlVdcCs8+UzZI7t//Mrj1tttR7PIYQIOliO0PC8Tk2wvbIJZAts2sXr0KFi9aBIsXL4JF6ddvv/4Kq1b9ln6tYvvY3/LP3mv9+nVRgRbJAzPWtBFOP6UDZAyNj4gH0FrHGw7IoGnhgp9g4G0DYOy7Y9jnXseeADfdfCvUb9BQIix7Z9zez2nfcN0VZe+Hj4R99+tSnMiBGSJFDwwsqCJoiimYUZws6HFvjUxPsBESarCiz6E2EEM9WVUVdx+cHBCT/aQbxETuEEtIPXeIHLipzfvREtpw1//PP/+EbkceAl9/9RXsf8CB8NBDj0CzZs2l7fEEhn0LBPWrSsgGdQMZ78G7c+fMgblzZ8OSJb8wCOMBmAyMEQUtVapUgR12qMr+VtmmCmxTZZvy92V/v5w5oyjP4pCvMvEfUGEy822Fy4K1QIY7Ea4FB2R0mcOTgcCmTpkEt992C8ycOY19Pvf8ixigEQtLc+PjVCaMWd99AyccexRs3LgBbhxwK5xz7oX5CbgtqcWhLyOJGXFP5H2AXbIczGAP/1DdWyttYTsAo8kMDWExXZ7Cd00QY9AOYvw303klGn2rAx/R7GoDNapJiC2TzE8/+Qh69TyGvX/gwUFw1ln9lOxFBYTWZgnaYXaaR1UXFfu7wq0LFy4oAzBzZsPcuXNg3twyGLNy5cpQ6zVr7giNGjeGRo3KXrVq1YKaO+4EO+64I9vn/c19X7VqtciIG9aveM4MN5SJWVuJtKCtbyjwo3EcJWQhSUAm37UtZvBlQWCj3nodBg68BZYu+QW23XZbuOOuB+DE3n3ZPqp+nkpBYfTt0ws+nzoJevY6AR4e/AT9nSpZK7Gr76UNZDKyCMwIs1Sdrq2UfQBGOgOhFf0OtQ2fqCepqgpwWLw5gSBGU2EXuUEe5OsHMQUpaOZ00gmxL4Xyd8BS8PDDD8C//3UL+ynjseMmQJs2bdXtBhhAbbPq7CTPWKrcJp7FwjfcOQK3zp49C2bOmA4zZkyDmdOnwzfffMVWOvmpVu3a0Lx5i/SrJTRo0BAaZyAM+7sz7FC1angcDl6KOdA8JzQBZAy4CzRuyzjEsClcWRjYU08+ylbQePK+9uMBmmbp61q+4gVkcnXHwFvg6Scfg6ZNd4WRY96HatWqS1rCiYfCtd7TkfJ9G5EykTIAZhyAEZW9HVlMAQySY833r2IHYrjvjhCIHoyk/D/pBjJEbVU/kFEboOFPLhXv6qIPLPIn3WecfiqMGjUSDjjwbzBy5Nt41Y5rbi/hDRmQphANYsPNH378AWbOmAYzpk/Pwpg//vijKF2TJk2heYsyAFMGYlqkJy4toXbt2gLecvYYbzOZZDQXCUyY52dQx6VbDCIaGF8lCcoQOLNuCmFdQPnasGED3Hj9lfDaiGHsc79zL4CbbxkIGhq5kjiHBzBq5Otw2SXns/dvjBwHbdu257WAEwd6RpTs8h5LHMhkRAhm+MwS9wOxkumJNEJCA9b0ObQVxNgGtoo3E0eY0lkGBRN2+kMT3MGdAMmPbBS2gZj8hNj2pUFMwceff14I3Y48jD175LLLroRb/nVrcVZ1N9EJOe1iNw8bgcycObPhs08/hk8++Zj9KtbKlSuKcrRsuSe0a98R2rfvkP7bAVq3bstWOgnFF5TCkrbjVshwRMHlzNCkjqwgFCG3nDvbTarJuoCKlRvi51Mnw43XX8G+rrnDDjuw1TPHHt/bP7FByQyrFiyYD726Hwbr1q2FBx/+Dxx73Ik8lnDiUc5AakbcU4hjS6qIFiGAGfR7a1iurZe9HZVh2muJQwdiwh2iTeIkRbsqxt+4MSCDDFGRuY5AdpyJNV78NCBGOIzCXD4Z33zjdTj77NPZ++dfeAl69OwlZT03MJI2jApK8UGoatv6ft5c+PTTT9Kvj+HTTz6G5cuX5aXabbfdoX2HjuxnY8tATEfYfvvt5eMrSiBdq5ATZpLHC8hoBTFSDtUipDrPojLwpSULx4DIsi6gYoWFOPSpx2DgrQPY+y5dDoDb77o/fb3cQ09gHFIZVxzf60j46qsZcNnl18Cl6RdpHGiZ0E3IeSLvC+IlDjCDNNBXUUzPirGwNffM9h+nFjPilmwFMRGOizfrpRS03vAngvxewzZw55RLTQ1iFP1gz22oJpOCyYpzBGS8+eYb4dEhg2DnnZvAu+MmQIMGDYQ9cLgBnr3ydkXM4c+i5dp0CjZs+BPGvvtO+vU2fPTRB7BkyZK8FC1atIT9D/gb+1qZ96tYtWvVUYsvKgVNN8OdIeXzjsa+rMKvOdSXdPF6pnkcljQgQ+DO2imHtYGViWcc8Pvvv7OvN731xgj2+aKLL4err72JPLYwYbWdKy77B7z15mts1cyDDz9OFwd6ZjQTYh4ckPFVpc2bNwsOUwgV87OgPXxDPbG9x6nbHM0szZbyJbmbLiA9D9BN+X/Sy5o4dsgl1A9iClJYAmIqktkymQwvn9zN3Y85EiZPmgjHHX8CDH3mBSk3AR+59oQlx28meA/zlYedZcvTPRDjAZkPP5yQt2+PZs3hgAMOzMKYunXrCdvnC8sOEFOc3JY2FGFJM5DJ+rAVyOC5DDGvcfRSCkDGuoCCFTCSCkw0edKncOP1V8GPP34PTZruAoMeeYKtLtQpvKZakWDQQ/fCw+lX273bwxtvjaWJBy0jiZlo6w7IhCoQzGgrmBieAVsmzgoJDVjT71g7gBFMblv5Fm/WFKH2AbTPPV/dh0o0exIYP0iJe2JPDWQEE2IXt3wx8gOZGTOmw1FHHgrpPhpuG3gHXHTxpVhuQvfw2MZuLjY8O2bq1MllMGbsOzDru2+z27fddjvodtTR6dcxcNBBh0D9zGolsjquCWoK91MOyER653JmAMjguQ0xb2a8YKlJNVkXULC4gEzI7keHPAT33XM7e88eDjzgNqzQIqU+XvJP4K2aueKyC9gvNY2fMLEC3qu6U85AaibagwMyXKq0SXDFjLBiXNL2AhjpDIRWzDvWDmKo72RiiRvERO/BlK6flDYBYgLNI8+aSgbECGaw565+eDkF2Xv6qSfg2muuZO/HvDMOOnfuquKGa0+oefRrNR6IqbAZ9CFY06dPg9dfexVeG/Fq3rNimjbdhYGYI486Gg4++NAQR4px+iYQc2BdG4rwQ9ZP41cpsSjwqTJO7qQAmTIyW2MWAAAgAElEQVRnNptTl3UBBcs/VLlGv3DBT3DpJeezX7OrV68+PDz4iXSft79ihMGiAjK5+urLGXD8sd3Y+5dfeRP26xTch0uddoqbGOgSGyfGqPqTSh3MJKAkbZswCySgcRsTh+pmacmKbfWqeLOZO1w6OwNdICbQDdFgXR38SNpHmv3gF0tKLDmnffnDDC+nMLsXXnAevDLsJfbgWO95MpUrV+Y2gAZkyCa5hF9VitxRJu+XQV7zYEz69eMPP2S377dfpyyM2XPPvYTtSoYDsoUdNyAjGAa/Be39S4EfTUBG2EKSgEyZQxtN4crawCqECWQKNfSpx2HgbWUPB/6/v58Ft91+r5iBCOFNufgSer/UdMShXRn09545U/aLTRLu5NzrMsNvmRzWJ0P8YCZBJaftUAzf2rANDBgyI2+ReyBrSMIDYL2RmlgRo9u3PCCJGYhR9Id/KZQEMZz2TQCZ3377jX116fvv58E5554P99z7QKQRNBBTkA27+WCvkBEFoN7Pi3urYrzVMV9+OTO7vUOHjnDCiSfBib37QJ2g5eYlA2SkPXBlw6tT/uWmDchoHtcZHkb6mDfduVplUk3WBRQu7jGlwnEtW7YULut/Pkye/BnUqFmTPXvmoIMPkzcoEhbyuC2jU04+DqZOmQgDbhkIZ/U7X96atXOrCMsOyAipGMwkqKQcgCEWsmNjIEbXZBNL3ANSvQMo/eVRMDnXGIC8TyQOTntTG1RPKt0lURLIWAhicjV+3Fjoe3LZ3bTHHn8STu57aqgh7DYfh68q5ZnjtDtq5Jvw/PND4cMPJmS3NWveAk48sQ+c0Psk9tPWwU4UYwxMIHmO0BNmktMcMDqI4ftIJv66hxORbUCmzIUWJ3E0LSZrAomWf6j0M+3//fdZGHBT2c9On3raGXD7nfdL28K7dsofoPfMGe/ZMxf1vxyuvPpGcQMIZUtb7XysOyAjpUqbNhE/Y4ZQtkyMERIasGbeMdnAzWxyPAlPJpMKYgKGBibHiEQduLw/RftIsx38SyMNiBEOoyhjeE4Ru3ffdTvcc/edsNNOO7GvLu2xR7PYgZisXWogw2F74cIF8MLzQ+H5556F3377lW1r0KAhnNj7JAZk2uzdjsOJYoxhKcjrJu9umkZODWR098fiEF4tQtuATJyfIUNsVlzWBBItISDDuVtUa9ashkv7nw8fffg+NGjYCIY++5L/10wjpD5cwzmw2269GZ4d+gT0PfV0cdAUJzDjgIySYgFmbJ0YSySkcW+pY7r4aUe2tpU79qRMWIYGxEWTcpPjQ+RrgaZxgD0gRjAD1cN7BZMV50AecJzU53h4/73xcMSR3WDYK68JtDX58qG4XYDdRmXa3+jRb8ELzz0DEya8l93Wq9dxcPqZZ7MH+GJDT2wQw29XLaN7hoxgFBrHgUIWkgRkyhzGwaSarAuoWFK3HIiP66UXn4ebbriKvb/2+gFwwYV8v1BoC5DJtfbYkIfg/nvvgCO6HQOPP/Ecf0Yk/zTi6+tiUP2tkFVgxrYJsUJCA9bMB4B/PLQjWlvLv3izmQGSPq8B92YSBGK4U5N1wHaDmKIJPrJ9W0BMRnPnzmHPk1m9ejVcf/1NcM21N3DalrvIYTclW76q9Ouvv8KjQx6GF//3AqxcuYJta9KkKZx+xtlw+plnwU471QpxohhjYAI5B3RtK5Oc5sDJ+n1TQIb6RKhaSQqQIXRjfGyXkTWB8Il77GnguJb8shj6nXUqzJr1LXTq1BWefvYlqFq1qm9a24BModVhL/8Xbrr+Sui4z37wyojR5KGQAxlORzFrDsZkDMzEw2lCQAyRYzyztLNE4xcD6b6NfASm01tgANh32/k9h20QtiCWivwOiCEQw51REsRw2pcvXlog4+nll/4HF1/0D/b+1eFvwGGHHcF/HjmV5K8qeZo9+zt4dMggVpYZ9ejRi62OOeTQwwWc8Yv7ek19g0C436M5YLL+X/uNgQJ/mgmJkJUkQBm9wxozsiIIMaVCPkVt1ql77roNHn9sEHv/yJCnoEfP47L7bAcyuRo/9m244PwzYZddd4P3PphMGg4ZPFfbnBhhHF+l3PfUYMZuAKOvEWoR5WDZpGXqgS62hC9OmiPWPvD195TEFTGRuXQBGZqb4wgZJIEMGYQNB1jYVfTqqy6HZ4Y+Bc2bt4B3xk6AmjVr8sXFqdg9xDdwg78+/eQjGDJkELw3fiz7XKtWLbjo4kvhtP87A2rVrs3pTEzRY3kxB3SwM5OM9oAdkFGLkO7aqqa4Qxnj4z5PVgQhJi4gw7lbl6ZMmQjnnHUqrF+/Hnr3OQXuvf8Rtj1OYMbTtC+mwsm9e0D16tVh6vTZULlyZdQwHJDBla7jUQYzRgu+VAEMUQDaGrGZ5PiS7sO0jbR0eit2XPgpFiBGLIOufp67LtHcHFfIYBuIKchJPaDIMdSj+5EwadJEOOXU/4PBQ/6D4jG2K2ME7b7x+nC2QmbmzBnsc8uWe8KFF1/KyjLckbiis6qVDX1boAmMGsjg++GMQuM4UshCkoBMmaM4mRWTFUHwKTzUeM2wL7n4XBg96k2oXbsOvDjsTfaLe76yDMjk6qf5P8Lhh3Rm77+ZtQC23XY7rf6VrMWrugjL1HFwgxkjAVpya8FYJSN2TDbQIspmvLELX4Q0R2wJiMluTSCI4U5Ne9MaVE+2dHjck0TawMSt883+sIFMxp4HZSZPmgj33vcQnN3vXGVPcQEyvmYERhxPP/0EDB70ECxevIh9PvDAg+Ciiy+Bw47oJuiU1yNHCup+S9g+7cUGfZxgeDBvAsgYcMfhxgEZZVkRBL+Ex6qWH58X3ojhL8O1V13CPt9x1wPsF4/yEkRaoIlLRGvXroX9OrSEzZs3w8yvfwx8dg6Vf2mr8aw2gVKOW2VgVqniTRGYMV6gBjFRPI7dmDl5y7onj1hyICbcceEnM4cvsEM6IYIvWT+4PR/d5CClkg0rWXAOTSDG72MGyoweMw46d+miZB+7idn2VaVM4ueff4b9jPiK5cvZlhNO6M2+stS2XXtOhyLeOFPpupHADUpoLgL4l3H/xqG737IeyOC5jHBB7CTe5vlkRRBiChi18SS2ToXheQ9+P63vcTBv7hz21aZ77ntE0AJNXKJq3bIpbNjwJ0ybORdq1Aj6mjOdf27LCQMynsSu07RHWmmjqV9lsuD2gbFKFJs7CLQjUWsasfRFxswdJ33l5u/JGhBDeCua+kaLcN3SBTe5QQltAchb55v1qd8Z4bNXAWXGQucuXYXtUzWxFNHAQv7aUJbBe5jv3XcNhMWLF7PP/c49Hy655Apo2KhRhEOJGKNSWdbmKpLb2vYiLDkgo8NtiHkt1CfO5mMQgLiSDGQKdeN1V8Kwl1+AXXfdHV4ZPgpq16kraEFNGDC+XZvd2LNzpn4xC3aq5fOrghT+ea3Gu/oUib9L0HtkdGDGgl7JeCVJKoCRzGb8fGQkDGIMsUtLyKGpOALdEgywqUFMtBlc+oZfRCmx5JJ+xO1rvpPDPblMQY9jusHkyYJQhmjyqm1lDLeP/EQjhr/CVsj89NN89tn7uevrrr8J6tQtHFiL+JDMSv1z19L9Js1FgWw8YeyGQoE/B2RoHVQ4irN5i52LKTxUbRcBEvGM09hXm64u+2rTo48/C0cd3UPEgpKwxkcd2zWHNWtWw8QpX0PduvXo/fNajHf1yYp/vG/myNTBjOZOT69lswHEFcAoZsOTNN3VHLmhO4lBHk1dk4rcEY5wkwJi6ECJrSCmIKcmEBNtO39rFsq8PRY6dw6BMmRtv+D8UQMZyXHAG6+PgHvvuRPmzZvLPp9y6t8ZkClaIUMJYjKpdN1o4G4btHQ2sUDGEBmxYChc4MYBmXg7F5fwmDYpx1ewY/78H6Bvn56wYsVyOOe8i+DGm/5lJi6FjPvt0wp++3UlfDJxBjRoELBiVNW/qMWYVyOqmzLYigYzFuF/40UWGwAjaVnXwJRKwhcNQ0dgCYgxDIUTCWKizeGcfLqishXIaL5zE+ku2FOPY46EyZMnhUIZuv4/RWpf/pqRn2HG9Glw003XwedTp7DPvfuczIBM0112lbQf5CkklS4YKtyvxgXIhDcS7UBG2LFmIIPnMsJFvEmJFeNKK4IQU8Dojiex9eIFMoW66IKz4N13RkP7DvvAiNffxg6LNwzpDF07tYHly5fBhx9/AY13boLnP1Tcd6NiU43iAmQyqgAzFgEYeuuc0jZZM2TRgRhaGQMwBQEUfnIgBq0MdN2hciAGy66Su0iPFVBmHHTuXPyg37j8mlKF3agN3DmZVv32GwMyw18dxj4ff0JvuPraG6BZs+YSPkQ85yaQc+CATIAlB2R0uo1wEW9qYnyMaTwAcTkgE57g6Scfgztu/yd7/87Yj6F5i5YYofGFoZwB4MCu7WHJksUw78dlGOYipHncRay4AZmMKm3cGPVVpgQDmNh1MnpIijVVVblmljiIMXwikwhios3hVILSnQTylZ/y6eQecPB78oMycQMxFfYL3wjnLJL3laX77r2LvW/foSMMvP1u2He/TpJ+eDwWpNJ1I0IYVtraFiMsGgIyOvsVlNzaxpmxG9DqNB+DAPgUHmbMZ9LlwgAyuZox/QvofcIx7P0jQ56E7j2Okw2NLwzkjK1aNIZNmzbBO+M+gWbNWhCdTh+rMa1OcQUyGVXauHETaYRWHD714NUWy7oGnlSSHmCaORLzbTvgXomhuHQPmHXCGO66pwvISJYt1YBCGcREGEI7ldynS8xjIZSJG5CRb7vR04RXX3kZBtx0HaxatQp23GknBmT69OkrHqRQePLlVLpQlNOi4RsQ7hkyGTfaHMXZfAwC4JdwfxWjY/OkPqYLT3B0t7/B3Dmz4ZLLrobLr7hWIDJO94QGDuzaDpYs+QU+mTgT6jdoqBqJj1K+bwNSWKm4A5mM0MCMFYcbuw6kRAFMRtKNX/MRGR6IBnk2fY1xIEbeJ/0dF1tBTIEFzSAmeLO8xyyUGTMOOvl8fUlFWn9NSchPNJD55uuv4NL+F8I333zFtl1z7Q1w1TXXa4CXKUuBjLQnIb94VcUyIFP0hjsHjl99LiNcOCATT8dqCrgNx5PYelEDmVxd2v88GD3qTTj6mJ4w5LGh3PnEvGBlzFe7NrvD+vXrYMbXP0DVqtVwjDLxXdxtrVZJATIZCYMZKw4vdh2G3tmbFecoV3EBMAVubQEx4gNSXFFP4qRzxQjESGe3BMQIJovOqRnIYIKY3Ozdux8JUwigTIpoIEENUzN7/zngRvjP40PY+5NOPgUGDrwbau64o6gzTq85KQSOR19biQuIKbBI3Ub5opBwbADI4LmNcKHFSZzNW+xcTAG342QyWa3QkIkGgY8Muh8eeuBu2H2PZvDO2I9g660rc+UzfU34Kz0uaLF7fahUqRLM+WEpgkWx8a1t1StpQCajIjBj3WEQBuQADLKkG7UDML5bYwti5DLYAWIKUugGMdwZYwJidHX03OMLnBPq/emBCmVyzidBu6ea5BbuHTf2HbZK5rfffoXWbdrCoEceh9at2/A6EwhPvn3St5m4gZgCy7gsWjYKY7Mg05OvYDfxJibGx6vGA+CT2BWXK5OVMgFkcvXO26Pg4gv7sfej3p4ArVq1xvNGdD48s2vXrIGO7ZpB9Ro1YNrMeQgWgz9GbDampAKZjCptIH7GTKRiBV4UPSQFwGQk3Yg1H5HhgWaQZ9MAJtI98R1Ke0CMz15dQEayx7cPyGju4Lnt44GYXKlDmYLziHwNkAcxfBkK9/7xxx9waf8LYORbb7DP/771DvjHBReLOrULyEh373EDM3YAmaxfB2QK3MSbmBgb3lg7cPaXf7jGKC2ZTAOZXP3w/Tw4uttBsGXLZnjw4cfg2ON6q3kjBDK5Wrx4ERx8QAdo1Ghn+PDTaeoWHZCxSvrAjAYvZAMWTdmtq1LKfYKhI5IfuyMrJiBGU+9jD4jJSaW3iQtkDKg76H5k7Rvq2Lknj2qew/p375kyU6aUPei3UydRKJOKtK8i+WuMMLrM7njuuaFw3TVXsI9HdjsaBj3yGOy0Uy1E7zkpBI5LX5uJKYjh+0gu+f4omUAGrV7xO4qjeQsdy0moD4vZsRVKfgxIe+A9jzkUvvvuG7j+xn/CeedfTN53YJibM/s76HH0wdCiZSsY/c6HapZjAGZKBcp4wgczpQRgTE3qqCTdOM0CGMNRBEZg+jqB18fZD2LCzeEPcOiKMCVnX9CfvH2+CTLaqeW+JuGc0Cgr4lCm4HxS13mkSS1P2126dAmcefqpMGPGNNh+++3Z15Z6HXs8gvecFBLlpRdiKpxQ7UAmY9jfsjEgY4iM2AZkKlzEm5gYHfaYHwRyS+qmQoyOr1ChoRsCMrm64rIL4a03R8BZ/c6Hm28ZKGdEI5jxNO2LKdC3T0/ouE8nGDZ8lLjFGACZjMLrj40Ry0sezGgqByuokRluQyflAaFZEGNPudJOukQlP0nDyWgPiPFJ4UAMjmFdHXmkWz0gJlciUIbq15Qq7Be+Ec4psbciwfPPDYVry1fJnHlWP7j7ngcRvOek0AFkBDPEF8j4NyZT3ZUDMkFu4k9MHJSJlgMyPDvNHPBdd/4bnvzPEDimx7HwyJCn+DNqH9tW6MMP3oNzzz4VDj7kcHjqmZf4LMcIyHgKria2RqymaDAT676ixEFMXAFMxrvxAo24s2gbiIncIZ1QLrdJEKPon36SR0uK1ItecwfOfer0AxlP0VCGFtLKQ1e+hLzXks2bN8OZZ5wK740fC/UbNIDnnn8Z2rfvoOBdjRJIZePMFF8QU2AZ77KoJAdkgtzEepBtbhhkfHwoJqE+LWbH5iffQ9A9aBSU5/3ZoU/AwFtvZqtQXhkRsQrFIJDJ1ZtvDIerr7gIjju+D9z34KPRHmICZkoNyGRUOf4XbZ2zL2WPNIorgLFkwBgUQXIAjHQGvlxE5ZMMEIM0vZOaTCo4oO64LQcxuepxzBEwZcrkAiijGcQI+1G83+KTYPSot+Ccfqez92ec2Q/uuTd4lYwDMtFZHZDhzonjX69bDvPxHnw7IBMuqT4tJscWpjgeQm7M3leZ6tdvAJdcfC4ccuA+8MEnX4RnsEAekFm8aCE8cN+d0KhxE7jy6hv8E1oWd5DCxz8xOQgFVdqwAecZM1YCGJwxvX2SHvDZQRjsKVcHYpRyabtbgE8J6AGJnotPbEBMgUFqWIx1Q6X7MUfAVAZlxkOnTp2zcZE/vDdwg7AFvr0Rfi695EJ4ZdiLULlyZXjuhZfh8MOPlDEDAhVA0r58hvgCmfC2rLs7o67DZFY0FFQBzqV0ElfzFjvnkxISj8HxBSk0dLxBLarCvHvPbzm5d0+oUqUKfDppJtSqXcf6tnXzjVfBsJdegIF33g99Tzm92LLl1S/6hpHpCPVIGMw4AKNRyo3I8EXPmoL1D8R0fDJ3rZEzEMWB5BeR5NEXJdKQmwzIiM3W0E45t1ucizhmVa2AMuNgPwZlkB2EmUOio6r2J0+eCGecfgqsXrUKevQ8Fp4e+oKgGc0gRiAjGojhNKELyJjuduX71eQCmTI3ls/q7HBhiVM5CV+NY3RsQUoakMnVop8XwsEH7sPejxzzPrRq1cZoPDw6+4yT4ZOPP4Bnnn8FDvzbwVyObKmG4dXFlijpFQhmrAQwCtkUs9JKurHYRRbsKd+AIbddxcWxQ9qiWi7tIAa/t6AvUkUQQwZgAnLq7pAjJ4n2gZhcZaHMmBwog6iiuJFnkxjXmkH/z96ZwN1Q/X/8+8iPlBZCpZR9p0XZEyktKlFE2pRKhVJpISSlRSUhivZERCgtSiRLJJXshEILJSLi3+93/+48z32ee+fOcvbzPTPn7XU9d5n5bufMzJnPPTN32DMw+NGBuc+Hj4YOV3YiN8Opess8uRYmyGj79tG78+s6vMnuy8KtKC5UFAQZhW40OmSD6RhnSG5BRFmQSeff//s/aNLwFPjjj9/hnSkfwqmn1UMRVxCtWjaGjRvWw8xZC6BCxUroBZkU/t0GW6RyyflH0KVM/lgBJh/ugRwOZQFPfXEKMCnEHZvMEmDCzcs5o6Ayw9gG3KGqEmRUnTRSH/CxCjKZ7VvmmCOFijImCDHpdL6qvXOD3wYNGsHrb06AI486OmQNvoZRoU1bQUYs7MdbsRFrdh/gBufQGol5hI7psIIM7YdEC0iF5zhzaetzYOXK5TBu/LvQoGETvfEQWK5d/STYv38/LF/9ExQtUlSxfzqsIJNJIX4TiZAH4+ocntHgE1h43Jozy3OXcD/URpEdkOvhjk9XgL6txdyMbO1OvJbgOlH3Z0HdmskM5cIF/xhDJQySvSQ+tRVmP8Str33OfZj0fVDePiT1L8/+fffc5Ygyt3XvySXK+GYtaB8QWlXGQq1YsRwqVzzREWV63HEXTH3vIx9Rxt1AdP64+yPBiq6jBa9H4m1YHN7btvBtmTEqXQEw568o3oIjhjQHUvPQ1a/0OabDP8yABAzJLYjAFELz01sAEceZ6TM+c2bLdO7U1vmJai3xUDDni9ybFjc/6wwt/kkIHr9giFAPBMKM3wCbsGklrq6dkNzC49acmXtszTbGlheYe0jtihNHdCQfkFqiq3zoWpK7V/gAxWdD4PRHbYZ4pfQ+xzi0JgySvSTujdbbkPAmJ25SMY0sbx+U176pfUiao7cnvAWvvDIWrux4FTz00CMc1j3eoN4nsHxK4yebl18eAy1bNIE9e3bDm29Ngj59B/g74fAjc7sqWFTAFhBiQtJutcCiPAdM5IfBtQPWkIgit9LdKMhDSzdD0r/DCB/v0H1kCoEp+H6IbOdFi0/YyUuZGjZsAjd26QQzP56hPKxwCo4dpUqVduL9ffs2uKLdhboDIyPjIBNf0i5l4iyE3tXlQjAQ5F1CKonAlxrxP8wFfKyMUPfU8bElRLyWpHoFnybKi4PZDEXBuEMlNMDuh2zjFd70xH7E7PjlbeqJTPs+jtavWweNG9WDylWqwoKFSyit03xAt6D4fZD36t1uvgGmTZ0MtWrVdmbJFC9+hPeSqsQYLj9yByOy+yq24zX78Vi8XKXBLYG7aKglyvuZ7o4dAtO4HnlONASmwn/gU4KsXVZSmEnOmnnm2dFwaZt28uKhJvsY8sGM6XBHj5vgotZt4NnhL0qPgAT/7oOr/+jikAf79XuIao0YCzDhiyHJTvrJDi0+AgyeAB3EH2uiJsS4lhDsX924X74gw1+a4BpL23SIm5YvAtnbfoKyj9Y/81TneuzFS76FokUPJbAf9ga1BTpzgo7Dv2/fDmfUqw3ffrMUutxwE7z25ttQxLkeXbEQw7hiwuOZLJ/iu6y3AqP7sCi7b6u1Ig8ryJjikA70X7RKhk2QwYXsMNtcdgWsXr0Snh85FI4vewLUqlVHskdCPBKvUrUa5Bz89+YbLzuvRd0fhwXOUY9xsGSUA17CjO5vu1XCfHKFJDskA7lsEt6vkAXKPwDlW9EYAYZ+RUH+eVdUNyOGcXH/NVUJMsTfzotRAmTPNmDZ11zZvi2sWbMK3p70LlSvXiPAetAbZPGxfcriL3z1BfO/gObNGsI/+/bB6Bdfhtu73wm8DaVOkBHQk6SLq4SWkRwX+Y/TmgUZZUKG2YKMtu6GpJ/7wTQeQp4TDXyCDI5CqNx3tL74Mti0aQM8P2IolCx5DNQ95TTxcQmiQcPGsGb1Shg/7rWDY5xaUKlyFc0RudBdIEGISiPnn38OcNlCXU/ugReS7AwRYLLeRRKwbxhWiAlewhgBJnsF2YIMf2nINmorxAQ74J1588Tjj8LTTz0B993fF+6+5z6XdV+3BOATYtJ59ZWx8MB9d0Op0qVh7heLoESJklL8iFpR4JatX5BBpssYK8goLpzQPhjsQBpa+pruDh6CFWRYPsRZAB37kAfuuxMmTXwL1m/cJtNNCMEDrtTbLZvXh80//Qiz5iyGciedLD0qvziy38DZn8KQFXWoMGNEuSImwPi81IiPAIMnQAcsAgzx2tq/GYuGECMkbEIj7L7oai2sa4QcqIV7lCbIuNpagINPP5kJV3W6As4973x4a/wkb7OCR3q6BZkkfR7oDa+89CI0btIUJk95X5ofESsKm50QYEa6EEP2Uhmy+7h0a8oFGe0HapPcaHRIB9OXEshzosEKMuK4+MLmzqVN/QcMhmuv7yrLjT8hJ2OpT//+ew+cVqcSHH54cfjm+x/kx+Xy7/0Gzj7lhapIc/ZxzphRDtc+E1eq2ISNAhLer5DFi0WIEfQlOjPM/d5QIYbbL8HK/KUhOwuTtkmFCiTxE2LS2bFjB1SvWh5KliwJq9Zu8nNPAH4hJn3J9u0uhXnz5sL1XbrCY48/JcGPmBW5T4YJVpd7OEt4PpXvNxz+cYeYDHSfTIW7sYKMGQ7pYN5jI8+LFDZBhngBpWDah/S5vxdMfHscDH58KLS/srM8RxkED8C83v56yWLo1OESqHdGAxg/cbq0yALjwHpS6YPqKA958EHKm/+qgntghaDBkQ3Isgk50UUSsDzx3kwhJty83I6nWogRFr7UkzW6mgvvGsTuxZzwyp5lIFu0bt6sEezc+SfMnrsQSpQoIXyj1i/IZDbUzp07ocGZp8CqVSth8GND4J7eD8gMj9qAsJNhDIIMsuO+cJFZtbWoKQtmm0fomAzmYyLyvEhhE2RwJo8xqpbnXgAbN/4Ao0Y+CxUqVoJq1bzvVycUhi/8ypY9AUqWLAXj33oNduz4A5q3OFdKaJ5xWEGGiMKa/BbAvU9E0MDIBmLZeEeEdcaOeIEoJgJM+AqC/MoyoE6IEX6yYoUYLgeyj9fpZm/r1vXgAGoDPD9qLFQoX5H3K0SypZRtk9kNtuy7b+H8Vs2d55MmT4emTZtx2BezojAhhsCMdCHG9VT3YVXc8TNegkwULlnS0vd0d3gfuM8dkOZFCt9hDW/yTJEpSu6soFgAACAASURBVOeZYaNh3759cNcd3aBYsWJw7nkXynHEefLW+ZousHrVChj3xitQvUYtuLLjNYICyyU4Orx9K4XuCOVfyhQF4cUNkgFYNomAV15v6EW8SM+XIH4hxrWE4DiMFWIoDAgTZKIqxKSsSO/jcneifvu+l8a+4NxjpWvXW+DRx4bQWKD4lGQBMnj3BZ999il07nQFHH10Cfj8iy+hTJljKe0zBxaymhjBkPIjgSRk6+LMGHupklj3FO60H9BNcqPRIRlWkGH9kGgBreAXd3Ppcm0HmPfFHHj19YnQ5KzmEhx5J0abbvt2F8J33y6FSVM+hFNOPZ0/rrA4sM4GyANLdPzCDOHaVoCRgY8Qgyxg8QIMnwHjBBj6FQX5F2UgRDCU5F+YCKPEF5nB7LfFdgZ5Xd4lwskWZDzsf7P0a7jg/BZw2un14KOPZ/utSWafeQEywv2EO5o0cQL07NEN6p5yKnw8cw6d/UDfLIuqKYz8Q1+2IKP7cMv/BYzYDLALMsL7ZLijKLjR6JCMuAsySdiPT3iTZ4pMkyCTTsf2Fzv3c5kw6X2od0Z9QY44vzDyoE6Nk2D//v3w/aqfoGjRomxxhflPBH6KAkzRkQszURRgkA2wsglRRfEF7CB+3x91AcZnSeMEGPdqehIQIshoFmJk70flf3GhWIgh8HNcmaMO5p2AX7ftgpwcRvvUCwjyQ6mcjR41AgY+9CCcc865MG78OxR+gt2TL65225ctKKY/xXLY5d+2NAsymgppZ8iY4pCMuAsygeGrOoBJwFRBJp02F7eElSu+h2nvz4KateoIcChemFmxfBm0vfQ8qFW7Lrw7/RO2uPz8JwI/1Q6+iHIplPVOwudBvRihIRW4QkikHvojy8O7VvnPEpkPBAE7+LYwd9OzrUi8luSGJzfv7phi42I2Qx1Hqr9m/mOG0D//HsZj7dSOgS0kdteut4VH4Nr3icfVByTvq3z3NT60vvBcR5T54MNPiUQZX3OCOkK4GZ+DFQGPDHrIEWXad+gIb45/R8kuOP2oJeTEl3LbF4+r7nRNIJWsvs9uQWw8etxTuBXUN/0dKMlLefmwdPw86MdXzAZQExh+aG54k8cbGT1JQaZixcqOQLNhw3ppfnhqlhRk+jz4sCPQDH6kv8iw0IK9jxUK20mFn/yEL6EcnzEtgsjyyIwoq3qST2po8W1h7qbnMxC6luSuSW7etYTgjsmcJueK6RIMV1kp/fM3o0/9ExlLyNlnEPvhjMCnq4nD1Qck7bNC9z0EFvo9eB8sWbIYBj3yONQ740wiP+EfsBFuJtVwbP563dkdRo54Frrd2h2GDR8tI8CMxTL3APILJL4fuy2nbTDSfZLB3vf9LAmOBynZfVSyI8koqzfiBiYLJyBwZPmwENgsoW2GsFHToI5MU1+lcffxrAXOPd7Ob9nY+SVI6Q4ZuP6GW+C8VhfBqy+/AJ/M/IB6fd9xU8Yb+sHd+wvI2bsv7FIm5GkkMEfoHVki+GPtZIXFHSebAaadtETIzSdoV5AUB6+BbKlACISGxJxCkL0treskAl+Kj0Bu18u3LP/mwGFvkFl4d8o70O2WG6Ftuytg9AsvkZvjzE/1viK5+nXXdDw4qPoI+vZ7CG7vfieVe1pfovsr48diAiDeRtXCP06QJ2HJXYGPhMczyY6i4MbXWYWTSsHGn35XGYUn4XWIrhiTJFRvYV8bBVQRakqH1e0//+yDOjVOhkMPLQbfr/qRwXHIuaQg6p9e3RGPFi9d7YhJpAQfq3D0PRxRkJEmzCANG+mgKROfjQZnsPkEqu5iLYpdG82ASG7n1KSH5a+o2r+48oXv0qwQQ2jY/UqV2ChgZ/DTj5vgzDNOgZNPLg+Ll3wXvLQanQFENZjX6mWPPRqeeXYEdOx0NZuBwMXV7tysIAMcAYnNBEkYFO7MFmS09UMfx7qEGWYhhtwAaojCl31AU4AJgowI95s2boDzzmkI5StUhE8++5LSoaQvSV2sW7saWl9wNlSpWh1mfPR56PLh4zY8/RBPJOEUyg1XY8iJzIf7fiqujzXjjib3kf/MFTsWvKMO+oDVMl9c5IGLJdyNzxKC4+I2R20g1X+z7w7DlQ6hAf7y+e08sg1K60LEXUJQBOGpcuK9TxPtyLcalH03iAsvaOn8nfHRLH8/YpojwIxPB+H0l077yy91RJn7+/T3F2Uo8xV2vyhC/5J38dkexO++RUUm4AAgOB49YTC4k+xYQV5a+qHuDcBFeDghSyDLh5bA8EM3TnOSNydSMbEmBZk33priCDTXXNVOoWdykoLMQw8/4Qg0D/W/j9MantbFEwkZOXv37VcTs8eJEl78h9gBH2sncGcux7LYtRXVNdyNms6qvlkSaf8LgNKQmFMGMoPSuhJxCIIiSAi15utA1b4ty7ykncM1V3eEmR9/CK+/+Ta0Ov8CVjMc0YhpuLDVO1x+KcybNxcmTp4OTZs2I1/R15+yAtEsxh9AwvcT5bBvA8JWlGNVcWGl/7pSgaMouSFylJwl44es2TNk+es46KuBKPzQhfAXgVns1YhI91PfnQS977odLmvbHoY8MzLEYcL7bcn06nkLzHh/Kgx97gVoffFlWZ+HH8Nw9EMcUdAjXpixAowyxAsxigQYMe4EmPdZQu25iTRDqi8/4Fw83EKIQSndibqLiIlC/j1cpCs+3uYlCTHpSz879Cl4fPAguPOue+D++/tR2WGPRuyBj2T1Dle0gXlffA4T35kGTc86m8mvrn2EdEHGwwGWwzn/ti11yKZgRT6i8nPXWtwxOJN9KRPzOI3cAGoCwxej1qCAKkokKckKY/Tzw+DpIY9Ct9vugLt79/VwGHJuqoCmDevCtm2/wbwvl0GZMscG+0/4vtCC/ghCCAmQXZhRM64XSHak2AUY+eK4ZCEG3TdNclVDfUKMJFVd+UkWAiHGZVy2AJNvTVoyPn1Dkj/+L074vjed+/kcR7BodnZzmDhpGq1ziijUCzHpXNn+Mvhi7hx4e9JUOOus5gz+1KrP0oUYj5dYDuvivkyMuyCjKACzzQt3LEuYiasgI05rMaMAVpDxJnmp0Lg3XnEuHep8TZc8x8GeVZbnx00bnXvinFy+Qv49ccKPZXobEEn34Q4kXJixAowyyNRIIRblWMEqxKg6CVVmICHGP2cc/P4RCDE+RmUfHuXfg8rVR1RvA4J3GiQi8J49e6ByxROgePHisH7DVtIAKKMRs0/hWb1j+8tg7tw5MGHiVGjWrDmhP7UqtPxDQfC+Q+ehHqsQw21VcVGjIsRociXMmWhhJq6CTBIxX2aaUQCmKDWnptp9t5uuhVmffgSjx7wOLc+9wHdgqKss4954GQYOeAA6X3MDDBj4WMh4MsaijGDnOXv35gozZmzq6VgBRrQBSV9uM8N8AFd7DiLRUCLglQCUf9uNQIhxGVf2/YR0gVuNEONrXoMQ46bZWQ1g7ZrVMPeLRVC1WnVB0Yg54xe1a+94ZVuY+/lsmPD2u9Ds7BYBi+vZCSoTZBAJMSnEbXtiszFFiMl2q32AYaY7DBuDB3EVZMRpLWYUgCpKZCnpCOeCc5vADz+sg48/mQ8VK1X2XEZnmbp26XRwzPEZjH1lPJx19jkBAcVAmFGUYs7fexXd/JeZEAURcfRi1HGhK9JZUVRbcjdqRuP6xtWShBhKQ8KFGN3jLQ8HsgWZqMyI8TUvWIgJXTrEzJ133A4Txr8Jzw4bSfRz0cQnCZqFmHSu6nQ5zJk9C94aPxmat2jps5qgjoBNiHG9xHTY598G5WSDLBwK99EQZLSUEdGGwTyuYzeECivIiFpYPjrD+ffff6FGlbJQuHBhWLU2c6YvhjIl46tZ9QQnvhVrgmYi64tWxzmETAqpdedFIvCR9fPZeY/8RRDgF31IajyWxcQXtqAkyN24lhQcH3d1OQ34/Uw1d3qEhsT0rgBLPgald7P0EDy6TbZPARGl+5OdVNp+UVYRQ/dlxBYo/YR+kM38eV84okyTpmf5ijLh5sj6bhjCtl0Xd/Ts5ogyw4aPzhBlpP2stZjF+AMR0yxC8d02mC2JBVk4xG6F9eEwR5LR1kd1bxh5kOeva4Agl8CwiXIzqwBUUZqRkjoO1qLwIYVh2nufOgJIm0vOTb2NpkxJQWbk6Fed+G6/tYvPUnqiVXEOoSO1Q/r27feQXBfBWSWynuAlcD8qx7JcK5JrTm7eZ0nB8elrpoQY/95mZS1ObinEsPRNmy4coiVCLShOSvZ+Msus5J2JyH1p8ka4O3f+6dzst0SJEoRmEsz+PKxINTDo4f7w2qsvQb/+D8N119+Yt5qgjkBoRv7hOXgjxjA8ELsNStsb6wiB0b2iABTmqbSkGDYKF+SCDJcBlGgaxWvDnEj9wZJD6TJloFy5k+Gtca/Cls0/wXmtLtIdkkOqPhUrVYFff/kZ3p8+BY4vewLUrFXHYym1SBNkECBwxoxbYkp9B+J6JwFoZ7648RXNuNU0MXJcqBXvJpFW83DzriXyO4LY+ISZYzaQ6vuZM2G4oYxHXHO72y3YsORuRhGOwI7l6rLyyOs7kveTofs2dguBS4nel44Y/ixs3LgBbu9xJ5SvUJFi38Pmz22NeUVCA6NGDYdRzz8H3W7r4TxUzYyRvg2HbMTy/VNHyBmM+Iy4+6AmlM2MUZynMlea288NeakJdjoGQdTNqBfCD1WkGHbkHmgPx+Og0rZdB+h6023w7pSJMHbM8xqD8+BgiI8+NhSOOaYU9L2/F/zxx+8FH+gJR7xBRP2T4R4z/sPegI9REhoqdy58BqjXVlR7cjeJwJfq4pBlKCE2Dm/zohajdxxiWHp383FANgDkdK04OVX7zyzzVCMsDj985jxXT86SqVG1PBx9dAlYtXZTsAMB/lSumDxxfWfS23BHj25wRfuOMGz4KNYIqOKQfwgJ3rdgGD6I2RblZaK6L/KS8HimyGEU3CBw6g3zOJDeACqIwha3EBqookWamvawQg4uyXdTN9t9Kf1mu4rxGycu++4baN/uAqh7ymkwacqHqsOSI8ggJGDGjFvqzH3kP0uAsTNfssRK3wVYLbMVg3htMe6o4/F347Ok4PiEmWM2lNoGJM+ECTEsrqzu9ko9vA1L7m7ZjkL9CtwQXCWQR14fUrT/DN3nka9J58fvA84801e/5647nL9PPTMsewlOf9zhUq7ovlfMnDmfOaJM8+bnsIkyyvclhB6It231ZG0jXJbEoboviqLAraIAouUm26HuDSSP8FBCeiyiXGggClvcQtph2u+YkRpqkr9+dOxxx8ONXTrBb7/+otS37/gtj6Qgc1v3uxyB5vkRQ5XHJsQIsv2pFzl/7/3HM7xE1hP8+IYqLAcxhqh2cgohO/2iWoELbvOcBqRNtyY0K947XftJ734+Dqj7IYtrZdtWIu1/UL/NUPsjW4Fo7CkAPzPJG+F2urKdcyPc8W9PFuaXeXXKFYP2LSuWfw+tzm0GtWrXgZmfzpUSh/zuH7yvwTCs4N9WhK0s1pLm4kbx3jEa3GlvRzdCjgzIciJB3HjdjOSZxV/EoAnPZ+DpfnfXrp1w5mnV4KijjoavvlkjPy6fOLwLl4DLLjkXVq1cDlPf+xRq1KwtPzC/UJQaUEfOnr+9hRnsBAaNpAXNFWB8lhQcp369LBHwSgDUJ2uSA9A9ZqLuTuI7nKoTUm1CDLFfusBUjzn9zeV+csZptWHr1i2wZOlyOOGEEyX4kbNi2Enr9u3b4dQ6VaF06dLw7fdrhcVhhZgCsr4R5LciFIQhEbq3goyZDoPhPk4jyycM8eN2cwog6XscraAI0WdAGBTbV4sXQueOl8GZ9RvBuAlTZUXmHU/IwPLnn7dCi7PqQdmyJ8DsL75WF5c2A2o5pE/fBx/SHUQQ8k8IBHz7rt6lIDdqD6iRFWKYT9IkB6B7vKRZiFE5K0aVEOPrRvAgEZsQk87QZ4bARx/OgF539YYLL7xYsD+xK9KerDY88xTYt28fLFqyDIoVO4w5DuVCjOttbOMg9u1F2IriLWoXYrKfKXIYRXfa2zMF8xd37IZQEFdBhipKM1JyMChUT044oZzzN3kzYIAcaNCwsd6A0ip6xBFHQtGiRWHmxzPgwIH90LhJMwVeVa+sD+0zZkwQXpgtoRtIsJ3As6K76XRfisS4OL1FLOMjBDNiJFgNcJVAPCOGekGypQXlS9w3XAtu27YNTqlTFcqUKQPfEcwo0bUPYtn3XN72Yvhy4XyY/O770LBRE6Y47MyYXCIpxAgzwOse3cDGZHfa29MNti/0ZCNemDCjAExRGpAaqhAZZsq4ue7qK2Dhgi/gtTffgUaNzxIVmXc8gYFlf3jpRS1gzZpVMP2D2VCtWg15cSlbEQcCfy47mITPw/eD/AW4PQiLmdglv2uquPzduZaQFKcws5xt7/7HDWNi8nqgTztK808XHnV/5HWfcD2EWPX0VPAvkfvIdyiJrFyoS0e2oK9ZwfsK5n2Vi953597wd8jTzxH5Y4bSAO++p8/99ziizODHn8oVZQjrLn9b9/FAvM2rJT8OYQcjcajuk6JR5l5Tp4p6fn6Qh0O4M0IO86E0dGEzCkAVJbK+Gga+EDMLx1LGpCBTpEgRR6A5cOCAyOAo8I76qWdzf5jgnl63KvJIsBK+TkCNcGHGdzwvbKAv7ozBz5KvRcU7qfC4QjIQHC+eJsxdQfqvI1Euzh9HSPu5HIj3TxYWefcSG1nWLxlJJL+HJRJKfnUudH9JvGbwCsT7OE6o+wZB+DNnfug8Wp1/IbRqdQGlP+6AXYuLE4FffWUsvPbqS3B9l65w3XU3Uu175BG8s5Hvn46MeLgCE5+Zqj4pmgLX6UdZTK3Oh5byIiofed4hSxrULajCJM4LdwGY+jnulDxBFa7g+r01cbrz96orLxVnFEjD9F+iatXqcMutPWHtmtXwwqjgL8to41KzEk6oL2UKXVhYccRVmdqS4gYmd5cIfCkabvOCDEhLk9Kw+DgSVIZ1DR55dtxcYShMWMxJHY3HsDeoLbAtJTjfYEmIz2/dOlVh+7ZtsOz7tVCqTBl6A5z+c1cTW7CF8+fBFZdfAo0aN4V3Jr8X4Fc2we2DbczDv/1wryjPouZi20uVouY4E2HHcyT5hCH+0GpG4nE5uUUVcshAkifWV14aDY89OgC63NgNHug7kMOSRzy+gZFFfE6zM5wfY5g9dwmUNejHGLDiO2PGrbJmKWuhC5AizBC9JXGuqQh35xOYpDilNSXjitJnwoQYFt8t3O2YetDFIRzubiYoMndZ8h4yye9p6GfE+FogWpp9ATL8o/L5hNHvk0886ogy997Xl02UYay38Msj08z/8fvvjihzzDGlskQZ+Yek4PZRfEgkhn378bUkDG6LmoutzD3WziUaZHmSHzmEGNIO8zA0dCHcMDWPIW2aBNlm5cI7KhGxJgWZVudf5Ag0n3z8AZctYfuCPJ4amntJ090clzQhOYyjIGd32IwZ7qTlDSs1uSaGueNLilu4WWaDCb7Vg83KWpzeMqEDZd2UubsJjpCuPEIcJjJfKvAY9ga1Bbal5DRd+BKC/CbNJL+JOfP02s7PYn+1dDn5isweBZYtwFDyJsa//77duYlxqVKlxfoNC0jtoYcZ/u2Ie0V5FtGMTxQHEm132tvVDXk4IUsiy8sP4jDFL6gV5hNbg0AfrusbRRnxNjyjJuzY8Qd8uWQllCx5DNW65MdT+sgfHvAAjHvzFeg/8DHofHUX6vWpRdQIUyhLfmSWI7kNiLGqQUoNj9FnCTkl8/XKbYDaYO6CXt87C0mTMh7xZXa3Z+oR7EBScxM7CvcvOEK68gjA1e8UFDzLBeO2QroC8X6QE+q+wunXy1/BDX+HkRsg9id53+RD1xuvdUSZMS+9DseUKi2xawa3j7J9ESXs25HbgvjMuC1qLrbye8Zo6mTKy4xkIyIvd8iSWHcOPlAfasUtqAWm5jGsTdNBHa7Ceo5P3W+mg9j7zRTAlkhSkDnyqKMcgeavXbsEx5SHgf2WBYab/7q3bL5K+VkjPvFQuKMJd+mzhORYhZkXNAjWfSmS32rCA6Ec10jvotTdTlKEKf+phxiroQ7ThRjZlydlVYy6hHQrhC4tpwnDHXH6DVt9xvvTYc7sWdD64kuheYuW9AZ8/Yq/NIkkjuRHY8aMhg8/eA+63tQNLrzoEnExeAXiE5f8bZIO3+2J2ZI49B1XxSK8z4c71JKvcrfYNqZQCHZSBuTDtFlRHZtxgjs68aDO1+eAJTPmChUrQ59+g2DDhvUweFA/NiOBA0l2nma8pIl4s4wJObv3uC9lkpM9s1VNB3auJSWeDOIwmOBbncy8rMXpLYY40La/oN5yBUeakGKV2HEi86UCj0FvUFvgW1pQzsx9htM/6eo1q1WAnTv/hJVrNsHRRx/N7Ff4CSmhOfdiy7//Di5o1Rzq1DkFPpw5R14gSo7q7PBvT9wryresuegJj2eKHUfbLbKNSsjxH1lOXsg79OJOnlkUNhQjQldw6ZIf11/THhbMnwuvvjEJGjdpRrRO8JhZTPR39rgZPvxgOjw7/EW48KLgWT0R2TSFk7N7zz6hKUs+XxEK94FMcuz6B4a4BBjO1cgtYRFiuOMwXYjxOejpEGKofeMUYsjNiW1sFjOPDhoAI0cMg74PDoTbu99B6U+vOu63WLXKJ8Lff/8Na9ZvgcMPP1xcIMiFmBTitmEryPi7t0JMNB1nwv0FIr0hrcRNkOGKCmdKRBgRus+BTGXsBw4cgNrVy0GRIkVg+erNgcuSHXfFRL9r106of3p1OOqoo2Hx0tVkcYVhRKcQB/WlTImQB/8K4iFz7bGEotiFmWc2kLki1kuR+OMhbF9p/unCI49DTqTuX0lSt8nm9UOXf5kBZFWOuaRkC1LvNzkJN+ezbUjzF8ymDRscUaZ8hYqEokzmvksYhImQLHZt5w6OKPP6uIkMokzIvsu1FBZ8tytui+Lg3tSUHSDCwrCXKkXTcSbkYRDutJBDHabgY7VquKLCmRIRRoQu7kDGTVKQGTHqZUeg6X7rDVpjSScpyNzdu68j0Dw95FHPZQzfRKXjO2OGuhYIikcXgsfSknMQbp5r7y0xXUrD8sqeCHypLg46h2Sn9eLjUL8Ju/qh4nOK4DeYrLAvKadJyZfg9M8dvstA+8svgfnzv3B+Rrpxk7N8V9C1D6Pxe+LxJfKf396jFzzQpz97AGKbTRritmnxGSIMiQnlM2MKHMfDLZJ2TiHsaIMsLz/knYPgLAC3Xm0oRoWe8I5WZw597u8F70x8CwY/MRSuaH9Vxmfk41zxGbQ8uz5s2fITzPp8MZx44kl03ozqFOLJ+Yv2UiYkBeM6SJkiwAgaQWIRYDhXI7dI6EBZV8YiwLjM6hJi8l/pFGJ832S2RreEFWJ8effdd+D2W7tC27ZXwMhRY12rKS8cz+IZokyKLb/8Se6Bed+hFjFCp1AD4q0iKboVZKLmMBgryIhaAVcBorAv4sHIFDTeUyaIxvVrO7/yuGDxciiV9yuPnogdCAcyf97ncMN1V0KTpmfDy6+9TeYJS0E14y/MICkQ9ymQxDywzYDhNkPnRvTi9JaxCTA+DgXOq2AjhjNiPN3JG/FFXojhNkOxYuWKJ8DevX/D+g1bodhhh7F6FBIPb9n8hRm64xaSw3E+sRBihBoR4V73DjTSbrW3cwrh4wUkeYUhT1/BVQAryJhIIiNwbDkkf1SgXZtWULvOKTBl2kytM2XS6XH7jTDzoxkwfORL0OqC1laYCSW3AIWcv14PhWEEPUKXJDcgPEZ9BnNXcN8LRljKjPGJL727rVOPYAfKujJhl1QeKV25BOLql3n+VQWQVU3O7YvKF/UCbPibY+6EJNbYSxiyYtnjjs54PqD/A44ok0SoKEMYj5p9h4dlsc0nDf5ty21JToZCj9GaSO1NlQeiKW9t5ca2kYWCYifGDVOYRAviLABXNLhSYcLYFNICx5pDUpDpeWdvR6B57tkhBR+EDlDl8vAjubH0f7C3dF9mkLlvyv6X+0nOX7vF/iqTVxhC1lA8LsFhKCHGTLB5XauHWwpxoHwHmQh8Sb6iKBIZf5ST0BxAllvqOAS2oOAahJuTs58UtMuiWqHscdmzSrb+GnS5j7g4ZHbdoc88CU8PeSzjvS2/7PB0jHGwl4R/GxNuQK51BA0h+agf5jj6bhG0sRfM+3zKRXQj8TDNYl0aQiLBkw4zxqaQ/w2E6y3EXH7ZBfD9sm/gnakfQZ26pwWIMuoY/fwwGPp0wTho9Q+/Zi+EvbDc0B3VhQkzVoARZwCLECOvKejOSrRts1iEGO0nca6diuIAfN1FSIghNytWDNN1IpsS9fbs2QPVKpfL+pxZmEEgyCRZuHAetG93CTRq1AQmTXkPwTZMh7ht3QoxZCFYISY+AeQi7GiEJJ8w5B2ucRWAKxpcqTBhfAoegkzGR4jZuGkDnH9OIyhfviJ8PGuhxxLqM6hW6bis97LEGeyFpYbvqE4tzJh0MBHuIqICDOdq9Bb1dw0ih0K+wWJB80wY3UKMr9sICTG6ZsTwmPn3339hz+498PffeY89e2DP3387f5Ov9+S9l/xJ6D17CpbLf77n79xl0pYLIlCcQSMyZ3tIJBJQruwxkJOTA5u3/qE4DjbszBh1aP8OVnMnxHJ814WwcQWyvPywgoxqI/owPHzA+KtLNCTjHPnc0/Dcs0/C7T3uhp533uuxhFoChRlTCksI8435XasVJlyO3CK7IS6kuBE0+sMmwAhaPdwSjq4R6lj3TBg0Akzm24qjoPmAf4W4zoj55ZefYcMP62HDhh/gwIEDmYLJHpfgkv889+/+/fvFBJVG8eLFHeHGja8og+acxX+fl5wpk2TS5PfQjjvEbfNqMhTmBU2DKAwkbkKMdsfekIVDsBSyvNzI35XgKIAVYnKJQAq+mJJb+peoSUHm/ffeakOrPwAAIABJREFUhZHDn4aLL2kHFStV1hbX4sVes3bAnMKGQnmOT7hgYW71HstJnBZjitVVNN8SsykbWL4pi+9MmBR5OxNjZ8LQr4hvRozPkgLi2LnzT/ghT3xJijA//HDw74aDrw/+3bdvL7PdwoX/A8WLHw6HH14cDi9eHIon/zrPc9/L/yzv88MPP9wRXg5PW654/me5nyc5weMeM/mg2beQ7UyeGvIYfPnlArin9wPQoGFj6VHRksh6wm1JClESYiR/PRPmOC5uEQWQSZxmyDCFaAUZI4lACmkkZAzFpOMX49PPjoK2l5wLd/fqBu9O/1RpTEm2bfsNHnm4L3z84ftZnzmzZUwobiByBJkUObvyL2ViPouVgnC3Evam0kujXYjh6xPKug42ASZlXfvOx7XzwCaiSpwRI8e/AJ+Cjv7//PNPvtiS/JsuvuzY8YfvescfX9b5BqVixUpQpEiRfNEkXXBxXmcILrnvFS1aNCtw3hImRZnk7Jift26FM+vVzp8p47z/i/+lTNqEGJ+Pky8XfbkQrmjX2hFk3pmSPSDRgZ0Zox5tQkxmAPFzr/14m4vArwtoDWpB8mGcZQUpRGHfJALDw3dhpiCTIuj4PuSJh2HsiyOh9/39oetNtymL6ZmnBsMLo55znp9ZvxE8OOBRqFa9ZlZ8ZkJ4dOfMM2fX7r1axxE4BZhcQ9iEF8Grh1vEOm5g3pHGZCZM5kvF3mk+YLbItrTAejBHRhnDxo0bcme9pESYvJkwW7du8V3n6KNL5IovlSpBpYq5fyvm/S1W7DCmOArCl9Opft6yFeqfWQe2/LwjxL9syFRe91K7d/8FNauVhyOOOBJWrtkkIzAirBCjj7jNjNHuHkGbe8H9hRDSvNzInR3D7EEYeM9N9GB4+C6yBZm8d42AdKx9dpPT4Ndff4bP5y+F444rKzWmKZMnwCMD+zr3Dixd5lhHkDn/gosD4zMHNYJMisKyC4Vd3Eg3IC1W5pMgWZgpwIS8zbUkFUiEGHQ/Vx36gbAVyNbSMiPGtRTBCr/88kvebJe0y4/y/iZ8pl0deuih+WKL+2/Jksf4h0RcE8mnmS7DRxxxhPMIWUx+ID5vh8XR6txmzt+Zn87lD4kC3WKoNi+6d74gfQsJc6wdK8jkInQ8giw3L+TvWiIiyBjQlkEYHr4P3oJM3ifm4hN88pKmzh3bwN133grjJkyT4nrp1185gsyKFcuc173u6QO33NpTii/1qBVkUvje/JcWbKJGkAGsYpH0GTCUjnQLMVaASflnLozgOMLe4LbIsRTNgqJNhQsxO3fuzBBfnHvA5F1+tHev/31fKlSs5Fx2lLr8KPm30sG/ZU84UWQCWSvq+rZQXdcO3qZo4rixS2fYsvkneOmVcXBiuZO4IyPBzozRhzZBRjLly5WCTZt/D13OCjK5cM+MoVxMN/K/b7GCDAYMDz8Yw0UZ2nOiM85sAFd1vh7eGveq80g+F0XykvlBA/vCB+9PdV63u6IjPNj/UTgs796BZqNHkEmRs+uvvUSmsYoZQYawxyxdiME+LrBCjCe6Z8IUxBH2BrMlMWshnhGzatUKWDB/HixYMM+5GeyOP0Lu++ISX1J/kz+5LDBwj9Xkbkuki+3+6y/nUqZVa35UE4igAVryZr/Dhg5xbvZ7R6/elGuTo0sU1W5d9844jajPkPETZrCMD7AQF0HGzozBYlQNBodOQDRmypCPAzI/qHdqFdizezd8/e06KO4xM5mWYUOfhOdHPOM8P71efeg34FGoWasOaTiICTnKK8oja8YM3pkv3gaV1AnNDJgQy9jGAyGOhA1wGNF9c160M2FCP2C2yLc04hkxq1athIUL5uWJMV/An39m3rg2974vuZcbVTr4t0La5UeHHXYYbfj4ZsRkmhe1GAdk+0ieOD6YMd0RZS5qfalwUcY0IUa4FwQDuagLMUjdIwjAGyvIiFoxYoIM8vb0w9CwKYmGIEOOd1YPPzIE7rqjG/R/sDc8M2w0s/VpU99xLlv6669dziXzSUHmoosvc7yaX8+QrykVJpizk3DGDDGS93pSa4N9BgylI+UbCnO4ar6117fj8BniYxFisM2E4TMvwGS4ELN69cr8GTHJx587Mm9aW6NmLWjcuKnzaNiwMZQ4xuO+LzRgE2IoDYYtnvxVpgZn1oHNITf/pfYgaVCWvClzsyZnQIUKFWHu/CWc1gpIZD3htiSVKAkxKbQJMpkBKCE5S8aPjQSXNQkFUR9IInzcgiw/N2qGAbpHYZgNqsHQsMlJ5P/n/7FhsM6USefazpfDoi/nw+vjJkODhk2o/H/37VLn56+XffeN8/qOXvfCbd3v4gkHGXhEmSTswoykERnmGTCCVie3jFWACXGsW4jRvy/IG9pj/+ZT8khM9xdo5GZJhJhVaTNi5mX9JHWNGjUdEaZRk6QYcxYcXaIES8ihcZCvrreotN7phRn5M2KCqFrpBNi3bx+s/WErFCtWjNmObpFUuzf9O2sHBb/BGORcKyn3FcqVUivGIGl7N1aQ0b6CUKwgk4uhYdMRMug2tQYihJlNmzbA+S0bQ/kKFeHjTxcQ+d21a6czQ2b6tMnO6zaXXeH82tKRRx4V4i00HCSEfA2jKf7wm/9K+uZOWb4cjpQJMJQOYz8TJmVd+0bv2qiRDLDJP2C2yLc0FiEmYIU1a1ZlzIhx3yOmep4Q4zyaNIWjS5RkCdk3NNoVpHU9dPskMuVFZjxtLm7liDLT3p9JLcrEXoiRZpDWvRVi4huAN8LGM0jzS8EVngGzY3QfC7FgWLicJEITNrEeIgSZFOXLV4Qbut4KL48d5TySz4MYOfxpeO7ZIc7zU0493bmxb91TTgv1QxiOZnAKMilydu4SdSmTFWCILWM/vjN/6xyTmTCZL7WBXoiRXB/mgbTH22vWrM6YEfPHH5nfHFevXgMa5YkwyRkxJUpyCjExmxETRvaMGbpRlqpN8dZbboD335sKo154GS6+5LLQ5XVvo2i86N9556FRkkFSA78wpM+YQZK/G6FfMCHNMR35u56ICDIGtKUXhobNiL8gE4U6hAsz9FmeXrcy/P33Hli6bD0cfnjxrM9nHBzfDHq4j3N5/lFHHe3MkLm0zeV0XtEWH7cgk4Lh57ITAa8UYAUYcXDv0KItxKD9daTQD7gt8y1twIyYtWvXwIL5X+TPiPnj98wTkmrVauSJMLliTImSnPeIcYVGv5r2orIszgDZTknHJvnIw/0dUebB/g+HijKmzYyJ7klNyEBMXQjo3UsTZdD0hVyECjEMi6tG3a7HCjI6MCxcQcRMkBHIw48OgbvvvNW5EfDTQ0flv79i+TLn56+/WfqV8/r2HndDzzspf9QAdfFx3UcmiIAZM1aAIfaC/TjOvANTM+VB//ZgZ8IwrWXQjJh1SSEmT4RJzor5/fftGZ9Xq1Y9bUZMUyh5jP9NMYnAOiOmwAHPxwLJ9ZQ7Y6YubP75D88AdO8jXn7pRRjQ73644cabYeCgx7M+FyfECDOgx7ruhsrDXqoU5wD8CQ4N+0COjqgKMlHfd4VhSJiS8Bdk8j6NBOHnAHyZXnNVO1i8qOA+M20vvxLenfy287z1JW2hX/9HA2eFY59x4kXomABR7Dk7d/3thINt1oai1ek8mHLctkJMCHlCDNYBtJ0JQ7ZkwIrr1q3N/+nq5CVK27dnCjFVq1aDxk3Oyr9PTMlSnEIMQUzBq2kvLsviHGR6+nnLVmhQvy5s3vqH4jjC+fijD6DrDVfD+Re0hrEvv+G8Z9qMGGne0DSUnRmjvSm0B+CPFWRErqivAFI8I2/PdAwKVTDBgkzeEsZDfk7Al221SsdlvVerdl3n569PO/1M3/V0f1nLjjmzZZIUlh6PIAfy4uSXX80TYOiXZEG/8IHja3csAgz1WthmxISssHTpEpj8zkR4b/pU2L59W8ZnSSEmfUbMMaVK04ZLFUv46tqLS7MYB3Q7KWTHR1j+/XeOKFOnzimOKCPoCysRBvR60d5QCIQYFAEgCEF7ANkIFWI4V1OFGm1YfRGiKyaTYVi4gomHIEOOvGynTJspzbY+QsYJSDsPwz1mfEAvwHh4MOWLEqwCDLYZMN5vKweLEGOOAOOzJMGKGzducMSYKZMnOs9TVKlSNWNGTKnSpfnS5BZiBBgJdyBqMQGQ7bQS3m9rJxlP8ifRLzy/BZQseQzM+Hh2box2ZoxmrCAT59xJ8A/PlAEfHdRhyl9BCHGdHWNAiHIJOdDGqj6xSlYkZgoyKciFGcGJKP+mlsGheUKMmjNs/X3atdFhE2CIFxBrwFghhjKenTv/zBNjJjmzZFKcXu8MuPzyDnDJpZdB6dJlMsyqHovGXogxZEaMm/T4Gp1Z1/m7cPEy9CczVohRhBVkUCJ0hgziPJOo+4IhQoKMVMNiQB6eGkKm2Ue1RqrzWvPDrxmXMyVfc4GqYQLGDKji9CdbmDFm5kuIJ4IAtLcR1pkwKetICmRnwjCuhU2AYTfgkBRikjNjZs36JP+9ChUqQrsrOjiCTPmDzxlNc6yUvqp+IYZxcQboZsRgxS+++qfXgn379sFXX6+AYsWKCbAolugKMblovXlvOgjC0B6C9gCykXL6hjBPISAXlaV5Rd6eyMNTTCK0ILGql4KTHhoxxpzamy/KJCks5pthmfBvrdrbA7kAY2fCeINFiDFvJoxrDY64Zs+elX+pUiJPKTz66BL5Ysxpp9djNx4BIQarAK5/XxJM0D6m+Vn14ddff4E5XyyGY487PsyCEqJ/0mJnxiBwjSSAYPzDQ6deC4E5TOSCjJ0ZE2esEJMkPMc4VEEUyMYQHIReyoR14M9gSR3MqSiKHIkQk0ASCBYBhnotNEKM2GkS3367NP9SpeR9PlK0u7z9wUcHOKfleWyGIyDEMC7OAN2oSfe+JAzSL6AuuqA5bNiwHj74aA5UrFiZxJIUon/SgnQQZQUZlAidIYM4z3TkCzIRmRkj3bAYkIenCCvIJJF3ziGW0HBMi9cQ8oUZEwUYjtXEYGfCEGJnwnAtjUaAca0hMK4ff9yUPzPmhx/W57/f4pyWjhiTfOTk5DCFyQIWIQbrfln/PiUYUiEmnfbtWsPy75fBO1NmQO06dclXFIidGaOYOAsxKdAEko13aCYOFsmxggwWw3wgDUsTVpChw1aDlsCKGVZOiT+XLWZEj6KeVoChJG/wjVWAIV5AjAFqN2iEGLnTInb9tSv3vjHvTIQlSxbnv3/qqac7lyolxZiSJUtSh0mPgjtaoNvvxXNGjB/XXdMBFi1aCK+9MRHqN2hEb4CR6J+sIBNiUsRZkNEeQDhWkJGxYkQEGeTtiTw8RYQLMWlLxgZTcjUlzgIM/QbRBwE/l20FGJYluUAjxER9JgzbiljGScwzYdgNEFmfNnWyMzvm008+zv/s5JPL54sxlSp5XUISYJA5Fv0zYhgX54BsJ6d/3xKMyG391lu6wOzPPoVRL7zszNCSmX30hZhc0Ny8NwWCcLSHoD2AcIQIMgbkmUTdsMTwWX/KjLOBMCSN2JkxTGA5iSIFVZg+ow1UMdJBIMyI3cpQ1UqIpiT/5E5/zXxOY2MuxGAbHzELMZLiSjc79/PZ+Zcq/fe//3XeO/LIo/Ju4tse6p1Rn8wQRySYBox2Rgwb4sYvuQbObnombNy4AZ56Zji0vrgNr1EfLxJA12DIZsYgCARBCLmgCSQbOzNGxsr6CiHFM9J2RRqWJshmyNiaWcQSPVEmSZowI3YqEJq6BARCFqPCTLAKMZETYNgMmCvEqJkJ42bZsm/zL1X6/fft+e+3uexyuPyKDnDueefTGaSMCIMQo37TsTNiSFfscfvNjijz09Y/PJbnI/qCDDIhJh2sx6vYBBCOFWRkrYjmiIPYMB9Iw1IP4b0KbL1CaoCoQIhCIUCsZoGJwqw3AkGXO7cAw7Y0E1gFmMy3tSE+Hsl9HI0A41pDQ1ybN//kzIpJijHr1q3Nf//ss1vkX6p0yCGHCI1P6mUT6M8V6A5O+vc5wYjb9oNXvLnrtfDRhzPg6WeGszqg8IbBIC+IhZgkCALTHoL2AMIRIsgYkGc68gUZPQWJiyCDLBz9hJwz2npRgOXbb1LQhInz3FUUiH4um5CQgJhnEcgAjQCTws6E4VpaUb2wzIShMfviC8/DB+9Ph8WLv8x/r27dU6HdFbk/cV2qVGk6g4Hx4GkINN9PGjYjJkXC9TfrA2aL/lx3zZXOPWWGj3zRmb0lxwsjaBrOCjEGhJALmkCyETozxhDUDV+sICMTZOHog+KEwdYsE1NmyphFtEWZJBJ/lYkTAwUYhR6JyD+BRRKQnQnDax6PEJPk//7v/2D4c8/A8GFDYf/+f5z3ypU7KX9mTJXKVemNekQivfsyOLAzYvjwHetRJ0C3QscOl8GC+V/Ai2NfhwsubC3JCwXoGswKMuhD0B5AOEIFGQPyFQKWgYkqr0jbFWlY6qD85jb29WIBy7fjFpQI+FUmTkwSYFyu9G9SCe9XdiYM3dJ4JmB4r6FZgHGzY8cOGPHcMzB61Ij8926+5Ta4qPWlUL9+Q+6IMAkxaIbASMXfMMTvC9gzb9fmQudn2V97421occ65krwQgqYBkQsxKbAe01SCIohghAgyBuTphWRNmWUFLuIiRiMLRx+EJxC2XmQEj31wVRFXNEEYMl7hRJ0wI+wb3jgKMClcQgz2waoVYtiWRCbEpPjppx9h+LBnYNybrzmv//OfItCjZy/nUbTooQzxoGsItEJMyNvoEDc7TkzGrS84B77//juYMHEqNG5ylmRvKg2zge7nrN1gP7apBFUw3vh8RRRp5O/S0ByNDDFOB6JQ9EB5AhH7elEg78vpOBMPUSaJOGFG2MwX9jWYQSfApHB1RKyDVcUCDPFa+M77M9eQHJ8o8yuWL3dmyEybNsV5XbLkMdC9Zy/o1q07ZTz4GgTN0NcKMaIN5NOk0emw+acfYcq0D+EM18+yR1+IMWwwgyBQ7SFoDyAcITNjOFfThRVksBhmA1k46rGCjFRMmm+EKxpLCnphxmQBxuUOT6fEJcCkwCLEYBvPRG0mjJ/BRYsWOveQ+WzWJ87rk04q78yO6Xz1dYRmcCpP6javAE9WiPExIK4Cf/65A848vRYcOHAAZnz0GdSpc0qWN2Egazj0M2JSIAkTSRhGkF0r9DtiIVhBBothOpCEoQ8rxCjD1k4ucZmJ5C/MCBNgNFUsgbGtXBN+kQSIRYChXgvdeb9cIUbVyeSsT2c6gkzqF5Zq1aoN3XveBW3atPMxg04RY1lcIHZGDINFoaxetRJanZt7ydK8hUuh3Ekni/WIruHszBiD3GeCKhhvEgGvOI0ZAVXIWAYwurwjaV8kYaiH8cQitvVSBaICIwqFmLiIMkkKR0GA0eg9hLjMhImbAONa07CZMH5MnTrZEWRWrVzhvG7QsBH06HEXnNPyPJcZK8SEeoyaEBP6AbNF4cyZMwuu7dwBSpQoCYuXroAiRYqIM46mAa0QwwKKMFAEQUZcBRm5uzkryMgESRjqsTNj8ILlW3iLETD8XLYVYLzxOF3F/q2gopMsajfohBjDZsJQGn7zjVcdQWbz5p+c1y3PbQU9et4FZ9ZvkGfGCjG+Hg0XYFKYNiPGz9vbE8bBvXf3hOo1asLHn34hzjAS7CVKdCAJwziECDKGFl/eeCViggyy9kUWjnzszBhURHpGRxRyMIiAe8zoFWA0RxFAQUTYRFAs33JjGafYmTDBjHp+OIwY/gz8+eefzus2bS+HHj16QY2atQQGF4CJQkzIR8h2Cb5g2VeI9Pbcs0/B00Meg7NbtITX35wo3oFSDJsRkwJJwEjCKABdQN4I6XWG5OoFVejyvvkSCpbxhmiQhKEeOzMGHf7jKVzVxxWNxY/CugUYzB0la5CCLFjdJ1d2JgyVdRSG//lnHwx/bqgzQ+bff/913rv6muudX1kqV+4kQQG6MOYLV3K1BdmugBhxM2P0CzHp3N/7Thj/1htwZcfO8OTTz4l3oAzDBBkkgSIJIxu0geUiNDzkuXrBFDJyQQbjuEMkSMJQhxViUBPpmTLYiWiNxf1cth/oBZhE9jMkwco//lshRiRYv5lKXv6wffs2GPHcUBg7ZnT++91u6+HMkDm6RAkxjgocylxcINEVYuQNFtRUgsZLu0svgK+//gp63nkP3N37AfEOpGKYEJNCc8Do64U8wOzwGAJGnmMQURRkpIEkLSRhyMdeomQMpsyUiSQRLjG/MCP3XFcCrqv0EQWM7WSKeK2YCTDSzAoUYlJs3PADjBg+FCaMH+e8PvTQYs5PXidnyBQuzLn5GzMTJsRzBISYFKbOiGHx+vPPW+G8c5rAnt274fEhz0Knq64RY1gBxtwrJgWScJGEkQ3awLJJBLxiMGAc4sY1uAohLBpcaWELRx52Zkw0sA1j4YT8zMxAAabgf0AZMBYhxtyZMOQn2jxgnRocdHL3/bLvnEuWZrw/zXldunQZR4zpelM3Pqe5jmUuLpDoCjFY9h26vM2Z/Slcd/WVzvN3p38Ep9c7U4xhSVghhg0kYfiDPsBc7AwZkQvjKISUKBCkhiAENdiZMUbj2Q5IZ8rgjMriR7YwYwUY4WA7ibIzYai8oDFIcnK3YP48Z4bM53M+c15XqFgJuvfoBR07dWZxyIT6TZBNoEO4qwglTjNi/Hhx9Ah4dNAAKFv2BPhk9nwoXvwIsQ4EYJwQkwJJ2EjC8Ad9gLlYQUbkwjgKgXV8IgJEocjDzowxnti0SWwSxUVhpAKfBy4BJvNtFMgTYNgMmTsTxmeNmMyEKTBDbmjmxx8695BJ3msjSd26p0D3nndB64svpXFIGZ9u6AQZ/fHSI35/Z8aMGD/u6dUdJk0cD81bnAuvvfl2rgMUDetzfMIOkoCRhBGOIYEmPJ4xrGwsURRkhIMkLSRhyMPOjIkUtl0sspF/819qMrs9ZuHICjGizBt6SZIGAcbNu1MmwXPDnoG1a1Y7rxs3aerMkDm7+Tkkjqkw4ZIkio9RYvqMGFne//e//8EVbS+Cr5d8BTd36w59HxyoNUVjZ8Sk0By+MdUzJtBcuASZCECUtaFCjKZhpTSQhCEezpOWyNYlAgS2DcKGQxiShQCNwgz+S5BSYLsUiXptNAKMzxr2kiRq1q9fB/f17gVfLpzvvG51/oXOTX2z7rWR65AJU4QYxLsOX7DuUzB6XbxoIbRvd7Hz/OlnRsAVHTpJ9BaMsYIMkrCRhBGOMYHmkgh4RbmykYhJAVchsI5feEEShhwYRJlI1yMuYJ5BYDEOBcIM/kuQUsifAcNmDIsAQ+/G0JkwggzLOokbOKAvvPjC887ztu3aQ8877oKq1aqnO6YCnQAT8jHCXQcxYoVotC0nzMHIEUPhyccfgUKFCsE7734A9byER6lhGNrb7IwYNgwL3F6yJGIhXIWwgoxh2HvGxBuEDYowJAsFAoSZkO9qEPcQK8SINm9nwshkyuRJziyZvXv/hsqVq8ATTw6Fho2apJwTo3+TpOsn+uOlR86+JfpCTLqjLtd2hM8++wTqN2gEkya/LzuCjABM7HMOVpChw7iAc7GCDM9CEShAEMjSQxYOPxzfrkSuFnHHzpSxSIBCmPERYJD3S3VflpgrwLC7kSvEYJ0JU2BGTcOsX7c297KlLxc4rwc89CjcfMttoevp3zTZprzoj5sdOyOG38Hq1SvhiratYffuv+D27r3g3vsflB6IcX0OScBIwqDH0MCtIMOzEO4CGH7IyAJRKOJI5P9Ht4oletiGtUgiZ/sfuwPPrq0Aw2+Ieg0rxKAyqO1yhoNuHxrQB8a8OMp52e7y9vDEk8/CYYcd5re4ZuiEGP3xsiNnZmCEhZgQRyefeEzWe6++PgFanHOepDAM7X1IwkYSBj2GBm4FGZ6FcBeAOzpk6SELhx/Kk6DI5W9xyGhXpDNlsJ5DiSBrzIYoNtEUNjVZdcfgOM6Eca0pKU4ETeVjRvFG4OFuyuSJcG/vXrBv316oXKUqPPnkUGjQsHHYaoqxQoxgq8rQLcSk4yXKLF+1EY444kiBYRja+5CEjSQMegwNPDtsikQMzTkdK8SoNCQOhCGxY2/ka8kj4fvCYhFPYeydTP5MGG7ZQoUryW4MmwkjyLDOmTB+rFu3xrlsadGihc7rhwYOhq433xq2mmRifElS6JvcVpWCSZAJgleUMVaISaE5fMOrZ3QCPnOWYwP7mC8mtUKWJrJw+LE387X4gXSmjCVaaPy57FzUXYLEb9DOhKGyjs4ghpkwQQzo3wfGjkldttQBnhgyFIoV875sSS7xmQmTjvhZMeikNIMdhZFI+99ArBAjBsMTsZcsqVtLNQYfTjxBFo4YKE68I5m/JQvbzkjJyfsbwQbK2fb7X0rTwnwJEvWauM/zs9eIyUyYAjO4FbLUapPfeRvuvzd52dI+qFKlGjw+ZCg0aNBIWHjhEdB9HJX9YCLrCbcl7ZgqyKRfzvTjlj+IA8BTeUqsECOGiCTCJMhEJPckganIuY5UGczRIk0TaVjsUA4EIpe/xZfsXQ/u1kd0Gi0c3/M5RDGKQpowo24mTPQuRWJ3Z5gQY5oAU+BQyOJr166B+++9ExYv+tJ5/dDDg6HrTbfyxcYSScT3d/LEYP0VMlWIcfPLz1uhUYNTYNPm3wMD0F9xTjQlYHzd3BieUHb4VpAh/9CcAjBFijg9xKHRYy9ZsoRghRnRBnnxONtDFyM/3JcymSDAUK+N+zw/e017SZIcOGfCBDGg3wPw0tjRzvPLr7gSnnhyKBxarBibQ9pIIi7EpLAzYkxwFByA9jB4sUKMWCKQWCLgVVyI8gyZJFGbJZMEcWh0EJ5cRyZfCxO2/TGSvH4p+i0TKsyoE17EGsR6ORKbS8NmwggybOpMmCDemTTBuWzpn3/+gapVq8HjTz4L9Rs0ZLBEEAnblUrGIX4cj6cycRNirCBjpFs38Q9+AAAgAElEQVR5RCwhe8mSvKWxgH0mNi3Iw6ODQJSJVL4WJjxnNNqOgYKsW8tE8F4z+cKMegFGjOFoCTCuNe1MGLkoEGJSrF2zGu67txd8tTj3sqWBgx6DG7t2Y7RmZ8JkPhFmUTvxE2IyX2kPixUrxIglYolZQYbmQ3MTxzwzmxbk4dFjRRkLK8g7BvLwBBP9WTOF5R8TFc+AEetWsku5AozLCzqDUbgkiYT+/e6Hl8e+4Dy/on1HeDx52dKhh/JHEHEhRt6+CU+FlEeiPXU7I8ZAt+qIWIJMggzD4lixggzvwupBHh499tIliyViRFucKYztZCeaAoxrLVOEGGECjGCD5A5lLE5M8rKl+3rfCfv374eq1ao795E5s37QZUt2JkzwG9wW0SA9Mu2pewegPSxecE/qM4+IJmgFGZIPzU82SoJM5LCCjIUbewkTVnLyxJkoNg/DzX+tAEO8tikCjGCDyoQYzTNh/FizepVz2dKSrxY5rx8e9Djc0PUW8kisECPasjbsjBjDsTNj5BDRBOMuyCSJwwUjURRkDAkzHCvIWDhI+L6IIegnpqQFGKF7zQQIM/ERYPhcGzgTRpDBuM6ECaL/g/fByy+96DxPXrb0xJBnoWjRIt7RsF2pZCx2RozJjsgc04ZT/sRSsGnL71D8iCMOjqcTWe9rA+cuzVwinqgVZHLxTCcOOXItqBdDwiTD3kfGwoHtGx4gF2eiOHMm57ftu4Tkw2zEuG8kDRRiBMeJ9d4wOjfMSRPHw329e8GBA/uhWvUa8MSTz8AZZzbIXCgmM2FSiJ+xjq9ScZ0R4/2KjaQI40abKINz12YuEU/UCjK5BAsy0UmWKBOChSpXKJP/fP3Gbczx8BCdVsnDijIWTrK/PDSjx0iP0oAyZJ2XGhCzH9SXMpk0A4bPfYLXAK0ndAaxCjCcqwkkAevXrYV77uoJS5Ysdt55+JHH4YYbb0597LNWtIjDJUluon8gDA5AdnhjXnxesoc8JCZy0823ZbgZ68qpa9rn4PG50STC8zM5fxJBJjT/m1yfjzEn/0DySnLjTbdmvP3SmFEZr8M+xwTLbuLGrq78xubm99ijAzLeT4o0KsUZ7YcW0STy/wtfzGKxWJDjK8yYJsCkoA9DvcqG9bxV2aVJBgsx6bz26kvQ94HezvP2HTo5s2SKFCmqUtPTQhxmwqSjNDpklyaRfcqO12yZJI8+3B9uuuU2z8+EoGAX53bx22+/Bq4T9rnp/LYtJP+Qz43mYGfY9ttvgYuEfY4Jlr1FZNufcF+yLeLbtxYIRBncowsLThK24xhG1hVXBt9zJudX1kuZTJ8Jw2+I1hM6g3ZGDGMEB9+++abr4IMZ70HlylXhqWeegzPOqI8gXrHImwkjzaAQlESlPXU8g1kllzLh3tWZS8wSJj5mRrguvqlF6NIlUZcseZF+GVMKO2OGgZDLTCKTp0UZBbsws3pPPMasJCTS/vf8yAjCL2UyXYAxaQaMJMPKZsIwutG/vZBfc7R8+TK4sv1lsGvXTrju+hvhkcFDgiwYQfhAW5oHFMTjoEYWgPYwRSMpocjViZaYFYDqS4wI18Z/wBudpEMz4Uw1KcLouMdMZFrICjIWi3qQ3wQ4l5y8/82+GXDOr9vE3PyXFxNmwEhzYS9JUgy5EJP+9osvjIRBA/s5z18Y8xpc1PoS8aEpIK4zYVIoi057GcID0B1i6teXfvl5KzSqf0r+TBnuX2WygoxYYpo49fAuonWKgyCTIjAjA9M1MGR/rChjkYipM2aSxOMLRjo8j98G5EB9819eYi3ACDacbQaXEKO//4dEQKHPXHfNlfDZrE+gdu26MGHSVDjqqKO5o5ONnQkTdYfsAWgPNY908SUnJ8fzfSKsECOW2CaeixVkcomTIJMkSqKMYeFaLBYOjJjQohjPn9I24N4zhWQ7SLge1GsmUg9mQ7QexblwG+Q0nG1GclEozStoIrYIfNqBpHm+XvIVVKlY1hFlbu52O3w4cw5aUSYrD8H9D0MLB6E8Ou3lIA9Ae6ghFD/iCChe/Aj6FSXv+mJJbBNPtbsRBzupBKcVvYQD841oGxuHnS1jsVioyYEc77fRwj1jhn9nmBBliMUraqMJj2dSYDSv/0DoEwHd2748N+xpGPLEo87z1954G85peR6lBblk5SOsQfS3LAnKokRTDvJA0IQsC2n72pgS8wJQHWsjXqtAgSJiyQdmY2iqhoYdjBVlLBYLMzne951BOnuGWJgRJsCIM8jiFbXxRMAriY5kryYQuj7EE2/HDpfB/Hlzod4Z9WHCxKlw6KGHcljjI3igLMUySpRHq7089AFoD1k2ghKMfJ3CiH0BcqH+8iPidfNML4KCTBJ5x1WLWKwoY7FYeMkVZ5J4CjSIdiS+lzKxz9R1ranwUiQP7/IMCzCemjad+ic8cq+YKUzrn63t7kveAXGmmcH8+V9AubIlHVGm5x13w9TpHykXZbLyEJag/halQVm0IjuQ4gDMalEGpOxzY07sC5DeDwh7RAw6TlZ6Ts7RTDx6GUWVRGBj2Xa0WBSC+PIfMnIgdWlTViqIcivMvmNLBL6UjXR3Ah14m5KsTslbXCJ0fUp03MnLlpKXLyVJ3uC3SZNmgj1kIv8bOzwtG4TyKNGURdje13j27N4Ne/bsLnhDoDZtAVuINBJp/4csFBsSWS+iW4CoZha9vKwoY7GgA9nsEjYKflY7SSLzbe355fwS+nPZVoDhM4lHgBG8ugASGX9ClpLGP//841y69PWSxdCkyVkwYdI0KX7kCTH6W5IGZdGiKQt/IGhSkUTy57FTbNrM8TPZeUS9XsTYQmRgRZlMPFM18KdiaZD/hYhaDA07BCvKWNST368M3gfGb3wtAp9b/mvKMe1SJp/p9IrnyktzJ+FyBW+TEgvGaFpC6oyk+lTq4R2IyjiTv7aU/NWlpCjT+76+QkUZ3zy4E9TfkiQo73doysIfCJpUFJAuyjivy5XyWdKfONWLCFuIDArKYUWZJJ7dw3kz2gXwHXxHO23zsO1hsTDheZmOLEeRIeCXmzTkWVjXgVi6VwkOvE1KzITRNJ5jWiLjj8+n2hj0cD94cfRI5x4yyRv8Jm/0y4PnQFesRdQoj1Z7ecQHoD0l1Ri/j0OGLUwGCY9nIQtGHv/jVHSLgOnbUIvFgpwIXK6jJIUI1KmAgpsDp0gUfATeH8iB++eywzBRgPE2bQWYcIKFGNdS2ti1ayd0bH8ZLF++zPkJ7ORPYbNghZioO/RDXCBoUlJNZPZ5SLCFycLOkKEhuoWIamZRzSvKmVlM4eCZeE7C+K6oTJwBFY5UkJmMb2qSc/b9VSZalF22IMGBd+wSM+E0jWbmbf4lSakHZASmrE9Q8MGM96B2jYqOKNOv/yAiUcY3D+7EMFXGH23tqL084jPXnpJuPBL3uqdMzWonwcoV39t6hWEL40kirDAxrVvC/SKiv7qUwnemTHRTNhzbMBZ95AS8MhVlWUSjXHlkXsPke0VTjushCGZhRrkAI9iRvwAjXfFRtbp43EKM32KA8/D6YJ/ecMtN18FRRx0NH86cAzd3u91zuVABhjpBdC0ZiHYBBo0Qg9GioYQUYOGi7yAnJ8cRaV5/cxLs3bsXLrqgBbz+6lhlIRpF7DuUPz638UtfIJYk0p9EXJBJEu3sLBaLDHJ8X5hLRNLQQKbqEqq/uIUaRsEmVJiRfs6kTIApEGIScjLhzgHdSVyIEIPmfDqE3377FVo0awivvfoSXNT6Eli+agPUrl03//NQIYYa7BXJRVv7oSmPvEC0p4YFBjH6rLNbwIo1P0HNWnVgQL/7oeftN8mKzjxsxwrEijLeJAJeWSwWi8WHiKga9obAvGTPoCHWX/xW8HnkCzPKTtKUCTAp8xIzipkQk78YIImXgHenTIIzTqsJ69evhUcGD4EXxrxWUPNUmjEVYpQ71F4eOYGgShELhIXwq9lhhx0GMz6aDdde3xXem/4uNK5fF7Zu2Sw+TlOwHSuQgi9cfBeIZf1imnakc45rm6YT6fM/i3ZyPJ5FAWXiTLTKlkZwcqJSLyR9J69IiFF2FhgjIQbdeTUl99zVA3p2vwWOPfY4+Gzul3DtdTdmCjHMmFER7UKMduQGhCZNAyGt3cBBj8NzI8fAL7/8DE0bnQZfzJ0tOzRc2E4WghVk/MhKO/VtRMSJfoaWJJE997OgIEOciVBnsz+nLYLguTK8VzTx3/zX7+xd0IDI36yis0AON2jOU/ODoBNiTOXHHzdBowanwtsTxkHbdu3hq6UroXKlqhwWcVdGm4CGpixyK2C6QKkUCcW55NK2sGDxMjjxxHJwbef28NKYUWIdYMR2MgICJBlbPw9sQSyGQHgWE+lzPwsioiXOJFEi0ESsZv6QVZP0aiZ6YUbhhBRvAUaRYwo36E7c3EKMT0Ro4mXES28aP+4NaNrodNiy+ScY8vRwGDb8BR7LgLEy2gUY7WWRGwiaNE2CsFisNT3++LLwxcJv4KxmLeCRh/vBfb3vYLBiCLbThRI4T8bWL7MEqYNk3InIDj1W5zriFrNYqInirzS5kS7QRPrSJjdifqapcOgSkg9kCY9nSuBwh+7Ynsh6EryY4fiNMXvcfhNMmzoZTjq5PEx4eyqcWO4kUovCYhOJtqjQlENNIGjSNZGQ4omu7evjJjnCTHLWzNo1q+Hd6R8L9qAZ2xlDCb3Bb8zx/grGEiWSQ/5otipbZtGth0U3qdPrROpFRDua9NQiXDt/3OIMWQEKZsxI/lY827TEX0cKdmzuTJgUcZkRk/B+eNG44amOKNPxqmtg3oKlhKIMzsrYmTByA0GTrsmEFE9mbR/sPwieGDIMvv3ma6hd/eTo3BTYdkYCFCuBpmPrYTGOHM+nFGtZLMLJyXoSPeylTbIhm1FTSNYI2l+AUSzEcJjQjueJc3SFmFTgIT8KlcFff+2CKhXLOpcuDR85Bp48eMIW6gBJhZTrIrjSB9kBodOdLMLo0LGzM1vm77//dm4KPPuzT3SHxIftmATYe8pQkcj/z2Ixl1hdCmHBTU7GnyhiL21SifddZrhv/qttJoxfAJyroxjGZATiHx26uCnJmg0DdHn8sH4d1K5RAfbv/wcWfPkttLnscrcHwFghbTNitKFWItGebpTROFPGzamn1YPlq3+EE04sBzdc1wnefOMVRZ4FYjsrIfaeMvTYwkSZaJ/beGRHkHC0a2LRTU7+/zmRFxisQKMPamEGzUwYQUKMVkJnxERLiGGZEePHlwvnQ4uzG8CRRx4F6zb8nHfpEq4KKZMj0E0NUSvAoEk7xuiq/eGHHw7zFn4DLc45D/r16Q1PD3lMQxQM2M5KSGq0EfCxxUJCBE8EIpaOC7bsItjMFkRk/Ix2jAQaaWlKNW4mocJMwvXPlJkwgs2IwTOY6AoxvDNi/Jg+bQp0uOISqFS5CixftQGKFi0qyLIYpLcXmo6hZyaM9rTjiE/RsbTFy6+Nh6uv6QIjnnsa7r2np+5wgsFQMCNIpP3v+7HFEmuifT6TE/gybM1o18aiC89fa4pJZ5O6XcWkhmHk/ypTwRhH8WhHsDtUYzXPYPwjRBU7C4mMP1J4aexoGDigDzRs1AQmvjNdoidypOWLrkOoDQhd+nHEoEYYNHgIHHvccc6smW2//QqvvjFRd0gWZqwow4ctUJyI9g+euLLL+JkcsrUpFrdYiPDsV9HeEDOQtl2x/ZBRpCikfCZMCkHuUH2LHrMZManARc+IyXKQ93j8sYGOKHNpm7YoRBnh+aLrEHpmwqBJ3+IL1jbq3vNuePKp5+DzOZ/Bhec10x1ONhiLhg4ryvBhCxRHov1ls889Z+wMGotmcvtVWu+KWUdTcqlTzOC++W8ogs660J68+QYTXSEmX5ABWXlkW767V3d4fsQwuLFrNxjx/FgpXkmjEpY3mg6hdutCk7bFH4Mbp/2VVzmzZVavXgmn160KBw7s1x1SLobW02IaMRzJphHn7KOdu092VqCxICCrT8W0o0kRaWJWS/HCjOCzLnTnB1n5+Z/UGn8C6jMjRvbMGDfXXt0BJk0cD/c/0B8GDHxUqGf2qDgMae8QdiaMJdqc3fwc+PCTufDnnzugWqUTYNu233SHZKHA7id4idEo1oPA7GM2yI8NlG1qu4FFNDlevSrGHc37x6AFGowo/MKMoLMutCdxvgHZGTHCHAVwYavmMGf2LHh66Ai4rfsdUqJxI3xGjHbsTBiLGExq2+rVa8LSZWuhSNGi0KBeLdiy+Sd9wZhSNO0E/AKTxUJBhMftgUQ775DsGJKPybmeRRFZlzalf2BxECbYRHTjJRdmBCsnaE/iQoWY6M2IcQsxqmfE+FHvtBqwYsX38PqbE6F9h05CI0qHO2/0qqJc62jStVhclChREtas3wplyhwLZzU+HX5Yv059EHbjIMQWSigRGqiyEteZMxFODUKz40w+2rWzqMJToLEdKxA/wYZ4mxQ+RUcP/sKM4LMutCdxVohRMDOGju3bt8FJJxwD27dtgw9nzoHmLVqKDw0ECjFokBMYWt3JIp6INu6ir1fAieVOgnNbNIKVK5frDsdiUUCOkYNS0YSWwNDBOwkRTg1UCTSGn+NZNJMSaHLcNwe2HYqauAg2BcKMFWI8P0CZAyk+ucoXYtg9rFyxHOqdWsN5/vU3q6BWrTr6okOvSMgNDF26FgsHXyxYCpUqV4HW5zeHb7/5Wo1TuwFZFJPjfoV4AKoKonE48sE6DxFNKw9CgUZQEbi/1bfEFs/+YTsPN2HbpG95kW7MhXjPvsw9dw2OGF0eNPgIMeJzEms5+RO3F7Q6G0qXLgM/bf0DSpcpozY6tJ3YC7kBok/fohQjNgkCPp29EGrWrA1tLz0fFn25QK6zKBTMYiRZY0o76HeIcxmif+5HkJ2CAjCfJFpiQI7rX9bHFokIF24kbdTMN/9FO1DnmBFjzDm5G20zY8TxzsTxcE3n9lCzVm34+ttVXLaiKcSkY0UZi2CM2wbYmfHxHDj1tHrQsf2lMPfz2brDsTgUdD47NhVDjvuZLawFoi4MEIozCJQS2nO+aLdbXPEQaGzDa4N1m8xvIl4DeY9QYQa9cBHHGTEpDJ0Z4+b5kcPgrl7dnZ+4/Wjm58xR+UaHvhOTIjdwY8tisVDy7vSPoUHDxnDd1e11h2Lx2OvYcagYMsWZHFtYIChBTE6IopseY2aGtDv3yaMFIT4zaDIXsQ2IHEG6jL8wg/YkLevkmuys2/hz8iSuJOTnJL9aAx/qC48Pftj51aU3xk0SE1UkGjsdK8hY9BLFMcGESdOhRMmSUKFcKecySuFErWAWI8kJeBVXqPZnUdz5pRHdE3fOzCKqbFghBzMhlzrlLmIbKuIUQj+ZIFSIIVvdSJRfoqTOQ5Lut90EL40ZDbfdfgc8PXREaDShk6KMbmwvrCBjschk6Xdr4cz6DeH6azrAV199Kd6BHTAR4F0k39LZmlJjx+7eWIEmTghqwJgpGlbI0QmBUFOwqG2QiMB8jxnpUAoxkTpH9wle/swYdVW7sn0bmD5tCgwY+Cjc36d/YFTkH0QJ+dKbxWIBmDj5fahZqw50aHcxrFzxve5wYooVZ1TglC0nx9bPhRVoCoj+eZ2izERd12AYEUsHGRRCTcEqtgEMQ78wk6WmJHIfcZgRkyJkZozJlyp5cc7ZDWHhgnkw4vkxcGPXbuFRRUJts1gsWJnx0WwoX6EitL6gBWzauEF3OJY0rDgjlpzU/1agyYJJoIn4CU900zQko4gJO4aFixy3UENQRdsA6NEnzHBemhSJc3TlM2P0sn//fqhdsyKsX78O3n5nOlzapp3zfuilShaLBQVRPnbPnrsYypQ5Flo0qw/btv0mznBUC6aQQHHG1peagrJZgcYLpm4VkxOc6KUZvYwyMEzYQRKGseTWy0+wIaiqbQDtqBNmUjNhGGfEROYcPSAZNTnqqeaWLZuhSsWy8NeuXfDZ519Co0ZNYn6pUhCxTt6iA3vwdVj09QooXrw4NKhXC/bs2SPOsK0tAcFFCvzU9l8mrEATDFe3iskJTvTSi15GXCARcmyr8OHdXBQNm+PzsK0hHInCTN7Zdb4Qw7S2+QQoS2pFJ30V/Wbp19C4walQtGhRWL5yA1SuXMUKMr7EvgAWi1a+X7UJChUqBHVqlIfE//4nzrAdvxDAIc4QLWDxIlOgAVtHF0JPCJHOVBBFxNKBKGYkFUVCjm0VMXDX0VnBT7DB9jADAcKMS17InxUDVOeYkZ0ZQ/eR2kAUMPPjD6DNJa3gxBPLwboNP8ORRx2VHU1kGt1isUSB5at/dP7Wqn6yWMPmjA3QYsUZeeSk/W/YWFYZykoSrXMN08P3ICINoxvB/dy2BhlVKx6b//CCuylQNoRuYYjsQSHMZN2lFzzvVEtJZM7JCZQl9bnqrey4N16FrjdcA6edfgYsWPStvYeMxYIdwoMnimOsRIoVKwYzZ82Dffv2wfktm+oOx+IitP9FvYNKpECccQk0tqb5oCoJ7bgfGYaEyYDhDYMNzvLZahfgFmP8xBk/uHq03QRCCRBmCOewWEEmVIjRk6v+6j5w/93Q6vyLYOp7H3vPkrFYLEYT5eNplarV4dXX34a1a1fD9ddeKc5wVAsmDPICWYFGDgVjZeIfZY01Rp1fGKITIA1LIrzftMccyrLYKsqHuufaru5QKHQmjBtGtSEylyqhnBnjFYE+Jox/E0464RjnXjJjXn5DaywWi0U+UT1ent2iJQx+/Gn4fPYs6Hv/3eIMR7VgwqArkBVo5JLx+x4xGySzEInSID05QhoWAqyg4wmnYBMXut10DWzdslmLb+oeG/GuHX4pE6eiol+kEARBIjhy1RvBrE9nwr333AEtz20Fsz7/0nsh/UWyWCwSMPx46EmnztdB9553wVvjXoORw58RazyKBRMKXXFCl7b1FkBOZhkjMhiWQcTOFzJBmlzEz9kkEFMhhzC9KFahVu26Ga+bND0bPps1E1o0OwMeH/yQnqAoIO6tOYIeND4FPPyFGU6VAYdIIQDCRPTnqr/iy5Z9C12u6wR1654KL7823nsh/YVCjppdvukHFotkojD6EMjdvftAu8s7wFNPDoZ3J08U78DWOwDB4kxqIVtvDnIL6P6X9pGtcQCRLpEh5/UxkyEEwnq6aQiEaZia5UtjnocVy5dB15tug7UbfnMer7w+EUaPeQNOOLEcvDx2FNSqdiJMeOt13aHiQbEyk7Pllx25p8qcJ8yRO98mTAhH3vqj+OWXn6HBGXXg+OPLwqIl3/v/HLaFELW/22WxBCL5+PDLz1uhScNTYcNP2/kcSaZThzbw5cL5MGHSNGjQsIkcJ3aDDICtOMRrxbj2FU8uDRt+FLP9JTyeBb1lySTWJTI8ecPDR4ChFTTgnPHXg+dpzZqcBscdPE+bO/8bz2VeHjsaHh88wHlepWo16DdgMDRsZH8AQSWF7MwYFxQJ4chbfxT//e+/jihzyCGFHVHGE/1hWnwwRem3aISzk5j2rZIf4ydOg5NOOhk6tm8Dm3/6UY4TkwskHbbiEPc/0zsoEgpq7Z5Rk2PuV80KiXWJDJ94wfuFucXQihkw06bXHbc4f4cOe8F3mRu6doMVa7ZAx6uuhXVr18C1nS+H27t1gV9//VlRlBaKn8vOJM6CTGpx/eCIot6pNZ2/X3+7UnMkFh6QHeYsGBHUSUzuax99+oXz9/xzz5LnBOnYEwf8BSEWaGw7CCUl1njP33Y9LFnYLgnGnKezYoUdWgypSEiYsrN48/WX4esli+Hqa2+AemfUD1z2P//5Dzz8yBCY8dFcZ7bMJzM/gGaNT4MhTwwSEIkljJwtP+8gOrvHIQFIgDIxXHXQH815LZvCmtWr4JNZ86Ba9Rr579ufxxZBnH/by4IawZ0jeSlT44anwsa8S5mw972lX38Fl192IZxe70yYPPVDdY6xF0Y5cgoSl0ufkpcv+SHqsiYa5AxGDW8kRuKZNQW2QJ7EqywGZkvwIzRu/vxzBzSoVwNKlCgJi75eRe0yKcwMeqivM2vm0EOLQb+HHoX2HTpT27GQETpjJnIzY9Jh+LlvSwFXdWzniDJvTZiSIcpYRKFX8Uf2fYMFE5I7B/bvwJKCzCODn3IEmgf73KPOMZYCoEFOQYj7HdYOSkhSfEk9vF6rhqiM1DsH3jkIZjaymVErJFrNLYxobg1+GJgVw8ybu1KXMD3nfwlTEOe1ugjmLvgGet/XD/75Zx/0vf8uuLT1OfDVYp9f3rVwESjMWCHCCjJ+3NGzG8z74nMYNnw0ND3r7PAVkO7jzACHQBPtA7SFCU2NjmHw2Pma6w8+usC4N149+HhFsPUQ7MbnQk0RuLUACxVMZVRWe9a9kN69lz1+M4Kj+dASzXIYmIUrxEmT3oL58+ZC+w5XQZOmzZh+CjrFTbd0h2UrNzmzZVavWgGdO7aBnt27wvbt29TmGHGyLmWKjQhhxE9gh6EnwkcHDYAXRo+Avv0Gwi3dunsu4xsZ/qIaQDyLGM+sDYWysdyXMmHFK63kJU3JmTPJS5qSM2lQEPuNBUcBQqPAEaaDyF9l0gVXORG1hR7oChD7cukmZg1gdrp6ot+3dy/UrVUBih12GCxbsVGo7dUrV8DDA/vkz5q59bY74a57HvBc1uy2U0/+jJlYzQyJTaLieXH0SEeUubnb7b6iTCBIRWaziGcR7RdWFt149aspUz+Eww4OfJICzT8HB0Io+mDsNwYcCYeWH1H7mC7KJOEqp91mqB7+/2JWNl3wDogMayiz09AT/Z09cy9hepbxEqYgqtesBW+9PQ2eGzkWSpcuA6OefxZOq1sJpkx5OyutrFk6qQeIfUSFQrESZJLEKlmxvDtlEjwyqD+0bdceHuz3cOCygRtJlLYgbdgi0hLXnbwWYlbUDz7+3Pl74fnBl3Wi6YMxaZcCcCUa2t4x235kI6Sc2iUIblAAACAASURBVDdaU8gsCKmAY8unmYicGRsYchrion1v2hT4bNZMuKRNOzinZSvRgeZz4UWXwILF3zuzZfbs2QP33dMT2l7aCr5Z+lX4yiL6XNrDVwBKPcS7FPNwx7mZ8FeZIoHRv8DkhboIk/eTSd7sN3k/meTNfmmwlzWpwhZUF7bylOQVrHy5UrBp8+/OpUyNGpziPE9/3yQ+/OA9uPWWLs5AZdQLiu8540JYf4x8xzYjwcAozUjBKJSU1LYbIWSFsuWMAIgbEXFoWfzvf/+DapWOg0KFCsGaH35N+0RuFklhZtBDfWDK5Led1xdf2hb6DxgMJUqWlOo3alhhRtziGlAT4Zo1q+C8c5pCtWo14JPP5jHbsQKNamxhsWFbJJvyJ5bKes80USZFv773whuvvwyDHh0C11zbRXc4vnD3w8h3ZDMStIKNHlCUFkUQGOErjC2rQSBsLAwh3dH9JvhgxjQYNmIMXNS6jULPudkv//47GDSwr3PvPTfrNv6mMB4zscKMuMU1Ii/SHTt2wKl1qkDJksfAt9+vFWLTCjSmYBtENVGrePLmc3/t/gt2//UX/PXXrty/u5PPk+/tcv4+P+LZrPU2bfERZgwoUKuWTWHt2tXwyaz5UKVqNd3hMMFcZgPaRwy4E7WCjV6MKLERQapATSFsuRGBoDFkhTDz4xlwe7cu0Or81jBytN6Zu++/9y70yrvPTTrrNtpfcQrCCjPiFteIvEgrnnws/Pvvv7Dhx9+gcOHCQm1bgcbCRvw6iI6M//vf/xaIKUkhZfdfga9z39uVJ7rkfpbcd7DiK854gahL7NjxB5x+SjVHzF763Rrd4UiButyI2kcNuBO2wg0OIlHqSCTBAo7EcUQREzQWm9R1rWonwoEDB2DFmi1QpEgRqTGRUKVCmaz3rDATjNgzbYsmUjeFErvXaHBGHefEatGS74WLMkl8o3bf48oeeSwZqL5lm/4O6Jcxb2R79+6FVSuXH3ysgFWrVjh/f966xZnVsvfvvzmtg/MzjUcecSQcceSRcOSRRx18HHx+RO7z3PeOhCcffyRrPSpRJgmifUZSkEneYyZ5v5nkQ/f9ZmRA3R9ldWC0hO2j9CYeGF2OFW5UQXIkQ19u3sMx+gT9YE1cbMKiR0PGNocKNPZ1Etf33tPDEWWGPDUciuaJMrY9zSNewowc/SKSXHxRS/jll5/h/Q9mwfHHl5XqK3TMju/W6RYejNv+8ApBNOe7mzf/lCvApAkxP27a6Gv7kEMOyRBQ3IJK6rXzPE94yX2v4DWJoOslzHCj+bw4eQPg62+4CV59eQy8+soYuL7LTXIdIsEKNqSQ7lP0FMIKN3jA3VMEEDtlQVTCchKNrc6mAonF/XzOLOemu2c3bwltL79SmEtC9750u+0OGP38sPzXdrZMOPG6lClFZC9pSsEXcZfrOsGsT2fCK6+Nh5bnyvuZNVbMaw8LKiLegQ4c2A8rV65wiTDLYffu3VnLHnbY4VCjZq2CR43aUPaEE5xZLocdfrj0WJM3/k3OjkleFlWnRkVo36ETTJo43vmMetYMD5L6RPLns5P1T2HqTY1lYe9lwwvOQhBFhTP02GDLT0lkC4YrMVzRmMNpdSo746hvvl/vfEEWiKIiJ++1d9H5zaBqterwwUdzqdePS19wi2fxmjGTIvIzZ9gTvLf3nY4o8+RTz6IUZZLg/r7Bgp4IdaDkrLak+LIyTYT54Yd1nsuWK3cS1KhZ2xFgaib/1qgFJ5evkLGM/JQyPaSLL8nBxGNPDnWEGRmXTgYiaeZGuiiTxMSfAZcJ88Qm3FcKKQTnfAqiqMJm3qSITVuqBceFOAahauKs8gLjmiNj+yU9/fr2dkSZ5K9BhooySWT1ZVcj3HVHN+fvM8+OZjIX14sl4inMUBJ5HSePp54cDBPeegN639sHOna6Rnc40sE5pLUYA8tRg7EzJW/Em3sPmFzxJSXE7Nz5Z9ayRYoUhZrODJja+TNhataoDcWPOCLUj/zzXT8Pue8XLvwfeGTwU/Bgn3sOPu49+HwIox9BW21sL7XBAfM+2go3LnAe7YQKOCli17ZqwXUaH0GME4BwSCm0UUSlHy76cj6MH/caNGjYBDp1vk5vMGmN8OLo4bB69Uq4uVsPqF6jphr/JjdqWu3ieSlTCsbMzStYeMSvvTIW+j14H1zXpSsMeuQJBTFFD/P6hQUdeZ3o6yWL4auvFuULMWvWrPJc/PjjT8ibAVMgxFSqVEVhwN7wbgutL2gBK5YvgxkfzYZatesKiUksPhm63k7OkHFjZ8zow/6alChwFub/2TsL+CiONow/AQottMXdg4QEhyQ4wRPcvQR3SHCHtkhxSXB3dyd40OLuFtzdCuUrX2aSHElIcra7s/L++Q27d7nbfXdmdmb2uXfekcQqdV4aEQ1UXCpCkcIQW+Jqq29F3HLh6dMnOHzsPJIn/34FJBEwT+4SRfLx+KT7D58WbY7mMLbHjI2uMNrzoInZ4i2bN3BRplLlaiTK2IFRFXtCGnbv2oHtAVuwfdsWPH8e8eGdBeINiwFjmooUvE2UKLEga2PGXoeFEaPGo2qlsujTqys2btkllVkSEs0VRno76N5zZEqXNMJ7Z06fQt58BaI5LrUKcmK134g6HU1UgDW9nXKZI0lxGS4YrbZRaFYGYQmKTBO35yTy+fwqZ8E3hg0eyEWZAYOGqEaUYXTzbc+34/xsm8JkdIztMRMZw3jQhPEVx47+jdo1K8PNvTBWr90s2iDCArRb34jwvH//PkSI4WLMVnz58q/pbwVd3YPvyUImLxgnJ+eYD6bDStGvT3csXjQPf40Yi8a/NYvwNy1e7qdPn+CUJQ3ixYuHKzceRPyjZBekxZzRPuSJIwfqyST1WAKVGUPYCxWnjOi4Xz116gTq1KyIfPkLYtXaraLNMcGmVbGYN2xaFYt5Q1gPCTMxoXOhJijoJkoWc0WmTJmx7+Bx0eYQCqOVeqonHj64j+0BW7kYc2B/YIS/lSlbHhU8K6GCVyUkTfr9FBib0HghZ86QHP/99x9u3XmKWLFiSXZcUdmyf99eNGlUGyVKlsLCJast/6LsBmu8omgQipsiCuUyU5PFpkmjCXNQsdqB3Zknfe57lHDFvbt3ELj/ONKlzyDpsW219v27d8ibyxEJfv4ZZ87flNQmI2HsqUwyEdnVTY0NIvu1nokyCRIkwL6DJyL9VY0WE1Kjtojneq11ly9dNHnGnDt7xvQ+u/e4EBMqxsiyEpFGgqCyFQWKuOfF+Uu3IrzPpjT16uHLpzSNGuMn2flEzVZggkxn3x6Y6DeGJ7ZvEbKXI83ZURqr6mC4D5stASoiMyjX80U8k3UFI6wYaSqXLpG71uu6mO3OvNADSCTwjBk1jIsyPXv1l1yUYdh6ud26hExhGj9hquqeL7QEeczYgkQ5JjLjnbOn5+LMpat3+QOiZVBVIbSLkrX3yN+HTJ4xd24Hmd5PnSYtF2I8PSuiWAkPBS2yEYUyLTphhlGjmidOnTyOdRsCkL+AqzIGyUz9utXw9+GDWL5qAwoXLmZ6X/uOMdRHqBUSdIzJ98Wqs4LW2eUQIVCxRs3lSxdQ2asUcjjnxOZteyP+UfFM+3bCTRvXwrdzW1SpWhN+E6crbYgKsV2aImFGSiTOSbkKpnjRAvxh8cChk8iQMZMMZ6AqReiTmGr2joCtCAj1jHn96pXpfbZUYJhnTO48eeU3UkkkutVjEmbYkoue5UogRw4XBOzcL80JVUDYNK2gO0/hIOE0LYYKPa+VPgFhJxaXEBWloTBf3DqtEDq9LKOh9WL0LFcM169dDR4LHUTWbNlFm2MiW+aUfDxz7eZjSaedG5E4Wph2oxkkXpYnusPZU0a9e/pyUWbkaD+ZRBkGxckn9En4mv3mzWsEbNti8oz5+vVb/SxUuKjJMyb8faa7GqzADBgmyDRr0Rrz5szEvLkz0ax5a9sPpiK27zqAcqWLonzZ4ti555Ckx7a1BbZ6NaJoD2AOjcyxMzAWV4FIHyRBR9+Yrxf2jf9UK/yInptB94skaHmmXs/unbgoM3rsJFWJMt27duCizNgJUxArNoky9uJwLxqPGWoDVISFhWHuY+vXrUbnjq1RvUZtTJw8026ztAvVbsI27t69w5ezZp4xbCpKeCp4VgwVYyohYaJEkp5X7zXW5DFz8XuPmTCyZ0mLT5/+wdUb9xEv3o8KWicfWzZvQPu2zVG5SnVMmTZHtDmSodwqRXq/M4wHCTuEklhejQxY4Qx4yWohctZPn+qPUSOGoG17H/TqM1CITVERuHcXWjRtAI9SZTFn/jLR5uiCaIWZMOi+1BAxFBZb675Avhx8rfsTpy8rZ5OuoLvBiFy7dhUb169BQMBWXLp43vT+r78mhKdXaPBez4pwcBD9k9r3aKXGxjSVKYw1q1egq0971KpdD+P9piponbxMGDcK48eNRJduvdC1W2/R5qgC6R/OtXInEFJBS5gTWkK1nkJKYoBLtIWdO7ahTasmKFfeCzNmLZT8+PZke4G82fjU/ZNnrkn+g6RRMbsMCE110hAxPBc2qFeDb5etXEfrb9iMlp0gCWs5eGAfZkyfjD27d5reS58+A19BiXnFFC5SLIZvqwN7a6yaaigTZJYtWcgFmoaNveFeqIj5L6npAqKBCTJXr17mAk327Dm494zRsXUaTRjfF7uZI373BQ1UHCJGrG77LK5LdkJVi4gCuaeIWcpXkRWUlo76jlu3bnBRJnPmLLKIMgxbs/2PQX24KPPH4BFIRKKMZJj1mDGHBuu54Rg0oDfmzpmJIUNH8lgNNmOmsKkuqA0qEVtgD/4zp0/BhQvn+Ots2bKjavVaXIxxdskp2DptYq4mWuIxw7h54zpKlywExyxZsWffEekMDEPgLVOuTFFcu3oFO3cfQrbsTuIMIUxY7pBDbS1hHQIXUCEIFfA13P86Q8KLyuaYCv/73/9w7eYjxI4dW7oD28nJk8dQp2YlFCjohlVrtog2R1eY9ZgxB4XwUzfbtm7mooxXxcr2iTIMM4VtteoaTeWgOiMV6ptaEzPiSp51fEyMYR4yz5495e8VK14Sbdp2ROky5YTZpRfM1USHSNvoyJIlK9q064gZ0yYHl9dktA4uH0mROIC7NezYdRCZ0idD+bLFEHT3mXQHJmzGcs8dyyvO16heUadnOBR3DhA9HKA6TkTAIdz/UqGSxeEluiiv8iX52HTbjn2IHccCUUbBi+3q045vx/tNU+6kBsFujxlboTZaftiv0C5OmfDLL7/i4pUg0eboFqrL2uXhgweYMX0SZs/81rmwKTPsgT9nztyh71AJyw1rqwq758UFMx4zYeTMkZl/58LloOD27RfJ7RG1WvTVK5e5MOPk5MxXbSKI6Ih69hW1VYQ6UH1NVL2BhPpQTvjp1L4lXxxg0tTZqFS5mkxnsY2xo//C5Inj0b1nP3Ts3FW0Od8jZaEIELRj8ZPGlGRCwVMZlvp1Q+LKLF+5TrAl+sbcLURJfff56VMn0bFdSxRyzcVFGeYi2q6DD06evYIJE6chZ67c4Yx2sD/pJufUwcjR4/m2d88ushxf9nsgmj9kz5EDCxavxJUrl+D9W12qAkS0fFd9eFPjYHeiCkdIgehxhtmaLNog6vY1yPcFJMe/CWNHclGma/c+qFRZXTHn2HLdTJTJms1JnaIMQ+P3n/kFxxU0WkX5onmGDfkd586eRv+BfyJ3nnyizSEIEyLHOGyp6zo1K6Na5XLYuGEtUqdJg9///Au37j5FvwF/IFmy5Cq+aBodhlGlag0UL+GBTRvX4cD+QNHmWE1MOV2qVBmM95uCwL270c23w3dVwCa9jyAsJGIds1/oiVrwocpKKIvI3tOu2i7aQLo1FWXjhjXw9xuDqtVqwce3R2jWK/PPkkrQJXQK0wT/aTF8To8od6PZHWPGbBlI4FJkaTGTZ2IIe/fswrSpE1GqdDm0a99ZtDkEIZyFC+bwuCRBQSFTZfLlL8Djx1StVlOS4yvW9kjV51ltsNydrUOkbXR8M3zk6AkoVjg/evfqioOHT8pmmQhq16mPZ0+fYtjQ35EseXL0H/BnlJ+zuFSsLD5apIiQGsvD8NjX1igfh5luDsJ21PQYa7Ymq8lYhs5uvYsXz8OnUxu4uOSC/6QZip/fXPGyaf8XL5wLHjt3CjfV35YjETHhcO+hmBgzJgScXWf3cgQ+f/6MLJlSIW7cuLgR9Ei0OQQhjDdv3vBgvjOmTcLHjx/5e55elbggY9FSywJRfRslsYEhMWby4MKlIKu+N2rEEEyaOB69+gxEJ1ncasWWBPN8nB5cf5nnY9t2nYTaYg9fv9shCH2iPVFT9QYSOkezNVBCw9mzm1PWNPzZ7cr1B9IdWCIeP36Ewm65kDJlKvx97Lxoc3RNHOHKlgIeN9aeMuKptdVkNKgXEldm2QqKK0MYEzYHlgkyS5csNL3XxLsFX80nU6bMAi2zHLlaZclaM3sNlMgQJsgsWbKACzSNGnkjSdKk0hzYhNz9Y8wZwQQZtkoYE2jYNDvmSaNFHL7bkRZarZpQC99VcYWH2FbfCl+N9us2NRZqQ6kaKHnJS2h4+TJF+XbHnkPWH1eBKt3Fpy3fTvCfLv/JDI79U5nkJqYKKnNldDBrQGSiXAhTMcaOHo5jR/9G95594eZeWOGzE4RYDh7YxwWZ3bt28Ne//vord7lkgsxPP/0k2Dp1IPUAyOY2LjpDbJi3OnLUBLRu2QS9e3XBzNkLo/+OKjF/weP9pvJpTV19OyB58hQo6VHGguMa6+HDitWqbeNrjC8JQjVYfSvIJZbKc1gJDqx1IYpaH1sRXfLRlVzLZg1x504QZs9bigwZMll/YJkvbNmSBfj78EE0bOSNwkWLyXsyKdD4qkwO9x6+NN5drports6QmD59+NBB1KtTFUWKFseKVRvsM4sgNMSa1Su4IHPh/Dn+Omu27GjbtiMaNGoi2DLCUt6+eYNC7nlw8XJQlH8311K2bNYYO7ZvDR7YLEH5Cl7mT6iaPsByvCp48Pnd27YHwiXG+d1SosGM0jIxZDeVBEHYj2ruI9UYYi2aNVyV/DX0dz5+7TfgTz7NXgmsKcEPHz4gp1MGxI8fHxeu3JHNJuIbxhRmbEV4TkVvQIZ0yfDff//hzr1niBXL/GJb8lhBEMrA6joL5suCkT19+pS/V6x4Sd6xlSlbXrB1hLWYE2YsIX8eJz7t59TZKzavrmVx2yaoESxfphhfSnvn7kPI7pRDjBF2Qb2HcCQqAipJgpAfVd1nihqjqiuXhRXLF6NXD1/Ua9AYo0b7iTYnStq0bILt27dixuyFqFChomhzDIH6pzKpCeETIaM2oGH9mvxBdenytYgVK7YlB7IL0e6ASqP/7kFbjBs7EuODUxi1atfjgkzOXEp5ERBqZMPmHShaKB+qVS6PQ0dO23QMhRaOsTkY7o7dB1GudFGUK1MUO/ccQvbsWhNnhHeihERFYPNhZCoaKnF5yJguKW7fey7aDMOiqvG2GWOkvQctuHLJTqh863HyxDEuyhQs6KZaUWbzpvVclKlcpTqJMgpCHjMaZ5L/eIwYPhidfLqhT9+BEh+dqgahHnbt3I5ePbvg8aNH3CusbbuOaNOuE19OWFboNpAdKTxmGBvWr0HH9q1QrXotTJ46SxrjVEjZUkVw9eoV7Np7GNmzO337QzR1laqwUlBOax47i1BvNYCEGUJrKH4PWnnC169fIW+uLEiYMCHOnL8hj012EhR0E6VKuCNTZkfs3XdUtDmGgjxmNMypk8e5KJO/gKsMogxD7IokBMF4/vwZevXogoBtW/jr7j36oGv3XsoZYMNtYHfNplvDJpggc+rkCcyaOTW4XSyIVq3bizZJFpggU6ZUES7Q7A48jGzZQsWZaOqq3S25jfXReNVYVb9vw4glYDd2FqFqawBVBcIgKH4PWulJVC50Baadew5LG7lewnu8sldpvt28da90B9U10pWjw30zHjPUlquX7FnS8sBMV2/c54GZCLVCd5GtTPQbh5EjhvL9suUqYNToCUiZKpVgq9SP2RqnsioplcdMGDWqeeLE8WNYtyEABV3dJDmmGintUZgvD78n8G8e9Fo3yFw/VVb9DQ6VhtrIkDZptH+7c1+s98xXqi6EhmlYrwYOHdqPZSvWoUjREqLN4US+perVroKjRw5jxZpNcHcvIsQmI2PWY0YqDYjaUmlp5t2QizLzFiwlUUb1qO03NPWzL3APn7Z07+4dJE2WjM/B9fSqJNHR9d8ama1xMldJ0YNnJshkTJeMCzS3FQiILgomyJQuWZgLNNNnzkOlytVEmyQNMtdPqw+vYH3Wf+sUGaP0j9op2fDiCxNpRIsx4ZHSwUAoNO3UcAzs34uLMkOHjVaNKMMIf0v9MagvF2X+GDwchUiUEYJiU5nkbEuN1pDNnDEFO3dsQ+s2HVCuvAVLwxKERnjz5jWftrRp4zr+urNvd/TuM0Dis+hlZCcH0rSm1g6ewz5v9ntWmLdx0w5UrlQW1apUwKYtO60zSEPs2fc336ZPkwQLF69AqdLlBFukQxRsMsyeSiUDHpWYoSG03O9IaTvVHI5c004FQtPmomf+3JlYMH82mjZvjSZNW4g2J0pWrliCuXNmoG69Rmjeoo1ocwyL2alMxDfUkFEXL55HhbIl4OKSC9t37RdtDkFIxrQpEzF0yCC+X9KjNJ+2lC59BsFWEUrApjK5u+XGpSu3LfyGZa3x3DkzMbB/7+BBRmsMGTbS/BckbuSV7DMqe5XB2bOnMcFvKmrXra/gmQlDo4aBURSo1CzNkSFtEty5/0K0GQaCaq5ciJriffBAIBo1qIVixT2wZNkaeU5iJxcvnEdFTw+45MyNrQF7RZtjaBzuP5JJmKG2RRZyuWTBy5cvcP7iDSROnCTC3yjLCS1y+PBB9O7hi5s3b+DXXxNi1JgJqFK1hmizCAWxXpixHJ9ObbFm9Qr4T5rOl1aXFzOtsMyNdJPG9bBnz04MHDQEbdp1lPdkBKFHNDaQ0pi5hG6gmmcJjx89hFvBXEiVKjWOnjgf4W8256AMWZ8pfTJ8/foVQXefwUE38wW1iXxTmUSWq07bi7ZtmnNRZvqMud+JMgy6lQgt8fHjR/Tq4Ys1a1by1+07dMaAgYMVtUGnTQURDibIsJWamEDDVrDLnNlRxrOZaYUlb6Qj1uCFS1agi08HDBk8kK9m1q//71Kf0Cro/iI0h8YGUmqOlyQHGjdfR6jxRlFf7WCrJzLYSoqRsTkHJc76Sl6luSizZdsexIol3cHVVxraQJ/LZauxvWDYUUsXLpjD4254e7cgbwJC88yeNQ2DBvbl+0WKFMOoMX5wdMyiuB1qbSqshTrAmNm4eQdyuTiiauVyOH/xpmhzJOT7GjzBfyqSJk2GKZP9uDgzdvwk+c2IJtqzWu8vul8Iw6LWm9JCFDNfZY2EysxRKeqq3AXyOuHt27dYv3E7fvnlV6ixFHt298H5c2cxeqw/cuXOI+mx1VUa2kGfwoxasbGW3rxxHX16d4djlqwYPmqstDYRhIIcP36UB/e9cvkSfvrpJy7I1KpdV7RZ2iW0n1dbB6i24UeixImxYPEKeDeuB+/f6mHBohWiTZKVgb8P4eLMX8P+4OLMvAXL5D2h6lyfv0bYREZt1saE2u4lgjAEKmskVGZOCFY2TkZqyzq2b4lnz55Gis+krlKcN3cmli9bjGbNW6N+g98s+IaRStBW7C9jfa4hqjPq1anOtytWrRdsCUHYxpcvX9CtSydUr+LJRZlWrdvh+q0HJMrYi4M6kwpM+K57LFOmPLp2743du3Zg/FgLAgFrnA6dfLm3zM4dASjjYbRlL8MqoloTLE42fEXXiSAIlWDlzSu82bWxGbaWJo3rYuOGtRg+cpxd2Ssnx48dwaABveHmVgiDh1o6HhLd+msh2Y98wX8JSfDt3B6rVi6D38SpqFO3gWhzCMJqFsybg759uvN9V1d3jBo7AU5OzoKtItQED/7rmhuXrt6270AW9GaNG9XB3j27sHjJKpQqXda+81mIyE6WCTPNvBvwgH57Av9G1mzZBVpDaJ+vMb4kxEDFQBDiqV6lAk6ePI4p02ajarWa8pzExps97GsfP36AU9Z0+Cl+fFy5dk8yswhpcHjw6JXq2nPVGSQZ1l3ZiuVL0NW3I+rVb4TxfpNlsokg5OHsmdPo2cOXz1+NEycOX22pfoPGos0iVIhkwoyFuDhlwuvXr3HxShASJkxo/wFV3mlduXrZ5DUzc/YCVKxUVbBFBEFESTTxmgjLoNwjRFG6ZCFcv34Ni5ashEcpZX70sQWP4u64efM6Ag8chaNjVtHmEJFQpTBjVMIXxMMHD+BawAWp06TB8ZMXhdlkNKRxRCN69eyCRQvn8f2mzVpi+Ag5YyPZ3oRR46cOlBZmbty4jpLF3JAlS1bsO3hMkXPKghUVmK26UNqjMK5du4pevfvDt0sP+eyyEroPCYIQivBGSLgBKrBAuxTM54wnTx5j/abtKFDAVbQ50dKhXUs+zUpWjx7CLijGjIoIP0utd/CDLWPU6AnCZ8wZKRH2sWTJQqRNnYSLMnnz5sf2HftkFmUYtpe43v7RnWIZTJBh00OZQMOmi2oWK4rMIZYD9u4/gkqVq2LUyGHo1LG1aqqB6HZfRCIIQkWIbhCEB1xx4NNd7UoW/dNXm/v58ydkc0zDRZk9+46oWpSZMsmPizIs/hyJMuoljt21lSRWyQnYtgW7dm2Hp1cllC1bQbQ5BGERdWtXxcGD+/k+ExR/a9Ls+w8Z5YlEULuoXPZKfSaHSFu5+cpjdp08eQLz587ig6mmzVsqdG6xsKlMTJjxGz8GV69eQcCOQD6otgm1388qHp+oPevUioqLlCCMjUWNmriWz+yZzTYuET/w7OlT5MvrxPdPnr6EFClS2mqaJMRkfuDepweyTgAAIABJREFU3Rj+15/wKFUGffv9rphNhPU4PHhMU5nURt5c2fH06ROcOX8VyZOnEG0OQcTIpUsXUKViOXz8+BGNGntj9Fg/2x/0CG0gca/xhk9lyoXLV+9Ie2AL8PIsxeMhbdu+F3ny5LPoO9Jdvrjud+2aVejUoTXfX7NuMwoVLirMFsIGaORG2ABVG4Kwn5tsOnRxN8SNG4/Hqvvxxx9Fm/SNSDf5s2fPkC9PNiRLlhynz141/wVCKDSVSWWMHvUXF2V69upHogyhehYvmo+ypYpxUWbl6o0YM86fRBkjIJefsQAf5U2bd/JtlUrlLP6OdJctbipbzVp1sX3nfn6/1qpRGRP91Lu0JxEFIucEULI9CUb05VPSRTUyNKdPneCiTLLkyXHz9iN1iTKMSJXFq0JJ/va2HYHRVCgHSipKJMyoiIcPH2D82FFInToNunbvJdocgoiRHt180LO7L5ydc+JG0EMUK15CtEmEUbFjhBvnhzhYv3Ebvnz5gurVvGw7jkqw1uxcuXLj/sOX3FtmxPAhaNKoHtQdC4kgNI491Z+S/EkjiM4mNSYl2Be4h/+I45glazTeJ+qimXcDPHr0EPMWLkOqVKlFm0NYQCzRN5JWbkYl6N2jK9+OHDNBsCXGRXRd1kL6+OEDyngUxZLFC9D4t6bYvfcg4v/0k3C79JwIeXFzL4zf/xyGY0f/xp+/97f+ABqvIGvXbYGPb3fs3r0D2bKkw4Xz5+w/aAzYfqn6+aeKgicIIiKi23IjJJmQ2+xNG9ehUYNayJ+/IPYfOKb6bGMzMHbuCEDPXv1RrpynDUcgRODwkGLMqIKAgK1o5t0Qnp4VMW/BUtHmEESUHNi/D3XrVOP7Y8dNRKPGTQRbRGiZsM6Hx5gpmAuXrykfYyY8bds0x8b1azFs+Cg0b9FGqC0i2L17J35rWIfvD/1rFFq0tDEPaFRBqBT9Vk39XhlBiIZN2+/Vows8SpXGkmVrov6Qim7BLVs2onVLb1SqVJUH/Ce0AwkzKiFvbie+3NqZc1eER/YmiKjw9xuH4X8NRvz4CbB5607kyOEs2iTrkfHXmghQq2oVTJhxK5gLVwQLM2GkTpkIR46dQYYMGaP8u56L9/37d6hRrSL3mqlWvSamzZgr2iTto+cKQxCE1Ri3SdDelU+dMhFDBw9C1Wo1NNEf3rlzG0Xc8/Hxy+Gjp0Wb8w3tFb0QKMaMChg9ajgXZXr26kuijFoQ7eqpstSsaSMuyhQvURI3gu4jh7OzcJsU8QW1FdHXqZd8FAQb0BRyy8sHOFEhOvvlLJ4ECX7Gjl37ubfMhvVr4ZgxNZ9XT9iB6ApBST2JICC+GopLap0WGnUaOXwoF2XYtP1pM+aZ+bw68CznwbcBOwMFWxIJ8ZVPE8nh4RMpPGbUUyG1BgvKlD9PDh6U6dTZy6LNIYgI3L1zB5UrluUrhfl06Y6+/QaJNonQJDF3M9xjpkAuXLkusceMHb1bmDATk+eM3mHCDJvexWBCzbC/RslyHvohjSAIIhzUKAqnX9+emDd3Jtp38MHAQYNFm2NRlahbqwoOHTqAlWs2oWjR4gIsIOwlljQSD2Ervbp34dtRY/0EW0KoCRWItli/bjXcXXNzUWb+gqXo12+QcJuMmrSPpVcpcc7ZsWThkeNnw3nO3Al9X3oT1VzAbCrTrdsPUdKjNObMngG3grlx4YL0gYFF319aSARBGAjRDY4ekxV06tiGizJ9+g5UhSjDMHd5f/7ej4syf/z5F4oVLS5DFtI/Rf49fPL6OwlMa4MArWp42wO2ommTBqjgWRHzFy4TbQ5Ha2VPyMOggX0xY/oUpM+QAVu27kLy5ClEm0ToGOYx41ogJ65ev8tfq6lNL+SWB3duh3rOZMwk2pxokD/HmDDTv28vvt+zVz90695L9nMSBEGoATX1SYS8eP9Wn69m9NfwMWjWopVocyyiX58emDd3FurUbQD/SdOi/hBVYk3g8CgKYYZQBhbw9/HjRzzgb8qUqUSbQxCcKpXK4/jxo6hRozamzZgj2hzCAEQWZtSGO/OauR2Eo2bEGb13pvfv3UVT74Y8MHDevPkxb+FSPg3XdnSSYzq5DIIgCK0iRTNco5oXjh75G5OmzECt2vUkOKL8MO/29m1b4sHjV6JNISSAgv8KYszo4VyU6dGzL4kyhCo4feok0qRKzEWZwUOG61OUEe1Kq6ArLiEdYYJMmEATHaKrh9zVKG269Ni5+wC6de+NM2dO8fho48faE3dGdE5IlOyYMicmic8yShIngjA49t5CZTyKclFm4aLlqF27nvBb2pK0fm2IKFO9Ri3J8pEQC3nMCODxo0fIm8cJKVOlwpmzV0SbQ0SFwQY6s2exaQo9+f6mLTvg6uYu2CLCSHCPmfw5cfWGlR4zCvdeYcIMm9aUUbXTmpSBCTNNmzTkAewzZXaE/8SpcHcvLNosDg1qCIIgtMrXCBslKBg8/njw4D7Wb9gG90Lq6MfMsXbtKnRo14p7t0+dPlu0OYREaFuY0ejDM5u/uD1gGxYsXo4KFbxEm0OoGCWqeMf2rbFq1Qrkz18AW7btQqxY5EindbTWqNsszAigkGte3GbizHEbxBmtFYwFjBo5DONCvWaaNGmG0RTIniAIlaLDJpiwg//973/IkS0D3r17hz37DiNHDhfRJsESYWrtmlXo0L4VatSsjanTSJTREw6PnmpYmNEgO7ZvQ5PG9VG+ghcWLl4u2hyL0agGRsTAyxcvUNGrLG7duomWrdrir+HyLIVLEOZgwgz7xeqaRMKM3J2aXeKMlrAwI4OC2xCfzu1x9OjfiBcvHvwnTiPXaoIgCEI40XVjL1++gItTZr5/4vRFpEmTVjmj7GDN6pXo2L4VataqgymGEmXsHNlpRO2IUpihh3D5YAF/Hz0KCfibKhXFljEe6ri7du4MQOOGdfn+lKkzUbtOfcEWEcYiYrcjtTCjBO6h4sxRGcQZjYwfvmPRgnno0d2X75ctVx5jx0+0MziwRtBqgREEQRiQSxcvoHSpoogdOzauXLuDn3/+WbRJFrF69Qru5V6rVl1MmTbLqu9SN6UNYlEMMeUYM3oEF2VYwN+QwarosFGUlE/iYVMPmCiTJEkS/H30NIkyhACiuzdE35+Wp6PHz3JBJkSguR3FtUibO1pITbyb4c69J6hRoxZ27dyBfLlzYNiQ3+3OD9UjOuMpUaJESVTSGDOmT+GiTOLESXD/4QvtiDKrQkWZ2taLMgzR1YSShenx0zckoikAW4EpT67sfAWms+evijaH0AoSd3r169bE3j27UK68JxYvXSntwQlCblTYW7m75gn1nDmro2lN9mf0rl070K1LZx4c+Mcff8Swv0bhtyZNJbCNIAjCNlTYhRAK0qRxPezYHgBnl5zYE3hI3pNJWNlWrVqOTh3a8NWiJk+dKd2BCdVBwoxCsIC/AQFbsWDRcnh6VhRtjnxoUD1XE3JmX+6c2blA2LtPf3Tv0VvGMxFEzOit0+HiTFCoOJMpU/Qf1NuFW8BE//EYGuo1k8PZBcOGjUTxEh6CrZIbAxY0QZiggaD0UJtiDyz+Wd3a1fHPP/+gbbsOGDxkuNnvqCXHV60MFWXq6EyUUUsGqwxtCzMaaftZwN/fGtXjAX8XLVkh2hyr0EgWE2YIE2VWrFyLUqXLijaHIHSHW6g4c+z4GWTIlFm0OfJg42iBDYb79+uFRQvn8ddeFStj6LCRSJ8+g3S2EQRBEEQkxo4ZyafwMxYtWYny5T2tPIK4x+SVK5ahU8e2qFO3PiZPmSHMDoZ2xQJt4fD4mfzCjNEf7lnA34cPH+IsC/ib2gCBEAlVESbKnLtwlU+lIwhCHtxMnjNnkElH4oxUg4TLly5iQL/e2L8/kL9u174Tevbui59//kWiM6gcGtkSBEEowpd//0Wd2tVw+PBBuLsXxsrVG/i0Wq2wYsVSdO7YFnXrNsAkRUQZ6qDUQJTBf6VORoYF/GWiTI+efUiUIRSHRBlCC7BVmbI6phNtht0cO36WCzIsIHBQ0C3R5kiGVGMBZ2cXrF67EQsWLuXeMtOmTkKWTGkx+I+B+PzpH/FB9+RODuaTeCMpWZssKVdKlNSQRN8rSqXdu3cibZqkXJTp3rM3Nm7Zjh9/+tG24wlgxfJQUaaeUqIMQwUFRwkOTxTwmDEqT548Ri6XbEiRIiXOX7wm2hxCz0TReeR2CRVlLmpflBHUNxoepToHJswUyOuC67fuWfYFlfdaYcKM3jxnpIYJM6NGDse7d2/56y5de6BP3wGIFSuWYMsIgiAILfLH7wMwZbI/fvjhB6xaswFFihQTao+1w5Xly5bAp1M71KvfEBMnT5fFJrtQ+fhL65AwIyPevzXAtm1bsGDRMnh5VRJtjjrR2BO35eaKvTAmCDJRhgmCWhdlCP3DhJn8eZ1x49Z90aZE4GsUe5biXjBUnDlhgThj8F548iQ/jBg+DJ8+/cNf9+zVlyeCIAiCsISXL1+iTq2qOHfuLMqULYdly9eINslqli1bDJ9O7VG/fiNMnDxNtDmyYvBhT7SQMCMVkZ7Dd+4IQKMGdXmQqcXL1LQssUO4/wk9QqIMoTXUKszYi1vBPFycOXbirCo9Z75KPTSy83ATxo/ByBHD8L///Q+xY8fmK8h19unK9wmCIAgiKjasX4tWLZvy/T/+HIoOHX0EW2Q9y5Yuhk/n9qjfoBEmTtK3KENEj8OT51oM/qt+WSEPC/j74AEP+Js6TRrR5hAGgUQZglAXahdn1MjoUX/xKU5hsCDBHTv5IFUqaeK0yf9rFP3epU8sG3uqf4RKEMphe2to2Td7dO+CBfPmIHHixFi1diNy584jtSGys3TpIvh27oAGDRrDf9JU0eYQAnF4+vytiquqNmFLs40YPhQ9evZG7z4DRJtDGAQSZbSDpQN3apz1QZg4w4LeVqxURbQ5moB5zYwcMRT+fuP5PqN2nXpcoMmdO69g6wiCIAiR3L17B7VrVsWtWzdRvXpNzJqzQLRJNrFkyUIuyjRs+FuMoow9U6stggacqoCEGYl5+uQJXJyzIHmKFLh46YZocwidEvnBPmeoKHPhEokyBGHia4wvFSVMnPHt0g0DBv4p0BLtwYIET57kj0ePHvLXJUuWQsdOvjyOAEEQBGEsFi9egC4+Hfn+mHF+aNq0hWCLbGPJ4oXw9emAho1+g/9E8pSxB8mnZltvgCSQMCMxLODv1q2becDfihUrizZHM3znQUC+wBaT05lEGYLQAt6/NcSWLZtQvHhJrNuw2fYDmem19dqpr161ggs0586d4a/Z8ttMoGFz8gmCIAj9065NC6xevRLp02fA6rUbkTmzo2iTbCJMXGrUqAn8Jk4RbQ6hEkiYkZA9e3ahXp0aKF2mLFasXBf1hywUHEiXICyBRBlCD7Dgv/nyOONmkL6C/0aF34RxGDL4d/z000/Ytn03cubMJdokzbEvcC8mTfLD7l07+es4ceLwX0y9m7WAi0tOwdYRRkfy8RsNCAkCly5eRK2aVfD06VM0/s0bfn6To/ycFh5qFy9agC6+HdGocRP4+ZMoQ3xDEmHG4bsdY1K9WiUcPLAf6zdsQbHiJUSbQ+gcdYsyBm8MCKsIEWZy4GbQA9GmhCLv0O7AgX2oUS3Eo3LceH94N20u6/n0yqVLFzF5oh+WLVties/NzR1Nm7VAg4aNBVpGEARBSMX0aVPQv1/vkP0Zc1C7Tl3BFtnOooXz0cW3U4i45B+1uCQJBvWs1ToOz16Qx4wUHD92FF6eZfmgcGvALtHmGABjP/jndM4aKspcV0SUMWxuG+3CBfUGTJjJmycHblkozOih0/r48SO8KpTGhQvnQwdoSv5qpocc/MaXL18wf94czJ8/FxeD85MRN148NG3anIs0OXI4C7aQIAiCsIXGDeshIGArnF1csGbtJiRPnly0STazcOF8dPXthN+C+/wJcooyxPfYOOxRerREwoxE/Na4PrZt3YJFS5bDy6uSAmc02hOjtGg591xCRZmLl5URZQhCbrgwkzsHbt1Wi8dMNMjQW3bt2hkL5s/l4sH2HXuQIMHPIszQDceOHcWCebOxdOli03v58hdA7dp1+apOKVKkVMAKKqGo0XLPSxCEkhw7eoRPXWI/YrRt1xHD/hop2iS7WLhgLrp26YzfmjTFBL9Jos0hVIrKhRltdOKXL19C8aJufGB94NAx0eZYhWpyWDWGqBuXHCTKEPpDM8KMTLD55j6dO/D9Nes2wsOjtBhDVDYasMecz58/hXjRBCfWR4dRooQHanGRpi7ix09gv5EEEQoNYwRDBaAOJOhHxowZieF/DeH7S5auhKdnRfsPKhG2XF6H9q2xYvlSNPFuhvET9CrKqGwAoVEcnr14Z5iclKvNbte2FVauXIZp02ehbt0GYo0hdAuJMoReMboww2DiQYVypfH+/Tv0H/A7unXvKdok3XD61EmsXrUSq1avwJPHj03vs5UTmUBTs1YdgdaFQ6+jMRrvEARhAWxaaq0aVXDw4AG4uxfCmnWbeKB8rfL582eULlUMly9dgndTO0UZlfYPKjVLA0Sdcw7P5RRmDNAZ379/D3ly5UDatOlw9vxl0eYQOsVooowBmg4iHK9JmDFRq0ZVBAbu4VNiFy9dIdoc3bF//z6+7DYTaj58eM/fixUrFipXrgpPr4rBqRKSJEki2EqCIAhjsWN7ABrUr833e/Tsjb79Bgq2yD6OHz8Kz/Jl+P7UaTNRr35DwRZpHJUrQFKZ5/D8pXE8ZuSgZ4+umDN7JkaPGY8WLVuLNocQhJxCgnOoKHPJIKKMTZCSo2nevH6DPLlzIIiEGc7QoYMxbuwoJEuWnMedyZgpk2iTdMnWrZu5QLN2zaoI77NfaplAw4QaZ2cXQdYRBEHon2vXrqJfn17YvXsn4sSJw71kihUrLtosu2DPhez5MG7cuNiz9yByOFMAesIySJixgzdvXiNzxrT49deEuHX7vmhzVAE9H5vBygxydgoVZa7oRZShGkJ8D5vKlCeXE4LuPBRsiaDuMIrTbtu2BY0a1uP7M2fN5cFr9YZaBh///fcfNm/eiIBtW4PTFrx48cL0t4wZM5pEGhb7x8GB2jAiIlQjCMJ6/v33X/Tt24uLGIzyFTyxfPlqwVbZj69vJyxcMA+ubu7Yvn232c+rpR8k1AEJM3Yw+M9B8JswDoN+HwzfLt1i/KxhO25hF679HHd2yhIqytzQiShDEFGjHmFGXTx79hTly5XC7aAgtG3XAcNHjJboyCrp9lViRmSOHj3CBZpt27bi0qWLEf5WrHgJFA9OJYqXRFGN/6pLWIn2hxUqhTLWaEye5IeBA/rx/WzZsmP4yNEoU6acQmeXr+Mp7VEcZ86cRsuWrTF67HilTqtJKDuiRlZhRs9N7dev/yFpkl/53PRnz9+Y/4JqMkM1hhBmSJIoAYkyEkO1Xxms7VRImImZ1q2a87gorq5u2L5zr2hzDMXt20Hck4Z5MAXu3RPc93+r3az/L168JIqXKMG3hYsUFWgpQRCEutm8aSP69umJe/fu4ocffuA/NughDMTZs2dQ2qMY7x/8/Cfz1ZfUh2ApxOBKjKWX7/BCTo8ZTT0FWWfsuLGjMXTIH3zljAED/5DHJMJwsFrolN0RT548xoGDfyNnztyiTSII2WHCTO5cTritc2HGns52+rQpfEDL2LFzLwq6ukljFGEVBw/sx4ED+3Bg/z6+ckh4WHwEN/dCyJ+/QGgqCMcsWQRZShCEmlDTI5HSz8gXLpzn/RdrNxkdO/liyNC/FLZCHhYtnA+fzh34/p7Ag8ibN59gi4yOShUgC81yePEqJmFGTc2IusiQLiXevXuHu/ceI8HPP4s2R/NQTQuhcaP62LJlExYvWY5KlaqINsd+qGAJC+DCTE4n3L4rszCj0v7aUo4fP8anNjHYL43t2nUQa1A0aDybLYbFpjnAhJrghw0m1vx9+NB3n0mYMCHyhYo0XKwpUADp0qUXYC0hFdStEYRlsJXv+vTuiYUL5/PXlatUxYjgvksvbWDPHt0wa9Z05MmTF4GBB4MbB+VaB6P0s0YjDnUx1jNzxjQuyrRu005xUYZKS2EUzPDx48ZwUaZrtx6oVFkHogxBqA2NN6Cubm54+fo9ypctxX99PHH8GGbOnmv+iwqP4DSezRYTO1YseJT04Inx5csXHDt6BKdOnQxNJ3Djxg0+BYqlMBIlSozs2bMHJ6cIKbOjo6hLIYyAUW5MQhWMGzsGQwb/zvdz5syFESNHo3iJkoKtsgIz/WaFCmV4e9+kSVP4T5yijE3h0PvtbFThyeHFq/eavXZRldLFOSsePnzIly9OlSq1ICsEofeWQBD79wWiWtVKKBk8wF+/cYtocwg70dptIroTUMxjRkf07d0T06ZNQaZMmbFj1x6+tDahMBbcOK9fvzaJNHx78iSPrxAVLOZCtnCCTerUaZA2bbrglBbpgre/Jkwo8QUojNYaRoIgrGbtmtXcS4ZNyY8fPwEXZJp4NxVtlmRcvnwJpUoWw6dPnzB6zHi0at1GtEnKInrAqFEsjjHzUsPCjAiWLl2MDu3boGHDxpgydQYNNAi7+fDhA9KmTh7cgcXH/YdPJTmmfqqlfq6EiB4mzOTK6YQ7igkz0nR7ojvPVatWoHXL5nx/6fKV8PKqJNgiwhJevXqJq1ev4uqVK8Hbb+nWzZsxfu+XX34xCTV8my4dkiRJwj1wEiVKhESJQ7fBrxMHb2PHiWORPYkTJjDtM48sgiCih0YlUcOEZybIHDnyN3/NYnAOGvSH6e+i+0spWLF8Gdq2acn3t+/YzWOKETpFUIWVVpgxQGvl7pYf14IHVEePneK/bBHqwP6qJ67yFi3ihosXL+DQ4WNwcckpzA6CEIXywox+CAq6hXJlS/GltWvXrstXhPjZ7BRb+7p9PQyw1ciXL//i6pWrJqHm4YMHuH//XnC6z7fM+8YamJDDRJoECRLgh7g/IO4PcblXTty4bBuXv7dt6/cemiTOWIZ2hrzasZTQHkxoZoLMsmVL+OuatWpj5MgxSJEipWDLpKV/vz6YPNkfOXI4I3DfIcSLF0/iM+jjByPCPuJQe205mzZt4KJMlSrVNCvKWF7cVDGUwMenIxdl/IMfpoSIMlTMhBpwiLTVGgJHQmwq0/Ubt9Ggfh2sXr2Sp2HDRqBjJ58YvmVfRmu1mNTOD3Hi8lgMLEXF27dvQ4WaULHm3j28ePE8+MHoFV4GPxy9evmKPySFpFf88yxZiwOVMKFHqFpLzojhw3hisODmI0aNQaFChWP+kgaVgyqVvXiA93r1G2LGjNkynUWaCiqumstbsBqsNjbh8PI1TWUKw1xlLlvGAydOHMfu3YEoUNDVwm8RQtBAsSyYP48vsefdtJmQwGEEoRa4x4yLE+7cI48Ze1i9aiV8fTry4PQsRonfxMkoUqSofCek0YOqYaIME2nev3+Pfz9/xud//8W//wZvP4ds/w3eNmhQ57vvvXr9QYC1GkID4wuCkJPly5aiT+8eePnyJffKGzFqdHBb0ki0WZLDppeWLFkUb4PHKMP+GomOnTqLNsl2qL+2EWU9mSwSZmzvg/TTewUG7kH1apXh4VEa6zdsFm2O/einaDQJ85IpWtiNe8kc+vuYaHPMQtWFkBMmzOR0ccJdwcKMXsYt3OV6kj/fb9CwEZ/eJL3bNaEHEv0a/7v3Xr0hYYYgosPI4yEWP6Z37x48iDmjT9/+6BucrEEr/ey6tWvQrOlvfH/T5m3aWlHKiGilYpkhlgPM/4PNScNEuhS2lDGjW/cetmeHmhIRAaWzv1yZkOVVd+0OFF4VqLoQRAii7zOp0l9/jcCx46dQpGhRLFu6BCmTJ8bM6VPp/iYsomOHtrhy5bJoMzSL6PufkrzJiDx58gTNm3ujQvkyXJRp0KAhgm7ft1qUYYguP0vS4D8GcVHG0dER9+49QokSJYXbRPXVDKIzWqKCcXj1+oPtGpNBSvzkyRMoU6oEChQsiN179os2RygGKXJZqVq1EvYF7sXGjVtQ0qOUaHMIS6CKbx1W9ipq8ZjRI0yYYbGs2NKeLHaJ/8TJcHV1E20WoSIShvOaSZYsGZ49e8b32Spfvl26omjRYqJMIwhCMIP//B1jx47m+yx+DAvsm79AAcFWyUetmtWwa9dO1KhZC/PnLxJtDhGKThxizBKLZDjzjAttkLp162n2s6IFOFJe1Q3r4JgoM+j3P20TZURXANUkB2WT+AvWVrI6jxGC5GUnPissSjLCpjI9efoSbdq2x4UL53mstM6d2uO///6T98SEZmjRohXfjp/gjxs372DK1OlwcsqBbdu2oKJXeb7q18aNGwRbSdiN6HaOkqbSwoXzkSZ1ci7KpEiRAnPnLcD2nbuRv2AB4bbJke4/uIcsjhm4KPP7H4Mxf8EiZc5NWIQKqogixevw6o0dHjPWnkypE0nItWtX4VowH7Jly47jJ06LNse4qKby2G7Ils2b0LBBXVSqXAVLl62U0Cbto5riJYTw5s1ruDg74d79R1Z9zyi/oNhPSE5dOH+ee88cPxYS12qC30Q0b9FSpGExQwWsCF27+GDOnFlcmAkTaRhMmPGbMB6HDh3krx0ds3APmmbNWogyNQTDdBiGuVBDofZSZctez5gxzdRP/P77n+jeo5fF39dis71lS/D4vH5dvr9m3UaULVtOsEUxocUchmbNVppYalaN1MC4seFiy2gJxWVBB3mTcM3Tuloc+VtPnzzmokyKFCmDO72Vwq9CbYkgbEF0vVVrii6ncubKjV2792HS5KmIFSsWuvh2hkfJ4jhz5owKrI4iKe0ZZ9gUrp6Ee9+rYmVsDdiJnbsCUbVaddy8eQO+Pp2QIX0a/iv6l//9T4y9ouulncnyf6ItpSRHUiMPHz7kHt3p0qZEm9YtuSjj7d0MDx89s0qUYYjOX2tyPcWiAAAgAElEQVTTiL+GclEmbdp0uHnrLsqVLSfcppiTRluN8P2NFpIgYok7tQowUyiPHj/EkiWLkCpVajRq/JvEhe4gb1JZDRZ9f4nOjTKlQ4L97t4TaDavCIIg7MFc+8QG3K9ev+feEadPnUTJ4kXQrYuP8HZTdCKizhd3d3csXrwMp8+cR7PmLfD69Sv+EJc08S/o37c3njx+LLzstJQIQi0EBu5F48YN4JTdEWPGjOLx3tiy17tDBfwECRKINlE22ApTeXI7Y/jwYdyT/dLlazzGltYR3b6ZT9b9E2apJT9oyJAsE2aE5YslGWNHMmPAN2+ZnjJcnEqzXKZkZJo3a4I7d25j7ryFyJAho2hz9I3oik6JGggNwaYyBe47iLx582H27JlInOhnLFy4QLRZwhB9G4i+/czdimwqk7//ZB6km/2KHidOHEya5I9sWTOhbZuWuHjxgpkjEAShBmbOmAY31/yoWqUiNm5Yj9SpU/PYh/fuP8aMmbPh6qbvAPHdu3dB+XKlERQUhL79BnBPdkKdiO4fo0/yCEgOr99+1OysLznH8+/fv0PqVMmRIMHPePjoqYxnIvTM5MkT0bdPL3Ts2BnDR4yK/oP0cKoolN3SIFXnwWPM5HDCvQfWxZgxDAr00kyYYbFGGO7uhfjqTS4uOeU/MSGcLl06Y87sWZgwYSJatGxl/gvhYMIMi0Pz+HHIvVu+gmfw8brx5WUJK6GOiZCRq1evYMb0aTyF4VGqFNq0acenKhqBgG1b0aplc7x+/ZqvMDVz9lxkypRJtFnKoNmnfWOhaIwZuX7lkYOxod4y3bUWW0briK5UEqYjR//mogxr/IePHCVpZVbB5Wk6EdIgdZmIrheqrX8KGNWyVWu8fP0OTZo0xdGjR1C4kCt69eouPrNkyVBCKjp18sG167cwY8ZsLuTt2B6AypU8UapUcaxbu8a6g4muR6KTTIi+LEpi06aNG1CtSiW4FshnEmWYGHP8xCls2rQV1apVF26j3Onrf/+hZfOmqFunFhdlxo6bgJ279iBzpkzCbbM22YxowxW/YG3i8EbDHjNykihhAr6cKJuHz4Ikqg4DVlaGVi6b1Z2Evybgdef1m/eizSEkRys1USrk7SaYx4xzDifcJ48ZVcCEmc6dO+LihQv48cefMHHSZDRo0FDy89DgQx2wINDcY8bPeo+ZyDBhZsKEcdi/bx9/nTH4wYd50DDhz16M1uoSREQsvwPevn2D6aHeMQ8fPuDvZc/uhLZt26FN2/ZyGSiImHuSpUuX8IDGDC+vipg1ey4SJkyohGGEFWhuPCCTwSpUHGTEQnVu/Pix/MG6a7fuiBU7lni1UAIFUbS5RhNOy5QOcePes2efjUcQndOU9FETpUKpPBVdrmpJYmFTmY4cOY5Ro8fin38+onWrFvDyLI9r165Keh7RuUzp+xpn73EqVPDEli0B2Bt4ADVr1sLtoCA+RS5NqhQYNXI4Pn/6ZLeNhOjaQklMMs/x48e4CJEmdQr8+ccgLspUrVodGzdtxYmTZ3QoyjCizq/nz5+jZo1qPD/Yj6Rz5y7AylVrkTBhomi/o62kL0TnptW5LdOJYhZmROeCoDo8buxovu3evadwkxW+dBUgOqfsTz16dMOJEycwZux4FCjoauNxCJsQX/yUqLpLgOgCCUnt23fE02cv+SodBw8eQIH8edG/X198+PBRuG1UIdXItzwsGNz3LVi4BOfPX0arVm3w7t1bDB0yGMmSJkKvXj3w4MEDiClbPSSCiMiSxYvg4VEMpUuVwNKli/HLL78Gj0V74eq1m1iydDlKlSot2kRFmTJlEjJlTIedO3egYcPGeP3mA+rUrSfaLIkR3Q4Zqx1TKldi2ZNnootUjjR71gw+/5ANJLTh6iY6x6RO2mb5sqWYPm0q6jdoiLaW/DIhOrutTHIvlGZ3Ep9FlGxJ7D9IVAcsSOIv2MokEDaVaeasOdgWsBPZsmWHv/8EpEyRhAeMvXnjhljjZEN0gYusZNJWVDaVafwEfzx89Ay9e/dFvHjxMHXKZDhlz4KWLZrh3LmzMRWEPhFd1IKT8HGCTtKDB/fx++8DkDpVsuDxZiucPHECrq5umDlzdvD99gR//DkYadKkEW6nkunG9Wso5VEcvXv1QNKkybBu/cbg/mu2cLuiSqLvQwuab5kRfcHqzBiHt++MGmMm6sx2zpEN9+7d5evZp0uXXmGbDIyQRiF6bDHnRvBDSt48OZElSxacOUvLhhKEpbAYMzmcsuPBw8eiTTEk1gwC/P0mYNjQwfjw4QN/XblKVXT28UWxYsXlMc4SDDqKkQoWY4atysVizLRsaX8sGHNMnToZE8aP4w+WjIKurqhevWZwqgHH4P5TNCobjhBEBHbv3sVjx2zatNH0XuPGv/EfAwsULCjQMrEMGzoEw4cP4/sdOnbCqFFjBFtkbGTrlnXe39sozOiz29qyeRPq16+DypWrYNnyVaLNiRmVFYHKzBFChvRp8OLFC9y5+wBJkiQRbQ5BaAYSZrTHrFkzMdF/AhekGWzqio+PL2rXqSvYMsJafJkwE1yefkyYkSBIr6WsWL6MBwo+e/ab10yu3Lm5QMOEGhcXF8VsIQg1w+JehgTznYpr167x99KmTRcazLcdfv75Z8EWiuPY0aNo2bIZbt68iazZsmH27HnB/ZFxBSoiZtQuGNkY2VbjRHNZy5cv5X+ux1afkNkzym43OHnNM1qNsJsa1atyUYa5TZIoQxCE3mkV/ADPPAOXL1/FvWVOnDiOpk2bIHv2LJg0yV+0eYQGqFe/AQ4dPorAwAPo1q0H9zY9f+4c/+Xb3a0ACuTPwwOYnjp1SrSpBCGES5cu8eDZv/4SHz17dOOiTJkyZbFs+UpcuXod3br3MLQo06N7V5QuXZKLMv0HDMTp0+dIlCFiRLZnYQuf383qA2/f/WNe4xH85K3E6f/9918kTvQLfogbFy9fvlHgjIReWLduLX5r3BA1atTEosVLRZtDSIFDhI3mkN3TU+ITkMeM9mHCjL+/H1avWslfs1UwfHy6cC+aFClTCraOiAlRHjNRwYSZ9evXBae1uHjxoun9DBkzmjxpChcuLNBCgrAMW8cPQUFB2L49AAEB27Bt21b+HmtPmXcMm66ULVs26YzUKCxvWrZsHvy89hLu7u7cSyazo6NoswjCbhzevbdAmDEACxcuQPt2bdCkiTemTpsh2hxCQ6RPl5p3DnfvPUTixImlPbiNPbtWBQXrMc6Vqgtpuw0mzDg5ZcdDjQkzkuWCjnrhB/fvc4EmvNcMC4bOBJq8efMJtIyIDjUJM+G5dvWqSaQJ7zWTKlUqk0hT0sNDoIUSYWE3Rr1ddGg/Z1jcmO0BAdi+fRuuXLliet/Z2QVt27VD69ZtBVqnHr5+/cqDhi9fvoy/HjtuPNq16yDYKksR29GbPbuOxiFahoSZUKpUroi9e/dg0+athltWTtWofMAycEB/jBs3FkOGDkO3bt2j+IT2BwwEITchwkw2PHz4RLQpKkOb3TOzmsVEYIGCJ/r74fHjEMHNw6MUfHy7wNPLy/wBCMVQnTATRbd55/btEJFm3Vr8/fffpvfZjyFcpKlRAxUqeCpoZFRQf09Yxt07dxCwPQDbA7Zx7xjmtR9GpkyZUMHTC57B9dmrYiWBVqqLZcuWclGG4RmcP7PnzJP+x1AiBpTpmKM9i0HGBSTMBPP48SNkccyElClT4cbNINHmSIPqBA39DVhu3ryB3Llc4OiYBefOXzT/BYIgooSEGX3DBtRMpDlz5jR/7eTkxKc5NWveQrBl5jDG8MjXpzMP5uznP5HHDjKP2P780aNH3Itm/bp1CAzca3o/fvz4oSJNTVStWk2cgQQRBYF79yJg+zbuGXPpUsQxI4sbU8HTExUqePH2kfgGi9/IBBkmYDk4OHBBpn79BqLNIlSDvP200kJRHHkOqy2WLQtxiWvQsKEKBQ31nJmISKeOIe6TkyZPEWwJQRCEemnQoCFP7CGaCTQsbkLHju3Rt29v7kHj69MF8RMkEG1mFBitv9VGOH82lYnF2mCJTSMO86RhD25Lly7hKXbs2CaRhsV/ixOHhruEsty/f4+LMGGeMZ8+fTL9LUOGDFyECRFjPPHDDz8ItFS9TJ0yGT16dOP7rA9hogxBRETePivao3/3B2mUGmk8ZszkiTq6+eitKFLEHWfPnMHhw0eRJ29eBW0itMrKFcvRrJk36tWrj7nzFog2h7ARdbRNyqHW3//JY8ZYsBgK/v4TMG/uHNN7rVq1gY+vL7JkySrQMmPi69Mp1GNmkoUeM+rkw4cPJpFm48YNEf5WuXIVk0iTQJUiIKF2LBkv7N+/DwEBIYF7L1w4H+FvLEwCE2E8PT157Bgiem7cuI4WLZrh2LFjfKXTOXPmyTZVUa3jIsKYOLz/YI0wo7/HmEsXL8LVNT+cXVxw/DgtyUhYRooUSfH+3Ts8efIcCQQsVWj3nai/W5nQMG9ehwozj1QqzFg5cqOBnmW8efOGe9Awkeb9+/f8vcpVqvJpTsWLFxdsnXHQizATnv/9738mkYatnPjlyxfT38qVKx8q0tQIfuhLKtDKiFjcLVP/rRoePnzIvWHCxJiPHz+a/pY2bTouwrB4KMwzJl68eAIt1Q7Dhg3FsKFD+H6HDh0xZuw4wRZpHAsHJDRuUQdxjN7CL1sesrwxc5Ej1I8aBi69e/XkoszIUaPx8y/KizIEQSiMle2JbntVG0du0X3t119/xYCBg3hiwgATaTZv2shTwYKufJpTnTp1bTaX0Ae23E9xYsdG7Vq1eWJs3ryJCzTr1q3Dzp07eOrcqQNKlCzJvWiyZs2K/PnzI1my5NIaT+iOgwcPhExRCtiGs2fPRvgbq0+eoYF7c+bKJchCbTJ2zGgMHTqET/linpNz5s6Dm5ubaLO0j+pDdIRiZnxhFOHI4f2HT0a51ihxyp4V9+7dxZWr15EuXXrR5siG2RtO+B2pDS5fvowC+fMiR44cOHnqjGhzCEIXqN5jhlCMTZs2cYHmwIH9/HWaNGlRp25dVK1aFcWKkReNHPh0DvGY8Z+oH4+ZmNi5Y4dJpHnx4nmEv7FxIBNo8gWn/PlCtiymDWFcnjx+zOPEMCGGCTLv3r0z/S116tQhKyiFesb89NNPAi3VJuPGjuWCzD//hHgb9e8/EP0HDBBsFWE4VCIMGVqYOXjgACpUKItixYtj+/Zd3/3dIq2CBA1DUbZsaRw+dAi7du1BkaJFRZtDELqAhBkiMidOHIef3wSsWrnS9B6LNVClajUu0rCYIYQ0GE2YCc/+ffuwbv1aXL92HadOn8Kzp0+/+wx7+M6XL79JsGH76dKlE2AtoQRsetLly5ewLzCQT1E6fTpimAMmEDMhhgkyefLkEWSl9hk/fhwXZD5++MBfd+/REwMGDKQpX4S+MaO6SBqm3mqNQrCoETaNqWGDhnAggYUww+JFi7go0/i3JiTKmNDHjaOPq/iG9tR2h0jbyGjvigj7YFOZFixYhBEjRnJxZuPGjXwKwYL583iKFSsWqlStiqpVqvFtwoQJRZtMaBA29YSlMO7du4dTp07h9KmT/IGc7bMHdZa2bt1i+lzy5MkjeNUw0SZjxkwyW6u3nkost28HcS/oy5cucSGG7wdvX79+HeFzKVOmDPGKqRDiFfOzgLiCemLChBBBJiyuWPfuPTBgwCD8+OOPQuzRz+hCP1eia8wtmPTho3E9ZpIlTYIPH97j2fOXiB8/vmhzCEmRfgCTKOHP+Pz5M169foe4ceNKfnx7oOEaoWVec4+ZrHj06Ptfq9WM+jtP9VtoDS9evMCmjRv5ijssZkh4Spb04J40zKMmY8aMgizUJkb2mAkh5h6UiTJMpDl9igk1IYINE3AikzhxkkjToAogS5YsEllB2MrVq1cjCC9h2/CBesOTOnUaPl3dw8ODCzHMQ4qwHz+/8VyQCZsK1rVrdwwcOBA//UTPX2pA/tGCvsYjciGpx4yW2LBhPRdlqlWrTqJMlKh7iKC0dV27+nJRZvx4P8RTmSgTI+ouRoIIwZzDjGiiGU+o1dxviLFQruEXW0HHu2kznv777z9s2hQi0mwKTvv2BfLUs2cP5MmTF1WrhnjS5M2bTyZr9IRDNPvqQpRlaVKn5qlSxUqm954+fRriWXP6JN+yxDwwdu/exVMYLMB1yDSoAiGiTfC+k5OTZSdWb1GoDrbqlkl4uRRRhGErdEVFxkyZ4JwjB3LkcA5JziH75H0nLf7+fhg6ZDDevn3LX3fp2o1PWaJl6xXGTMcsf3Nj2xmkG09oQxgyrMdMo0YNsG7tWixZsgw1ataU8Uzq7FnVaZUNKHAhLOp+IXdXPpf4yNHj8p+QIAwG95jJnhWPHmvLY8ZwqHi0wEQZJtKwdPv2bdP7GTJk4CINSx4epcQZqGI6c4+ZGZjIPWbaiDZHOhQe6Lx8+cIk0oR519y4ceO7z7EfA01CTeg0KCenHIgdO7ayBmuQDx8+hIovIcLLpVDx5fq1a9F+J3v27KHiSw7kcHY27VOgXnmZONGfCzJv3rzhr327dOWCDE0FI2JEJeMMUYKQRoQZaXvXf/75B0kS/8rnM754+UaABQLRzYUoR4nixXD8+DHsP3AQrq60dB9BSA0JM4SUnD17hsek2bhhA86cOW16n3kvhHjShAQQpgfhELgwMzNUmGmtI2FGBbCH0tOhYs2p0yf5/pUrV6L8bKJEiZA0aVJTSpI02bfXScLeSxrhMz/88IPCV6QMr1694p4vl8JPQbp0GXfu3I7y83HixIkkvoR6wgTvx44VS2Hrjc2kSRO5IBMWq8fH15fHkPnll18EW0YQFiBIFQk7bRw5n9TVqgEsXxYS9LcBC/pr7ZfVelGELMydM4eLMs1btCRRhiAIQgOwqUws9e8/IPhB7o7JkyZw714sXryIJ0alypVN3jTsIZcgpIaJgSU9PHgKg3l9hAUYDvOwuXLlMhcjWIrKyyam40cQbJIkjSTuhH8dIvRIueoNmybErocFcmXhAd6//xBpG/x+8P77D+G3we8HfydkG/J+5O88evQoyvMxb6Pwwotz6BSkrFmzSXZNhG1MnjyJCzKsDjM6d/bBgIGDeB0lCM2g9HP+14indfj48bNy2pBKRA0vz/II5Mvg7YjQWRJEZH76MSSezMd/Pgu2RF2o5FYmdIoG3DgJDcK8F0Ji0oTEpgkfe6Jo0WKoWi1EpLEmYKseII8ZdcAeaJ8/f25KL8L2X7Dts4jvhaZ///3X6vOwqSRJohBxWPr69WuUIsv3773nggzzQJeDRIkSw9k5h8kLxjl0ChKbmkioiylTJmPIkCF8Kh+jU6fOGDhwEMXqsRMaBxkTh+AHTkOV/YMHD5DFMRPSpEmDGzeDRJtDCCYmgaFjx/aYPXt2cKczFS1atFTMJoIgiJgwVKctI1s2bzZ507CH3DBcXFxQpGgx5MmdG7nz5EHu3Hl0HRch7AcIBv0I8Q0t/ADBxEaTkPMiomjzfQoRdz59+iTZ+dl0wPjxEyBBgviRtlG/xzxeIm6j/lyqVKkks5GQh6lTp/BVlsLazo4dO3FBhk3JI4wLjU/sw3DCzLixY9C/fz90694Dw4b9JdoczaGFgYoUnDhxHMWKFUXBgq44ePCQaHPkwygFShgTQ/VuhD0cOnQQGzZs4LFpbty4/t3fHR0duUCTO3duHgie7WfOnDnCZ9RU3Sxt2n/88ftVBv8hcUadSNRfs+WKX5g8cSKmWA6xED9BfCSInyDcNkHwNn7INpLIwmI1EsZi2rSpGDpkCJ49e8Zfd+jYkS97zZaLJwSipg5IBWg1OwwnzLi5FcT5c+dw7NgJ5AoeYCkNPQcrhJ0ZXcjdDWfOnMGRo8eQN29eaWwidIBUd7Chml1CFFTNbOLixYtcqDkXPFZgq/KdO3eWP8xGhgWzZAJNiFCT27SvpYfVqISZMWPGoXXr1pLGIlElNCAzCFTQUjB9+jQeQ4YtFc9o374DjyFD8bmigzrgGNFJ9kh9GZoQZqRqUs+fPw9X1wLIlSs3jh8/IdFRdQL1WyamT5sGX18ftG3XDn5+/qLNiQQVFKE/2OoN2bNlweMnzwRZoPpukBDMrZs3cfbcWZw7ey50exa3bt2K8rPZsmdHHuZdkyd36DYP0qdPr7DFlvFjvO+FmTC8vb15zBl3d3cFLdIT1F8T2mfmjOkYMmQwnjx5wl+3a9eeCzLJkiUTbBkhLzofF6n08hz+0YAwIxVsCtPYsWP4FKbu3XvIcxLqhy1EnRnFAun98nN8vgTl23cfRJtDEIZAvDBDSIsxhhVv377l3jRnz57jQk3I/tkoA6ImTpw4ZCpUnm9TodiWLfMrmvDizOkzZzFr5kzMnDnDFIuEeY22at0arVUXGFid4wiC0DosCPTsWTO5IPP48WP+Xtu27bggkzx5csHWEcZEo+MKK81WlzAjcx/r6JgZD+7fx81bt5AmTVp5T6Y4NECRgtatWmLhwgWYOWs2mjTxFm2OaqHaRkgJE2ayZcuCJ6HCjHo6JYKwnmvXroZMgQpOYd41d+/ejfKzzs4uIUJNcGLeNWnTpeOrmbDEpkopQedOHbkQM3HS5Ajiy8IF84Pfn4mjR4+Y3uMCTas2yJsvnyK2EfJB/TgRGbZiLRsDsxRGmzZteVDfFClSCLTMeNA4SDRiSsDhn08qEmZkZF9wY1OhQnm+PPb27Tss+AZ1WUYgfCkfPnwIpUp5oEiRoti7N1CYTQRhNCILM0TMGKLT1hmvXr40iTSmbXD68uVLtN+JFSsWEiZKhIS/JgzeJjQJNgkTJgq3H/P7ceNGP1UpjB/j/WDa/+fT98svnz1zhgs3LIXh5ubO49B4N21mXUZoCBoFEkbg9u0gLFgQIsbcvn2bv+fg4IBWrVpzQSZlypSCLSS0BI1PrCVijskszKinW2vfri3mzp2DqdOmo3nzFqLN0SzqKVHpyZcvLy5duojTp8/wXzEJgiAIwlJsGUyxPifMu4ZNhbp37x4XKlliU6Xs5aeffuKCTaJEUYs4bHp3ZD5FIc6EMWtWyDSn06dP89dM+GFeNiw5OzvbbS9BEMoQJsbs2/fth0gPDw/uLU4e44RW0bow5PDPp3+1fg0WkSjhL3ze96vXb4WumKBnYUPLjB49CgMG9EfPnr0wdOgw0eZ8D1UcgpAfQ/SGhFb477//8Pr1K5NQ8+rVa9N++Pcjpojvf/5s/dLXMQkzYRw7dpRPc5o/f57pveLFi3OBpkGDhlaf05BQv04oDBNhuCCz4NtUpYyZMsGbiTHe3siYMaNA6whJoHGMIsiVzZoQZuztu9auXRs8UKiHmjVrYdmy5ZLYREiESgYmadOkxrNnz3D/wUOKNE8QhL5Rfa9PSMXHjx9NYk1EYSdExOnXr+9337FEmAmDCT9h05wuXbrE32OxcUK8aFrD0TGLZNdiMSoZVxCEGmDTk5gQs2DBfNNUJQZbda2Jd1OULFlSoHUEEQqNSzgOnzQgzNhLvXp1sX79OqxYsRLVq9cQbY600ADEbhYuXIhWLVugSZMmmDV7jmhzCIIgCEIx4sX9FmPm02fLRZnIHDhwgAs0y5YuNb1XtmxZvuR2rVq17LKRIAjrYNOUmHcMi7EZBouzGeYdQxCGRqXqh+6FmQ8fPiBx4oSIHz8+Xr58HfOHSeQwJK4FC+DcuXM4ceIkcuXOLdocIgro1rQOrTXqPPhv1ix48pSC/xKE1mGxcZhAw5bdvnHjBn8vadKkaN0mJBZNunTpBFtIEPpk3759fDW1BeGnKmXMCG/vpjRViSCUxMaBuDTCjIqfmmbPmoUOHdqjZatWmDJlqmhzCJWxc+dOVK5UEeXKlcPmLVtlO4+KbxGCEA4TZrJmzYKnKhdmtCZ4EYRodu/axUWaNWvWmN6rWLESWrdpjcqVqwi0TDmo/yfkhE9VCvWOCQoKMr3Ppyo18eYBfQkiMjSeUScOnz7r22OmXNky2L9/P3bu2o0SJUqINsdwqH1AUqVKZWzfvh2bNm1GhQoVRJtDEIZEK8KMUdH1IIFQhOfPn2PmjJBYNGzlKUaaNGm4B02btm0tiu2m9vEEQSgJm4bP4sYEhp+qVLIk947xpqlKhEYx+nhD18LMvXt3kcXREenSp8eNGzdFm2MVNACRnwsXLiB//nzImTMnTp06LdoclUA1j1CeEGHGEU+fPo/mE7rtpgjCcGzdugUzZszE5s2bTO+5urrC09MLXl5eKFSokEDrRED9LmEZfKrSwpCpSl+/hvSLpqlKTbyRKVMmsQYSAqFxki2oLdfiiDZATpYuCQlA16hhI+r2ZEd7OTxhwni+7dq1G7RoP0EYB73en2obEhCE/LCpTCw9ePCAe9BMnz4dx48f52nYsKFIlCgRF2jChBoWn8Yy9NpOEEbmzp073DOGpfBTlZgQwzxjPDxKCbONUBNqaf+0Na6RK9dszYUYPWbUUsS2UqxYURw7dgwHDx6Cm5ubaHNkQuulJIYXL14gVaoUSJIkCR49eiLOECo+ggjxmMniiKfPovOYsRNtjRMIs1CBWo42OhkmygQEbMO2bdtw5MjfEf7m6urGBRqW3N117E2jjaLSBypvQq5evRp8Hxzh3jF79+41vR82VYmJMg4OVGEI4hsqv6ktxOGzTqcysdWYEiUKWY3p1SszqzHZBDWIEdBYdgwaOAAjRozAkCFD0btPH9HmEIShkV2Y0Ru67LUJIoRXr15xgSYgYCvfsvg0YSROnDjUm6Yi37IfV6JFY+MSwrjcvXsXe/bsxt49e4K3e3D//n3T3zJkyAjvpt5ckKGpSoQwDD/uUCYDBAsz8vWaW7duRfXqVVGxYkWsX79RtvPIBg0oZOWXnxPg06dPePvuPeLFiyfaHIIwNCTMEJIix6iG+mRhHD92jAs02wK24eiRIxH+5ububpr25B68T2ZxdCwAABZgSURBVBBa4OnTpyYRZs/ePbhx/XqEv2fPnp3HWmri3RSlSpUSYyRBqBnNC0VRX0AcvY429u0LiVJesqSHXi+RsJEpU6ZwUaZDh44kyoRCtwghEqp/hKRQhdIVrm5uPA0YOBAvX74M8aZhQs22rTh29ChPQwYP5t4zXKTh054qcu8aglADb9++DRFi9u7h2/Pnz0f4e/r0GVC6dGmUCk5smzZtWkGWEoRGUKqfl00AivoCHD5//hL9KTU8uClapAiOHz+GQ4cP8/nJhLaQs+ply5aVB1C7du06uYUShApgHjNZsjjiGXnMcDT/QxBBKAQTZZgnDRNqjgbvh8e9UCF4eYYINZbEGdTwkJdQGV++fOFTk/bs2cu3LIbS/9u7/x8rznoP4M/CYgsL3V0t1dpUKAVuFK69YrXUSCExmlhvQE2u/c3+CTetP9Q/QW9Se/8F/U1vrlpurInGXL5UoTWtt1o0AVqLTa1SdJdvbe0Ce5lZZjl72GW/zTnPM/O8XslkDsuyfM6cOTNz3vt5num0fv36MoCplnvv3RypUnLhuiIR87wQA+9N3CSYaaiLFy+G0ZHhMDQ0FMZ6Mr9MulxY3NyPfvSj8LWv/Vv4yle+En7wg/+KXQ4QBDO5a91FSAJyvBYoJvUvhzxd66YpumsqxZ2dqgmEi2VkRDcN9Tp8+PDU0KSry7PPHp7xd+vWrZvqiNkzFcRs3749UpWQJtcBU1oZzPz0p8+EfXv3hi8+/HB4+un9S/45OV7YtN1DD+0KR44cCYcOHQ4PPvhg7HKAIJgB6vf8889NBzXFHTo7PfDAzumQ5v77749UIU1W7FMHDvzvdBhTdMlUVq1aNR3CFIt9DNKQeuhRazCTSpDxzW8+EZ588snwrW99O3zjG9+IXQ6JOHr0aNi167Nh586d4fDhZ2OX01irVg2GiYlL838jLJBgBuil4s5OVUhT3Ja7s5vm9ttvLycO3rZte9nJsH37tvLxypUrI1ZMaop5YaaGJ00FMRcuXJjx97t27ZoOYj772V2RqgRiqCtMGZhoYcfMgw/uLMdzHjlyVErNtEceeST88If/Hb7//R+Er371q7HLaSzBDHUTzAD99NxzR6eDmu75Pyof/ehHrwU126dDm3vvvbfPlRLLyZMnp0OYojOmuJNSp2Leos7hSYODg5EqBdqidcFMMb/MyLX5ZcYzm1+GuZ06dSps3nxv2LBhw9WT7Suxy2mejna4VVcvPiYuCWZYgAWeXQQzQCxnzpwJv/7182VHxMsvHyvXx469HC5fvnzD965evfpaSLNtRmjzoQ99KELlLNfp06fDiRMnri3HOx6fKO/e2Wn79n+eMWHv2rVrI1UNtFXr4t2DB6duk7179+7IlXBTfR739tR/PlWuH3vssXTG3DXIqq7fBHX+WUjDnBb6XhvoWrdNq379Ae1SDGX64hcfLucl7PSHP/xhKqQpA5up5ZVXXinv+Fks3T+jDGm2b58ObIrFh/f4zp07NyNwKZfjUyFM8UuBuWzevHk6hCluY13cSSkZzinQSq3rmHniiSfCd77zZPj2t/8jPP7447HL6Z+2fqCpwXvvvReG1qwJ73vf+8LFt9+OXU7j6ZihbmXHzKZN4czfdMwkoVVXBUTTwuuSd955ZyqoOXZsRmjzl7/8Zdbv37BxY9i+bdsNoc3AQAs3TkQTExMzApfOZa7XpnDHHXeELVu2TC1bt15/fHW55ZZb+vgMoOVcVyxICztmDpTr2jpmnDsb76mnOrplWJD5dntvC27G+bfhvMFhVsVQpvs/9aly6VQMh+rurjl27Fg49dpr5fKTn/xkxvdv27btelBz7fHdd99d3s2Hub366qs3dL0Uy2tXt/FcbrvtthmBS2cIMzw83L/iIWf9uq5o+AVovR0zkS/mihnSR0dGytbRsfHxuMWwKPPvOkvfuT74wQ+Gv/3tTPjrX0+HD3zgA0v+OTdq+Lt/iYoJ7i4l3zHjk+Xy9HffLjpmNm3aVN45pc3yPGJAs9R59ijmt3u5I6yplsnJ2Y8GxfXr6OhoGLl6LVusF/q4WIqu4KZ6++23y6WYJ7JYz5z75UQ4fi2EmW3en0IRaG3t6nipljbM/+PcAZH16U042KbPLznOL9O7l68dO8b3vve9MpT5+tcfrTmUKbRjGy3WpUuzXxjRJv3et2NNMtPfy92mHzF8OGAhmruf11/5hg0by+VLX/rXGV8/duz6JMNVWPP666+Xv2AsluLxYq1Zs6YjtCnWI7M8nj3YufXWW+f8ucXwrSowudmynO9ZqCLAL8KW7hBm48aNi95eTdLc9xS5a811Q11vwnk2SKuGMh2qKZhp1gGwWdX221NPfadcP/64YUxAt3YHQXVztmFh7CnzKYcyXV1CeGTG14tQZmxsLIyPj11dj8/xeOrP1x8XXx+fDjneeOONRddTBDNVWNMdmszV3VOnNWuGwtDQmjJcKpapuV+2Xgthtkw/XrlyZc9rgTQ0+3qh4iqryzwbZFnBTGqn3s6OmXRqS6eS3Pz85z8Pv/vd78LnP//58jaHAHEZZJ0O52bSUwxlKpZivpnFKkKU7iCn88+dQU73n999993w5ptvlku31avXzAhNZi5D5frGvx+64Xuvf8+Nfwd0S/0cleZ1Rq+2Wr+e7WDqL/vCDJS/ZXjhhRfKE9onP3l/7IJIQNUt89hjGd2dCyD5CzqgblXIcddddy363xbBTNV50x2auIMUcKNYx4U4gdByn+1Cqx6s57+Lr7ob0549e6LWQRqK8do/+9nPyjsefOELX4hdDgBAkoqhTHfeeWe5AKSrmT0xC616sA2hTOHAgfwm/mVuumUAAAC4uTQCn9ZM/nt9fpk9cQshurfeeit897vfDevXrw+PPvpo7HIAAADIyuICnxU9qqKvzp8/H1588YWwbt26sGPHjtjlENnTTz9drvft2xe5EgAAALi5VnTMHKzpNtksQsIj4Pbvnwpm9hbBTMJ1AtcMdK1Tk+bNB4B+SPW4VAfHNoBktCSYOVCuWz2Mqc0XBjWamJgIzzzzTFi1alV4+OGHY5fDHOzO/eXae5li77BeQNok9vuJ61J7LRzrgIy1JJipqWMmtRNUi/Rr0/7P/v3leu/evV5OuCb190JqDTPJfTZIZcMsV3IbdhZt2dYkqxe7WBPeWguSyvuvNRsUaJKbBzOpHCBv4vy5c+HFF18Mt912W9jxyXznl2nAS9UX5pcBliu142lrPiOktmFJmt1l4dqyrZI51rVlgy5FMi/CHHJ+bXKU+v5Ys8Gm7+AH+jC/TMM3UVYEM0DbOAcBOUj9WJfFZ8TUXwTyUvf+mPibeFlDmVJ47x7qCGZSqId4fvGLX4QLFy6Ez33uc2Ht2rWxywEAoCV8zli4uj//2vZ56Vl+stQdqU+BzmDTd/QDBw6U6z179kStg/h0ywAAQFxN/3xJXMk1yvQp0Bm4fPly4k09czt37lwYHR0t55cZGxuLXQ6Rbdy4Mbz++uvhtddeC3fffXfscoAFOnv2bLjnnnvC3//+99ilAADAtH6FJY2+K1N1NybdMhQTQBehzI4dO4QyAAAALNtiG2aWGuQ0OpiphjH1cuJfmsEwJgAAAGJaapDT6GDmYB/uyESv1Dt68How8+Xaf/bcGjsKEAAAgMiqT66NnWOmmJPg/e9/fxgeHjYvQa2aN13Xq6++GrZs2Rw2bdoUTpw4GbscYJGm5pjZePVYXtdcYY08rQEAkKnGdszolqk0L0ip2/79hjEBnXp9XBT8wOK5XonHMQsgdY0PZpo78a8LlLpUw5j27hXMAP2Q3I0cica5nCZY6H7qWAQQS2ODmSNHjpTrnTt3LuFfu5Bqi+I26YcOHSpvm/7QQw/FLgdgCQQ9i+c8DvUT4ADEMk8wk+6Fz/Hjx8v11q3/FFKuk95yNyaAbs6JQC/Nd4wR3AAs1mATL+DOnDlTdkrcfvvtZacE+RLMAACkROcNwGI1cijT9W6ZrZErYclqyAMnJyfLiX8HBgbCXsHMwrkOAgCiE+AAVBoZzJw4MRXMbNkimFm05jVIzWl/NemvUGZxWrQP0BIDXeum8FkBmqNpx5d+aMwxTIADtF8jg5njx0+U661bt0SuZBFcEJTq3AzVMKYv79tn80KD9SqX6fkler8PPD5z0GtOpnnp9evd92OWAIc2c4C+rp3v4bSDmTn2v+mOmWIok310VjlsFvPLADeTynGwtsuHVJ7QUjXhOqrp25gbeEkXL/lj1rILXGphTTiIEZ+jTu+18z082MR9pwlzzDRwszbKwYMHw/j4eNi9e3cYGRmJXQ7AnFI5H0S/HEllQyTMJiIFsfbDBR+jonX6NK6vkwWJtMfndMBPZldf7Ebvb+E97Zjp1f524sS1oUxbtmS1T3OdbhmAxXG+BFKWzOjQvhXS9R8l8eG1V0VEPgM5AcbVr+1f++47X+H1/oeDTdtP//SnP4V33303fOQjHwm33npr7HKIRDADAMBSxf4MdMNHutgFlZIoIkm2TP8tOvbo+winuf7Dpf3AtOeYmUUThjHRW7/97W/DH//4x3DfffeFe+65J3Y5AACwKD7ow83V9R6ZNyapfYTT0gKbxgUz1TCmLVsadEcmavXjH/+4XOuWgXYYHh4OY2NjscsAAKBllhvwLLm7bcH/cOobGxfM6JjBMCYAAAB6bckzzSy4cWbqGxsXzExP/CuYyVIxx9BvfvObco6hT3ziE7HLAQAAIFOLbqCZ4x80LpipOmYMZcrT888/X64//elPR64EAAAA5jdfA82KfhVShytXroSTJ0+GFStWhM2bN8cuhwheeumlcl1M/Au0w9mzZ8Po6GjsMgAAoK8Gri2NCmYMY6K4I1Ph4x//eORKAAAAYPkaFcwYxoSOGQAAANqkkcGMjpk8jY+Pl5P/joyMlJP/AgAAQNM1KpiphjLpmMmTbhlop+Hh4TA2Nha7DAAAiKJRwYyOmbxV88sIZgAAAGgLwQyNUXXMmPgXAACAtmhMMHPx4sXw5z//OQwNDYUPf/jDscshAkOZAAAAaJvGBDO6ZXCrbGins2fPhtHR0dhlAABAFIIZGuH3v/99mJiYCB/72MfCqlWrYpcDAAAAtWhMMOOOTHnTLQMAAEAbNSaY0TGTN/PLAAAA0EaCGRpBxwwAAABt1JhgxlCmvOmYAQAAoI0aEcy89dZbYWxsLKxfv96dOzJ05syZ8lbpxevvVukAAAC0SSOCGcOY8lZ1yxjGBAAAQNs0IpgxjClvhjEBAADQVo0IZnTM5M3EvwAAALSVYIbk6ZgBAACgrRoRzBjKlDcdMwAAALRVI4IZHTP5KkKZycnJMpQZGBiIXQ4AAADUKvlg5tSpU+Ef//hH2LBhQ7jllltil0OfVd0yhjEBAADQRskHM2+88Ua5vuuuuyJXQgxulQ0AAECbJR/MXLhwoVyvXbs2ciXEoGMGAACANks+mDl//ny5XrduXeRKiEHHDAAAAG2WfDCjYyZfb775Zjh9+nS48847wx133BG7HAAAAKhd8sGMjpl8uU02AAAAbZd8MKNjJl/VMCbzy0D7jZ89G7sEAACIIvlgRsdMvp577rly/cADD0SuBOilwWefnXpw8GDcQgAAIILkgxkdM/kaHx8v1yMjI5ErAXpp8Je/LNcDBw7ELQQAACJIPpjRMZOvs9eGNgwPD0euBOglHTMAAOQs+WBGx0y+BDOQh+lgRscMAAAZSj6Y0TGTL0OZIAPdXTK6ZgAAyEzywYyOmXzpmIH2655XxjwzAADkpjHBjI6ZvFy8eDFcunQpDA0NhcHBwdjlAL2iYwYAgMwlH8xUQ5l0zOTFMCbIRHeHjI4ZAAAyk3wwo2MmT4YxQR4mr1wJ42Nj04+LBQAAcpJ8MKNjJk9VMKNjBgAAgDZLOpi5fPlyeOedd8o5RlavXh27HPqoGsqkYwYAAIA2SzqY0S2TL0OZAAAAyEHSwYz5ZfJlKBMAAAA5SDqY0TGTL0OZAAAAyEHSwUzVMSOYyY+hTAAAAOQg6WCm6pgxlCk/hjIBAACQg6SDGXPM5MtQJgAAAHKQdDBjjpl8GcoEAABADpIOZswxk6+qY8ZQJgAAANos6WDGHDP50jEDAABADpIOZnTM5EswAwAAQA6SDmZ0zOTLUCYAAABykHQwo2MmT5cvXy5f+5UrV3rtAQAAaLWkgxkdM3kyjAkAAIBcJB3M6JjJk2FMAAAA5CLpYEbHTJ50zAAAAJCLpIMZHTN5EswAAACQi6SDGR0zeTKUCQAAgFwkHczomMmTjhnIw8CK2U9Bc30dAADaaODKlSuTsYuYzYqOC/Pig7qumXx0vvZX98+IlQC9VoQw42NjYWR0NExefb8Xf56c5X1ffP3/RvaE8X/ZE0b27Q73/fvuCNUCAED9kgxmVszy29Jf/epX5Xrnzp0zvn706NG+1NQv8z2/tj//z3zmMzd8rXrtC21//rm//p5/ns//wY73/WyhTGG2LhpBDQAAbdCYYKb6QNL5Ib0w2wf5Jpvv+bX9+c/2QbPzw2jbn3/ur7/nn9fzP1JzsDRXqAMAAClrTDBjSEsevPaQn85uGB0zAADkJslgpmCekXx57SEf1Zwy3evZvk8QAwBAGyUbzADQbp0hzFyPAQCg7QQzAAAAAJHcOGgfAAAAgL4QzAAAAABEIpgBAAAAiEQwAwAAABCJYAYAAAAgEsEMAAAAQCSCGQAAAIBIBDMAAAAAkQhmAAAAACIRzAAAAABEIpgBAAAAiEQwAwAAABCJYAYAAAAgEsEMAAAAQCSCGQAAAIBIBDMAAAAAkQhmAAAAACIRzAAAAABEIpgBAAAAiEQwAwAAABCJYAYAAAAgEsEMAAAAQCSCGQAAAIBIBDMAAAAAkQhmAAAAACIRzAAAAABEIpgBAAAAiEQwAwAAABCJYAYAAAAgEsEMAAAAQCSCGQAAAIAIJicnw2DsIgAAAAByUgQyFcEMAAAAQB90BjIVwQwAAABAD80WyFQEMwAAAAA1ulkQ083kvwAAAACR6JgBAAAAqMFiOmUqghkAAACAJVhKENNNMAMAAACwCHUEMhXBDAAAAMAC1BnIVAQzAAAAADfRi0CmIpgBAAAAmEUvA5mKYAYAAACgQz8CmYpgBgAAACD0N5CpCGYAAACALMUIYroJZgAAAICspBDIVFbELgAAAAAgVzpmAAAAgFZLqUOmm2AGAAAAaKWUA5mKYAYAAABolSYEMhXBDAAAANAKTQpkKoIZAAAAoJGaGMR0E8wAAAAAjdKGQKYimAEAAAAaoU2BTEUwAwAAACStjYFMRTADAAAAJKfNYUynFbELAAAAAOiUSyhT0DEDAAAARJVTENNNMAMAAAD0Xc5hTCdDmQAAAIC+Espcp2MGAAAA6ClBzNwEMwAAAEBPCGTmJ5gBAAAAaiWQWTjBDAAAALAsgpilE8wAAAAASyKQWT7BDAAAALAoApn6CGYAAACABRHI1E8wAwAAAMxKENN7ghkAAABgBoFM/whmAAAAIHOCmHgEMwAAAJApgUx8ghkAAADIjEAmHYIZAAAAaDlBTLoEMwAAANAygpjmWBG7AAAAAKA+Qplm0TEDAAAALSCQaSbBDAAAADSQIKYdBDMAAADQIAKZdhHMAAAAQMIEMe32/8sfEhAXnlhNAAAAAElFTkSuQmCC;imageBackground=#99FFFF;allowArrows=0;backgroundOutline=1;connectable=0;" parent="1" vertex="1">
                    <mxGeometry x="120" y="125" width="920" height="560" as="geometry"/>
                </mxCell>
                <mxCell id="6" value="" style="endArrow=classic;html=1;fillColor=#f8cecc;strokeColor=#FF0000;" parent="1" edge="1">
                    <mxGeometry width="50" height="50" relative="1" as="geometry">
                        <mxPoint x="460" y="360" as="sourcePoint"/>
                        <mxPoint x="590" y="360" as="targetPoint"/>
                    </mxGeometry>
                </mxCell>
                <mxCell id="7" value="" style="endArrow=classic;html=1;fillColor=#f8cecc;strokeColor=#0000CC;" parent="1" edge="1">
                    <mxGeometry width="50" height="50" relative="1" as="geometry">
                        <mxPoint x="462" y="364" as="sourcePoint"/>
                        <mxPoint x="462" y="240" as="targetPoint"/>
                    </mxGeometry>
                </mxCell>
                <mxCell id="8" value="&lt;font color=&quot;#ff0000&quot; style=&quot;font-size: 16px;&quot;&gt;z&lt;sub&gt;b&lt;/sub&gt;&lt;/font&gt;" style="text;html=1;strokeColor=none;fillColor=none;align=center;verticalAlign=middle;whiteSpace=wrap;rounded=0;" parent="1" vertex="1">
                    <mxGeometry x="500" y="360" width="60" height="30" as="geometry"/>
                </mxCell>
                <mxCell id="9" value="&lt;font color=&quot;#0000cc&quot; style=&quot;font-size: 16px;&quot;&gt;x&lt;sub style=&quot;&quot;&gt;b&lt;/sub&gt;&lt;/font&gt;" style="text;html=1;strokeColor=none;fillColor=none;align=center;verticalAlign=middle;whiteSpace=wrap;rounded=0;" parent="1" vertex="1">
                    <mxGeometry x="420" y="310" width="60" height="30" as="geometry"/>
                </mxCell>
                <mxCell id="10" value="" style="endArrow=classic;html=1;fillColor=#f8cecc;strokeColor=#FF0000;" parent="1" edge="1">
                    <mxGeometry width="50" height="50" relative="1" as="geometry">
                        <mxPoint x="649" y="210" as="sourcePoint"/>
                        <mxPoint x="769" y="208" as="targetPoint"/>
                    </mxGeometry>
                </mxCell>
                <mxCell id="12" value="" style="endArrow=classic;html=1;fillColor=#f8cecc;strokeColor=#0000CC;" parent="1" edge="1">
                    <mxGeometry width="50" height="50" relative="1" as="geometry">
                        <mxPoint x="646" y="211" as="sourcePoint"/>
                        <mxPoint x="646" y="300" as="targetPoint"/>
                    </mxGeometry>
                </mxCell>
                <mxCell id="15" value="" style="endArrow=classic;html=1;fillColor=#f8cecc;strokeColor=#0000CC;" parent="1" edge="1">
                    <mxGeometry width="50" height="50" relative="1" as="geometry">
                        <mxPoint x="496" y="290" as="sourcePoint"/>
                        <mxPoint x="564" y="347" as="targetPoint"/>
                    </mxGeometry>
                </mxCell>
                <mxCell id="17" value="" style="endArrow=classic;html=1;fillColor=#f8cecc;strokeColor=#FF0000;" parent="1" edge="1">
                    <mxGeometry width="50" height="50" relative="1" as="geometry">
                        <mxPoint x="495" y="292" as="sourcePoint"/>
                        <mxPoint x="565" y="220" as="targetPoint"/>
                    </mxGeometry>
                </mxCell>
                <mxCell id="21" value="" style="endArrow=none;dashed=1;html=1;dashPattern=1 3;strokeWidth=2;strokeColor=#FF8000;fontSize=16;fontColor=#0000CC;fillColor=#ffe6cc;" parent="1" edge="1">
                    <mxGeometry width="50" height="50" relative="1" as="geometry">
                        <mxPoint x="500" y="290" as="sourcePoint"/>
                        <mxPoint x="650" y="210" as="targetPoint"/>
                    </mxGeometry>
                </mxCell>
                <mxCell id="22" value="" style="endArrow=classic;html=1;fillColor=#f8cecc;strokeColor=#FF0000;" parent="1" edge="1">
                    <mxGeometry width="50" height="50" relative="1" as="geometry">
                        <mxPoint x="970" y="310" as="sourcePoint"/>
                        <mxPoint x="1010" y="370" as="targetPoint"/>
                    </mxGeometry>
                </mxCell>
                <mxCell id="23" value="" style="endArrow=classic;html=1;fillColor=#f8cecc;strokeColor=#0000CC;" parent="1" edge="1">
                    <mxGeometry width="50" height="50" relative="1" as="geometry">
                        <mxPoint x="970" y="310" as="sourcePoint"/>
                        <mxPoint x="910" y="350" as="targetPoint"/>
                    </mxGeometry>
                </mxCell>
                <mxCell id="24" value="&lt;font color=&quot;#0000cc&quot; style=&quot;font-size: 16px;&quot;&gt;x&lt;sub style=&quot;&quot;&gt;1&lt;/sub&gt;&lt;/font&gt;" style="text;html=1;strokeColor=none;fillColor=none;align=center;verticalAlign=middle;whiteSpace=wrap;rounded=0;" parent="1" vertex="1">
                    <mxGeometry x="555" y="320" width="60" height="30" as="geometry"/>
                </mxCell>
                <mxCell id="25" value="&lt;font color=&quot;#ff0000&quot; style=&quot;font-size: 16px;&quot;&gt;z&lt;sub&gt;1&lt;/sub&gt;&lt;/font&gt;" style="text;html=1;strokeColor=none;fillColor=none;align=center;verticalAlign=middle;whiteSpace=wrap;rounded=0;" parent="1" vertex="1">
                    <mxGeometry x="500" y="200" width="60" height="30" as="geometry"/>
                </mxCell>
                <mxCell id="27" value="&lt;font color=&quot;#ff0000&quot; style=&quot;font-size: 16px;&quot;&gt;z&lt;sub&gt;2&lt;/sub&gt;&lt;/font&gt;" style="text;html=1;strokeColor=none;fillColor=none;align=center;verticalAlign=middle;whiteSpace=wrap;rounded=0;" parent="1" vertex="1">
                    <mxGeometry x="740" y="180" width="60" height="30" as="geometry"/>
                </mxCell>
                <mxCell id="29" value="&lt;font color=&quot;#0000cc&quot; style=&quot;font-size: 16px;&quot;&gt;x&lt;sub style=&quot;&quot;&gt;2&lt;/sub&gt;&lt;/font&gt;" style="text;html=1;strokeColor=none;fillColor=none;align=center;verticalAlign=middle;whiteSpace=wrap;rounded=0;" parent="1" vertex="1">
                    <mxGeometry x="630" y="270" width="60" height="30" as="geometry"/>
                </mxCell>
                <mxCell id="30" value="" style="endArrow=classic;html=1;fillColor=#f8cecc;strokeColor=#0000CC;entryX=0.25;entryY=0;entryDx=0;entryDy=0;" parent="1" target="29" edge="1">
                    <mxGeometry width="50" height="50" relative="1" as="geometry">
                        <mxPoint x="648" y="211" as="sourcePoint"/>
                        <mxPoint x="590" y="280" as="targetPoint"/>
                    </mxGeometry>
                </mxCell>
                <mxCell id="31" value="" style="endArrow=classic;html=1;fillColor=#f8cecc;strokeColor=#006600;" parent="1" edge="1">
                    <mxGeometry width="50" height="50" relative="1" as="geometry">
                        <mxPoint x="643" y="211" as="sourcePoint"/>
                        <mxPoint x="720" y="300" as="targetPoint"/>
                    </mxGeometry>
                </mxCell>
                <mxCell id="33" value="" style="endArrow=classic;html=1;fillColor=#f8cecc;strokeColor=#FF0000;" parent="1" edge="1">
                    <mxGeometry width="50" height="50" relative="1" as="geometry">
                        <mxPoint x="650" y="210" as="sourcePoint"/>
                        <mxPoint x="730" y="210" as="targetPoint"/>
                    </mxGeometry>
                </mxCell>
                <mxCell id="34" value="" style="endArrow=classic;html=1;fillColor=#f8cecc;strokeColor=#0000CC;entryX=0.5;entryY=0;entryDx=0;entryDy=0;" parent="1" target="38" edge="1">
                    <mxGeometry width="50" height="50" relative="1" as="geometry">
                        <mxPoint x="650" y="210" as="sourcePoint"/>
                        <mxPoint x="600" y="270" as="targetPoint"/>
                    </mxGeometry>
                </mxCell>
                <mxCell id="35" value="&lt;font color=&quot;#0000cc&quot; style=&quot;font-size: 16px;&quot;&gt;x&lt;sub style=&quot;&quot;&gt;3&lt;/sub&gt;&lt;/font&gt;" style="text;html=1;strokeColor=none;fillColor=none;align=center;verticalAlign=middle;whiteSpace=wrap;rounded=0;" parent="1" vertex="1">
                    <mxGeometry x="635" y="250" width="50" height="10" as="geometry"/>
                </mxCell>
                <mxCell id="37" value="&lt;font color=&quot;#ff0000&quot; style=&quot;font-size: 16px;&quot;&gt;z&lt;sub&gt;3&lt;/sub&gt;&lt;/font&gt;" style="text;html=1;strokeColor=none;fillColor=none;align=center;verticalAlign=middle;whiteSpace=wrap;rounded=0;" parent="1" vertex="1">
                    <mxGeometry x="690" y="160" width="60" height="30" as="geometry"/>
                </mxCell>
                <mxCell id="38" value="&lt;font color=&quot;#0000cc&quot; style=&quot;font-size: 16px;&quot;&gt;x&lt;sub style=&quot;&quot;&gt;4&lt;/sub&gt;&lt;/font&gt;" style="text;html=1;strokeColor=none;fillColor=none;align=center;verticalAlign=middle;whiteSpace=wrap;rounded=0;" parent="1" vertex="1">
                    <mxGeometry x="560" y="260" width="60" height="30" as="geometry"/>
                </mxCell>
                <mxCell id="39" value="&lt;font color=&quot;#006600&quot; style=&quot;font-size: 16px;&quot;&gt;y&lt;sub style=&quot;&quot;&gt;4&lt;/sub&gt;&lt;/font&gt;" style="text;html=1;strokeColor=none;fillColor=none;align=center;verticalAlign=middle;whiteSpace=wrap;rounded=0;" parent="1" vertex="1">
                    <mxGeometry x="710" y="250" width="60" height="30" as="geometry"/>
                </mxCell>
                <mxCell id="40" value="&lt;font color=&quot;#ff0000&quot; style=&quot;font-size: 16px;&quot;&gt;z&lt;sub&gt;5&lt;/sub&gt;&lt;/font&gt;" style="text;html=1;strokeColor=none;fillColor=none;align=center;verticalAlign=middle;whiteSpace=wrap;rounded=0;" parent="1" vertex="1">
                    <mxGeometry x="950" y="350" width="60" height="30" as="geometry"/>
                </mxCell>
                <mxCell id="41" value="&lt;font color=&quot;#0000cc&quot; style=&quot;font-size: 16px;&quot;&gt;x&lt;sub style=&quot;&quot;&gt;5&lt;/sub&gt;&lt;/font&gt;" style="text;html=1;strokeColor=none;fillColor=none;align=center;verticalAlign=middle;whiteSpace=wrap;rounded=0;" parent="1" vertex="1">
                    <mxGeometry x="870" y="320" width="60" height="30" as="geometry"/>
                </mxCell>
                <mxCell id="42" value="&lt;font style=&quot;font-size: 26px;&quot;&gt;内窥镜&lt;/font&gt;" style="text;html=1;strokeColor=none;fillColor=none;align=center;verticalAlign=middle;whiteSpace=wrap;rounded=0;" vertex="1" parent="1">
                    <mxGeometry x="330" y="360" width="100" height="30" as="geometry"/>
                </mxCell>
                <mxCell id="43" value="&lt;font style=&quot;font-size: 26px;&quot;&gt;近端连续体&lt;/font&gt;" style="text;html=1;strokeColor=none;fillColor=none;align=center;verticalAlign=middle;whiteSpace=wrap;rounded=0;" vertex="1" parent="1">
                    <mxGeometry x="505" y="560" width="170" height="30" as="geometry"/>
                </mxCell>
                <mxCell id="44" value="" style="endArrow=none;html=1;fontSize=26;strokeWidth=3;strokeColor=#0000FF;entryX=0.5;entryY=0;entryDx=0;entryDy=0;" edge="1" parent="1" target="43">
                    <mxGeometry width="50" height="50" relative="1" as="geometry">
                        <mxPoint x="540" y="470" as="sourcePoint"/>
                        <mxPoint x="570" y="550" as="targetPoint"/>
                    </mxGeometry>
                </mxCell>
                <mxCell id="45" value="" style="endArrow=none;html=1;fontSize=26;strokeWidth=3;strokeColor=#0000FF;entryX=0.5;entryY=0;entryDx=0;entryDy=0;" edge="1" parent="1" target="43">
                    <mxGeometry width="50" height="50" relative="1" as="geometry">
                        <mxPoint x="580" y="230" as="sourcePoint"/>
                        <mxPoint x="570" y="550" as="targetPoint"/>
                    </mxGeometry>
                </mxCell>
                <mxCell id="46" value="&lt;font style=&quot;font-size: 26px;&quot;&gt;远端连续体&lt;/font&gt;" style="text;html=1;strokeColor=none;fillColor=none;align=center;verticalAlign=middle;whiteSpace=wrap;rounded=0;" vertex="1" parent="1">
                    <mxGeometry x="770" y="590" width="170" height="30" as="geometry"/>
                </mxCell>
                <mxCell id="47" value="" style="endArrow=none;html=1;fontSize=26;strokeWidth=3;strokeColor=#FF0000;" edge="1" parent="1">
                    <mxGeometry width="50" height="50" relative="1" as="geometry">
                        <mxPoint x="879.9999999999998" y="220" as="sourcePoint"/>
                        <mxPoint x="860" y="580" as="targetPoint"/>
                    </mxGeometry>
                </mxCell>
                <mxCell id="48" value="" style="endArrow=none;html=1;fontSize=26;strokeWidth=3;strokeColor=#FF0000;" edge="1" parent="1">
                    <mxGeometry width="50" height="50" relative="1" as="geometry">
                        <mxPoint x="810" y="520" as="sourcePoint"/>
                        <mxPoint x="860" y="580" as="targetPoint"/>
                    </mxGeometry>
                </mxCell>
            </root>
        </mxGraphModel>
    </diagram>
</mxfile>